<?xml version="1.0" standalone="no"?>
<!DOCTYPE svg PUBLIC "-//W3C//DTD SVG 20010904//EN"
 "http://www.w3.org/TR/2001/REC-SVG-20010904/DTD/svg10.dtd">
<svg version="1.0" xmlns="http://www.w3.org/2000/svg"
 width="1404.000000pt" height="1872.000000pt" viewBox="0 0 1404.000000 1872.000000"
 preserveAspectRatio="xMidYMid meet">

<g transform="translate(0.000000,1872.000000) scale(0.100000,-0.100000)"
fill="#000000" stroke="none">
<path d="M960 17727 c-33 -17 -44 -40 -36 -72 8 -30 66 -95 85 -95 19 0 51 40
58 71 4 21 10 28 20 24 38 -14 152 -25 187 -18 37 8 67 35 54 48 -3 4 -25 1
-48 -5 -22 -6 -62 -8 -88 -5 -55 8 -152 33 -167 44 -21 16 -43 19 -65 8z m35
-45 c34 -25 41 -72 11 -72 -12 0 -46 50 -46 69 0 12 20 14 35 3z"/>
<path d="M895 17470 c-11 -18 4 -27 65 -38 30 -6 87 -20 125 -32 80 -24 118
-23 123 3 3 13 -3 17 -27 17 -16 0 -66 11 -109 25 -101 32 -167 41 -177 25z"/>
<path d="M1060 17279 c-14 -5 -30 -17 -37 -25 -10 -14 -14 -14 -35 -1 -30 19
-80 28 -97 17 -21 -12 -6 -25 53 -50 47 -19 55 -26 60 -55 7 -35 39 -65 90
-85 20 -7 35 -6 61 7 32 15 38 15 68 1 36 -17 64 -10 54 14 -2 8 -22 19 -44
26 -36 11 -38 14 -38 52 0 68 -74 122 -135 99z m77 -53 c6 -6 15 -24 19 -41 7
-29 7 -29 -17 -14 -13 9 -39 24 -58 34 -33 17 -34 18 -16 31 20 15 51 10 72
-10z m1 -102 c2 -1 -3 -4 -11 -7 -19 -7 -80 30 -72 43 5 9 42 -7 83 -36z"/>
<path d="M1164 17025 c-4 -8 -2 -21 4 -28 5 -6 12 -24 16 -39 5 -22 1 -31 -20
-45 -25 -16 -27 -16 -40 1 -32 44 -88 98 -111 107 -19 7 -32 6 -51 -7 -21 -14
-24 -21 -20 -59 6 -46 43 -108 62 -102 19 6 18 42 -4 62 -21 19 -27 59 -11 69
20 13 81 -56 155 -176 18 -30 46 -38 46 -13 0 9 -7 29 -15 45 -10 19 -11 30
-5 30 6 0 22 11 36 25 21 21 24 31 18 62 -11 65 -46 104 -60 68z"/>
<path d="M1195 16619 c-10 -16 4 -61 18 -56 19 6 22 67 3 67 -8 0 -18 -5 -21
-11z"/>
<path d="M910 16522 c0 -9 18 -28 39 -42 33 -20 39 -28 35 -49 -4 -20 5 -36
40 -74 44 -48 45 -49 98 -45 46 2 63 -2 117 -30 43 -24 70 -32 87 -28 22 6 35
35 17 37 -5 0 -17 2 -29 3 -12 1 -42 15 -68 30 -44 25 -46 29 -46 71 0 34 -7
53 -33 87 -39 51 -75 60 -118 29 -35 -26 -35 -26 -75 4 -38 29 -64 32 -64 7z
m220 -54 c20 -21 37 -65 29 -73 -2 -2 -26 13 -52 32 -38 28 -45 38 -36 49 16
20 35 17 59 -8z m-33 -83 c42 -32 44 -35 20 -35 -39 0 -56 10 -73 41 -20 39
-3 37 53 -6z"/>
<path d="M956 16282 c-2 -4 2 -34 10 -67 7 -33 14 -84 14 -113 0 -45 3 -53 18
-50 13 2 18 16 22 58 5 53 5 54 17 27 16 -35 28 -34 60 3 13 17 33 30 42 30
16 0 49 -29 65 -57 10 -18 -12 -53 -33 -53 -23 0 -34 -35 -15 -51 20 -17 62
14 81 58 18 44 6 81 -39 118 -36 31 -77 32 -107 4 -12 -12 -23 -19 -25 -18
-70 112 -94 137 -110 111z"/>
<path d="M1194 15765 c-8 -21 2 -45 20 -45 18 0 27 35 13 49 -15 15 -27 14
-33 -4z"/>
<path d="M977 15713 c-12 -11 -7 -73 7 -101 48 -92 211 -157 259 -104 44 48
-16 152 -87 152 -22 0 -30 -43 -18 -89 11 -45 4 -46 -57 -5 -48 32 -71 71 -64
107 7 34 -20 61 -40 40z m243 -155 c0 -15 -3 -16 -19 -6 -20 12 -33 42 -23 52
9 10 42 -26 42 -46z"/>
<path d="M910 15442 c0 -10 11 -29 25 -42 18 -17 25 -34 25 -62 0 -49 19 -86
65 -127 38 -33 75 -39 118 -20 23 10 31 6 91 -45 68 -57 94 -67 116 -41 15 19
3 38 -21 32 -13 -4 -36 10 -73 44 -53 48 -54 50 -43 84 14 46 -4 103 -45 151
-30 34 -34 35 -82 30 -81 -9 -90 -11 -103 -19 -7 -4 -14 0 -18 13 -8 26 -55
28 -55 2z m234 -62 c26 -31 43 -90 32 -109 -9 -14 -136 89 -136 111 0 39 70
37 104 -2z m-40 -116 c36 -30 37 -32 16 -39 -12 -4 -32 -4 -45 -1 -26 7 -82
79 -65 84 6 2 7 9 3 15 -9 15 43 -19 91 -59z"/>
<path d="M2850 14346 c0 -7 11 -25 25 -40 31 -33 31 -34 0 -46 -16 -6 -33 -6
-48 1 -29 13 -92 -1 -92 -21 0 -9 22 -17 66 -25 72 -11 99 -27 99 -56 0 -26
-38 -33 -100 -20 -64 14 -60 14 -60 -8 0 -30 11 -52 23 -44 6 3 41 7 78 8 37
0 74 6 82 13 23 19 26 59 6 90 -15 27 -16 31 -2 45 20 19 11 57 -21 92 -25 27
-56 33 -56 11z"/>
<path d="M1975 14296 c-5 -2 -48 -14 -95 -26 -47 -12 -91 -24 -98 -26 -22 -6
3 -40 45 -59 20 -10 75 -40 122 -67 78 -44 111 -53 111 -30 0 5 -18 21 -39 35
-34 23 -41 33 -47 73 -8 53 1 64 54 64 26 0 33 4 30 18 -2 12 -14 18 -38 19
-19 1 -39 0 -45 -1z m-43 -90 l4 -34 -42 22 -43 21 27 12 c42 19 50 16 54 -21z"/>
<path d="M8186 14212 c-3 -5 -3 -22 0 -39 3 -20 -2 -43 -17 -67 l-22 -37 -26
24 c-33 31 -64 47 -90 47 -17 0 -21 -6 -21 -34 0 -46 17 -89 33 -83 6 2 12 18
12 35 0 18 1 32 3 32 2 0 31 -25 65 -55 78 -71 108 -72 76 -1 -10 20 -8 31 11
60 21 35 24 86 6 115 -8 13 -23 14 -30 3z"/>
<path d="M3675 14190 c-4 -6 7 -23 23 -38 41 -38 48 -66 23 -91 -26 -26 -40
-27 -47 -3 -28 84 -57 113 -99 94 -19 -9 -25 -19 -25 -44 0 -18 4 -38 8 -43
18 -26 77 -58 112 -60 97 -8 136 81 72 161 -27 34 -55 44 -67 24z m-45 -121
c0 -6 -9 -5 -20 1 -11 6 -20 21 -20 33 l1 22 19 -24 c11 -13 20 -27 20 -32z"/>
<path d="M5422 14167 c-5 -6 -11 -21 -13 -32 -4 -16 -11 -19 -56 -16 -47 2
-51 1 -46 -17 2 -11 22 -28 44 -37 21 -10 46 -27 56 -38 18 -20 17 -20 -22
-12 -111 23 -134 -2 -46 -49 29 -16 56 -37 58 -47 7 -24 29 -31 43 -14 8 10 8
19 1 34 -8 15 -7 27 6 50 17 29 17 31 -4 59 -19 26 -20 32 -8 42 16 13 21 75
6 84 -5 3 -13 0 -19 -7z"/>
<path d="M9468 14140 c-1 -5 -1 -42 2 -82 4 -56 9 -73 20 -73 10 0 16 12 18
37 l3 37 34 -20 c18 -11 39 -26 45 -34 20 -24 41 -6 35 29 -8 42 16 76 42 60
39 -24 56 -112 18 -98 -24 9 -36 -5 -25 -27 26 -48 96 8 86 70 -15 94 -120
137 -149 61 -6 -17 -17 -30 -23 -30 -18 0 -62 39 -69 60 -7 21 -31 27 -37 10z"/>
<path d="M4722 14108 c-19 -19 -14 -26 16 -30 19 -2 28 -9 30 -25 3 -17 -3
-23 -28 -28 -27 -6 -41 -1 -85 30 -41 27 -62 36 -87 33 -29 -3 -33 -7 -36 -33
-3 -34 19 -72 36 -61 7 4 12 18 12 32 0 13 2 24 4 24 14 0 116 -79 144 -111
33 -39 72 -52 72 -25 0 8 -12 28 -26 45 -23 28 -24 31 -7 31 47 0 60 71 20
108 -26 25 -47 28 -65 10z"/>
<path d="M1094 14078 c-11 -38 -51 -52 -66 -23 -12 21 -38 2 -38 -29 0 -34 17
-53 32 -38 6 6 24 12 39 12 42 0 89 61 75 97 -10 24 -33 13 -42 -19z"/>
<path d="M841 14077 c-13 -16 -5 -27 21 -27 11 0 18 7 18 20 0 23 -22 27 -39
7z"/>
<path d="M6240 14055 c0 -8 11 -25 25 -39 31 -31 31 -48 0 -83 -23 -26 -24
-27 -25 -7 0 34 -38 74 -69 74 -34 0 -51 -17 -51 -52 0 -37 34 -66 85 -74 52
-7 76 4 104 50 27 43 26 63 -4 109 -26 37 -65 51 -65 22z m-42 -119 c3 -13 -1
-17 -14 -14 -11 2 -20 11 -22 22 -3 13 1 17 14 14 11 -2 20 -11 22 -22z"/>
<path d="M1756 14045 c-6 -18 33 -44 148 -98 43 -20 98 -51 123 -67 50 -34 63
-32 63 11 0 24 -4 30 -17 27 -10 -2 -82 29 -161 69 -78 40 -144 73 -146 73 -2
0 -6 -7 -10 -15z"/>
<path d="M12087 14034 c-24 -13 -29 -24 -41 -86 -6 -30 38 -60 91 -61 72 -1
95 15 91 65 -2 30 -10 46 -28 60 -40 29 -82 38 -113 22z m99 -54 c2 0 4 -11 4
-24 0 -18 -7 -25 -27 -29 -51 -10 -93 39 -61 71 8 8 20 7 46 -3 19 -8 36 -15
38 -15z"/>
<path d="M2910 14019 c0 -19 -4 -20 -70 -13 -103 10 -126 -16 -71 -79 29 -32
29 -34 10 -45 -25 -16 -24 -48 4 -75 12 -13 22 -28 23 -35 1 -7 2 -16 3 -20 0
-5 33 -9 71 -10 56 -2 72 1 77 13 8 21 5 23 -63 41 -96 25 -131 71 -44 59 42
-6 50 -4 50 9 0 9 -17 26 -37 40 -21 13 -47 33 -58 46 l-20 22 66 -7 c54 -6
68 -4 82 10 19 18 20 25 11 49 -9 23 -34 20 -34 -5z"/>
<path d="M3749 13993 c-1 -4 0 -20 1 -35 2 -38 -29 -49 -96 -35 -28 6 -58 7
-67 4 -28 -11 -20 -51 18 -87 19 -19 35 -37 35 -41 0 -4 -15 -9 -32 -11 -21
-2 -33 -8 -33 -18 0 -12 17 -15 85 -16 47 -1 94 -3 105 -5 12 -3 21 2 23 13 2
13 -9 21 -51 33 -49 14 -129 76 -116 90 3 2 21 0 39 -5 46 -13 103 3 119 33
17 32 11 81 -11 85 -10 2 -18 0 -19 -5z"/>
<path d="M1305 13981 c-8 -13 12 -89 31 -115 8 -11 14 -23 14 -27 0 -3 -71 -9
-157 -11 -134 -5 -162 -3 -186 11 -25 14 -29 14 -37 1 -13 -20 -13 -67 0 -91
12 -22 61 -49 89 -49 26 0 52 38 45 65 -5 22 -3 22 153 28 87 2 166 8 176 12
27 11 20 32 -19 52 -36 18 -54 43 -70 97 -10 31 -28 44 -39 27z m-257 -213 c7
-7 12 -16 12 -20 0 -15 -27 -8 -45 12 -18 19 -17 20 1 20 11 0 25 -5 32 -12z"/>
<path d="M8053 13975 c-5 -13 -17 -15 -76 -9 -81 8 -82 -1 -7 -58 44 -34 64
-68 38 -68 -7 0 -37 11 -66 25 -63 29 -68 30 -75 11 -4 -9 14 -26 51 -49 32
-20 66 -45 76 -56 11 -12 27 -21 38 -21 19 0 25 25 7 35 -6 5 -3 13 10 22 23
16 21 48 -5 91 -12 18 -12 22 -1 22 21 0 50 37 44 55 -8 19 -26 19 -34 0z"/>
<path d="M11215 13910 c-3 -5 5 -25 19 -43 15 -19 26 -44 26 -55 0 -19 -6 -22
-39 -22 -53 0 -87 14 -94 39 -7 27 -37 28 -37 0 0 -51 44 -79 124 -79 88 0
114 62 55 133 -31 38 -43 44 -54 27z"/>
<path d="M4605 13898 c-3 -8 1 -31 10 -51 22 -52 19 -76 -10 -89 -20 -9 -34
-9 -62 1 -34 13 -37 12 -66 -18 -27 -26 -30 -34 -21 -58 10 -28 50 -56 96 -67
41 -9 72 25 63 70 -3 21 -2 34 5 34 20 0 50 41 50 69 0 57 -52 144 -65 109z
m-37 -201 c40 -31 -14 -51 -57 -20 -22 15 -23 17 -6 29 17 13 39 10 63 -9z"/>
<path d="M10867 13893 c-15 -15 -6 -43 13 -43 11 0 20 6 20 14 0 17 -24 38
-33 29z"/>
<path d="M5302 13855 c-56 -25 -63 -84 -11 -100 10 -4 19 -15 19 -25 0 -18 6
-19 68 -14 95 7 112 12 106 28 -3 8 -28 15 -67 19 -63 5 -117 23 -117 39 0 5
14 14 30 19 19 7 30 18 30 30 0 22 -13 23 -58 4z"/>
<path d="M1833 13829 c-24 -24 -3 -38 45 -33 26 3 58 2 71 -3 23 -9 22 -11
-38 -58 -34 -27 -60 -53 -58 -59 6 -17 178 -30 188 -14 12 19 1 28 -34 29 -18
0 -41 4 -52 8 -18 7 -17 9 8 26 33 21 59 66 48 83 -17 28 -155 44 -178 21z"/>
<path d="M9421 13826 c-10 -12 -6 -18 21 -32 47 -23 68 -44 68 -66 0 -25 -25
-33 -63 -21 -46 14 -57 7 -57 -37 0 -53 34 -87 80 -80 18 2 30 19 30 42 0 9
11 28 25 42 46 46 31 100 -39 141 -50 29 -50 29 -65 11z m37 -192 c-10 -10
-28 6 -28 24 0 15 1 15 17 -1 9 -9 14 -19 11 -23z"/>
<path d="M8574 13819 c-3 -6 3 -21 15 -33 21 -20 23 -20 36 -3 7 11 11 25 8
33 -6 17 -49 19 -59 3z"/>
<path d="M8883 13822 c-6 -4 -10 -25 -9 -46 2 -53 -17 -56 -59 -10 -26 28 -38
35 -46 27 -30 -30 56 -111 106 -99 34 9 54 52 43 93 -9 36 -19 45 -35 35z"/>
<path d="M6144 13809 c-37 -11 -46 -27 -37 -70 9 -47 39 -60 124 -57 61 2 74
6 77 21 3 15 -5 17 -65 17 -71 0 -87 5 -95 30 -3 10 6 18 26 25 32 10 43 38
16 42 -8 1 -29 -3 -46 -8z"/>
<path d="M7145 13810 c-3 -5 1 -20 9 -32 19 -27 20 -58 4 -80 -12 -15 -17 -15
-53 -3 -22 8 -48 24 -57 35 -18 23 -58 20 -58 -3 0 -28 142 -93 175 -81 45 17
59 104 24 148 -22 28 -34 32 -44 16z"/>
<path d="M6820 13795 c-8 -10 -3 -19 20 -35 36 -26 56 -16 46 23 -6 27 -47 34
-66 12z"/>
<path d="M12071 13737 c-67 -26 -48 -54 24 -36 36 9 52 9 73 -1 l27 -12 -33
-26 c-39 -33 -40 -44 -4 -71 l27 -21 -45 20 c-80 35 -120 23 -120 -36 0 -25
12 -45 51 -88 28 -31 55 -56 60 -56 26 0 15 31 -26 75 -42 47 -58 85 -34 85 5
0 42 -13 81 -30 71 -30 128 -39 128 -19 0 16 -36 59 -70 84 l-30 22 25 17 c79
52 -35 130 -134 93z"/>
<path d="M7910 13702 c-40 -19 -49 -45 -26 -71 11 -13 13 -20 5 -28 -6 -6 -9
-16 -5 -21 13 -22 247 -35 267 -15 20 20 -1 33 -57 33 -49 0 -55 2 -49 19 10
32 -13 71 -50 86 -43 19 -43 19 -85 -3z m78 -38 c27 -19 28 -34 2 -34 -11 0
-20 -6 -20 -12 0 -7 -12 0 -27 15 -24 23 -26 29 -13 37 21 13 32 12 58 -6z"/>
<path d="M10341 13693 c-10 -20 -14 -45 -12 -86 1 -23 9 -32 46 -48 26 -11 54
-17 65 -14 22 7 50 53 50 83 0 56 -124 110 -149 65z m90 -42 c20 -16 22 -22
12 -44 -11 -23 -15 -25 -40 -16 -23 8 -28 15 -29 44 -1 41 19 47 57 16z"/>
<path d="M11100 13698 c-32 -12 -40 -25 -40 -71 0 -30 8 -46 39 -79 32 -33 44
-39 63 -33 13 3 62 10 111 14 89 8 121 21 100 42 -6 6 -36 9 -69 7 l-59 -3 -2
30 c-5 58 -89 113 -143 93z m84 -68 c25 -30 26 -60 1 -60 -7 0 -18 7 -25 15
-10 12 -16 13 -27 3 -18 -15 -33 4 -33 45 0 23 4 27 29 27 20 0 37 -9 55 -30z"/>
<path d="M8920 13677 c0 -2 7 -19 16 -36 13 -26 14 -38 5 -58 -10 -22 -16 -24
-44 -19 -93 18 -124 19 -130 1 -4 -9 0 -29 8 -44 9 -19 11 -31 4 -38 -16 -16
15 -41 64 -53 23 -6 50 -15 60 -21 10 -5 22 -7 27 -4 20 13 9 35 -27 54 -43
22 -98 69 -90 78 3 3 20 0 38 -6 84 -29 132 -3 132 74 0 48 -15 75 -44 75 -11
0 -19 -2 -19 -3z"/>
<path d="M9365 13559 c-32 -39 -29 -80 10 -119 21 -20 37 -25 96 -28 44 -3 75
0 82 7 20 20 -11 36 -75 38 -46 1 -66 6 -80 21 -25 25 -16 59 19 73 28 11 26
33 -4 37 -13 2 -30 -9 -48 -29z"/>
<path d="M10427 13443 c-22 -4 -28 -9 -25 -26 2 -16 9 -21 23 -18 11 2 53 6
93 8 62 4 73 2 79 -13 4 -12 0 -22 -15 -32 -27 -18 -29 -42 -4 -42 26 0 62 42
62 73 0 41 -33 57 -115 56 -38 -1 -83 -4 -98 -6z"/>
<path d="M10284 13385 c-7 -18 3 -35 22 -35 8 0 14 10 14 25 0 27 -27 35 -36
10z"/>
<path d="M11718 12898 c-7 -13 -19 -23 -27 -23 -23 0 -23 -20 -1 -46 l20 -24
20 25 c11 14 20 31 20 38 0 19 18 14 32 -8 16 -25 34 -25 81 0 41 22 50 16 45
-30 -2 -19 2 -25 17 -25 15 0 21 8 23 34 6 57 -56 104 -88 66 -16 -19 -39 -19
-64 0 -29 22 -63 18 -78 -7z"/>
<path d="M11014 12853 c2 -16 8 -53 11 -84 l6 -57 -33 -6 c-49 -9 -158 -63
-158 -79 0 -15 111 -74 158 -83 l33 -7 -2 -74 c-2 -77 1 -89 24 -80 9 3 14 26
16 68 1 35 4 65 6 67 11 11 210 -64 251 -95 17 -13 46 -28 65 -34 19 -7 41
-18 49 -25 23 -19 105 -23 105 -5 0 8 -13 18 -30 23 -50 16 -73 30 -78 48 -3
10 -18 21 -37 25 -26 6 -209 71 -260 92 -27 12 112 20 238 15 122 -5 124 -5
119 -28 -5 -30 7 -48 27 -41 13 5 16 23 16 90 0 46 -3 86 -6 90 -13 13 -34 -7
-34 -33 0 -26 -3 -28 -52 -34 -29 -4 -78 -4 -108 -1 -30 3 -93 2 -140 -3 -116
-10 -120 -9 -120 38 0 39 0 39 48 44 26 4 97 13 157 21 61 8 125 15 143 15 25
0 35 5 39 19 4 16 24 25 101 47 6 2 12 13 12 24 0 28 -37 26 -91 -5 -33 -18
-52 -23 -76 -19 -25 5 -33 3 -33 -9 0 -19 -52 -30 -252 -52 l-57 -6 -6 45 c-4
24 -4 50 0 56 9 15 -22 60 -41 60 -12 0 -14 -7 -10 -27z m26 -233 l0 -49 -62
22 c-35 12 -62 27 -61 32 1 11 78 44 106 44 14 1 17 -8 17 -49z"/>
<path d="M953 12835 c-3 -10 -1 -26 6 -37 17 -27 5 -54 -35 -78 -59 -37 -68
-75 -34 -160 25 -64 25 -62 -9 -99 -52 -56 -61 -45 -62 77 -1 140 -9 196 -30
200 -15 3 -16 -13 -12 -165 3 -92 10 -173 15 -179 9 -12 60 -5 91 12 24 14 67
75 67 96 0 9 -9 40 -20 67 -14 36 -16 51 -7 54 7 2 62 2 123 -1 129 -6 164 0
164 28 0 21 -42 40 -48 21 -4 -13 -134 -14 -197 -2 l-40 8 28 11 c15 6 35 27
44 46 14 31 15 39 2 72 -16 42 -36 54 -46 29z"/>
<path d="M1711 12803 c-65 -65 -74 -87 -54 -126 9 -18 24 -43 34 -56 26 -32
24 -41 -17 -95 -26 -35 -34 -52 -28 -69 8 -29 82 -127 95 -127 26 0 18 34 -20
81 l-41 51 19 27 c10 14 28 42 39 62 l20 36 -25 43 c-14 23 -21 46 -17 50 5 5
87 6 183 2 139 -6 175 -4 179 6 2 7 1 17 -4 22 -5 4 -94 10 -197 12 l-189 3
40 35 c42 37 66 73 55 84 -13 12 -29 3 -72 -41z"/>
<path d="M11864 12775 c-4 -9 -4 -72 -1 -138 4 -76 2 -138 -5 -165 -9 -36 -8
-46 3 -53 28 -18 39 -10 39 30 l0 38 49 -8 c75 -12 222 -66 237 -88 8 -11 31
-25 52 -31 20 -7 69 -28 109 -47 66 -33 103 -38 103 -14 0 5 -31 24 -69 41
-61 28 -68 34 -55 47 19 19 9 33 -25 33 -15 0 -85 20 -156 43 -72 24 -153 49
-181 56 -51 12 -52 13 -58 58 -3 25 -6 78 -6 118 0 52 -4 76 -15 85 -12 10
-16 9 -21 -5z"/>
<path d="M2498 12704 c-13 -12 6 -45 48 -83 43 -39 44 -42 42 -96 -2 -36 -7
-55 -15 -55 -7 0 -13 -8 -13 -18 0 -10 -14 -28 -30 -41 -17 -12 -42 -40 -56
-62 -22 -36 -25 -48 -19 -93 9 -61 21 -81 41 -65 8 6 14 18 14 25 0 7 17 22
38 33 21 11 55 38 75 60 41 45 47 82 22 118 -15 21 -14 23 10 29 27 7 39 5
162 -21 85 -18 116 -16 107 8 -6 17 -161 51 -239 51 l-60 1 0 58 -1 57 31 0
c34 0 75 24 75 45 0 19 -22 25 -40 10 -8 -7 -36 -16 -62 -19 -44 -7 -48 -6
-75 29 -27 33 -43 42 -55 29z m120 -318 c4 -20 -49 -80 -90 -102 -34 -18 -38
-18 -38 0 0 26 41 84 73 105 36 23 50 22 55 -3z"/>
<path d="M9294 12608 l1 -83 67 0 c50 0 71 -4 84 -17 16 -16 16 -18 -7 -37
-13 -11 -31 -21 -39 -21 -24 -1 -52 -27 -48 -45 1 -10 19 -23 38 -29 19 -6 35
-18 35 -26 0 -12 -14 -15 -67 -15 -49 0 -72 -4 -84 -17 -21 -20 -21 -65 -1
-85 23 -23 39 -7 31 32 l-6 33 67 -5 c65 -6 67 -5 101 28 19 18 34 38 34 45 0
6 7 17 15 24 21 17 45 -4 45 -40 0 -14 3 -30 7 -33 12 -13 33 15 33 44 0 19 5
29 15 29 11 0 15 -12 15 -49 0 -36 4 -51 16 -55 23 -9 23 -8 25 55 2 53 3 55
25 51 26 -5 28 -10 15 -65 -8 -32 -6 -39 9 -47 23 -12 26 -8 35 58 6 46 10 52
30 52 22 0 23 -3 22 -62 -2 -57 0 -63 18 -63 17 0 20 7 22 45 1 25 2 53 2 64
1 16 7 18 36 13 19 -3 49 -1 67 5 18 6 39 13 47 15 11 3 11 6 1 18 -13 16 -65
21 -74 7 -3 -4 -21 -6 -41 -4 -47 6 -58 28 -45 88 9 38 8 51 -5 70 -8 13 -20
24 -25 24 -15 0 -22 -19 -12 -36 6 -10 5 -30 -1 -51 -8 -25 -8 -43 0 -64 11
-28 10 -29 -18 -29 -16 0 -29 6 -30 13 0 6 -3 33 -5 58 -4 34 -1 49 10 59 19
15 21 40 3 40 -8 0 -24 -11 -37 -25 -20 -22 -22 -31 -17 -85 5 -57 -2 -75 -20
-47 -4 6 -8 38 -8 69 -1 65 -12 85 -37 66 -14 -11 -15 -22 -8 -67 10 -57 7
-71 -14 -71 -16 0 -28 64 -20 98 8 28 -13 57 -31 42 -9 -7 -12 -32 -10 -75 2
-58 1 -65 -16 -65 -10 0 -22 0 -26 0 -3 0 -8 14 -10 32 -2 19 -16 46 -36 66
-30 32 -35 34 -84 28 l-53 -6 6 30 c10 46 -4 100 -25 100 -16 0 -18 -9 -17
-82z"/>
<path d="M12310 12664 c-46 -10 -104 -13 -200 -9 -150 6 -193 -1 -198 -32 -4
-27 25 -38 45 -17 14 13 35 15 152 9 109 -5 152 -3 216 10 93 20 96 21 88 40
-6 17 -16 17 -103 -1z"/>
<path d="M5140 12583 c-23 -9 -100 -95 -94 -105 11 -17 35 -7 73 32 45 46 72
50 99 15 19 -24 19 -28 5 -58 -26 -53 -43 -66 -95 -73 -43 -6 -49 -9 -46 -28
2 -16 9 -20 28 -18 42 5 109 -27 125 -59 14 -26 14 -33 0 -65 -14 -33 -17 -35
-47 -29 -41 9 -67 31 -84 72 -10 22 -19 31 -29 27 -20 -8 -19 -30 5 -69 25
-40 56 -61 102 -70 49 -9 73 6 94 60 18 49 18 48 -23 125 -2 3 34 3 79 -2 46
-4 98 -8 117 -10 36 -3 47 8 32 31 -6 10 -38 15 -112 18 -143 7 -142 6 -113
67 27 55 25 72 -13 116 -24 30 -63 38 -103 23z"/>
<path d="M7660 12564 c0 -9 12 -30 26 -48 23 -26 24 -32 10 -34 -9 -2 -16 -10
-16 -17 0 -20 31 -35 51 -24 20 10 48 -14 29 -26 -15 -9 -13 -45 3 -45 7 0 18
5 23 10 7 7 18 4 34 -10 17 -15 26 -17 36 -9 14 11 8 39 -8 39 -5 0 -8 10 -6
23 2 16 -2 22 -17 22 -28 0 -48 27 -29 38 8 4 14 17 14 29 0 20 -9 21 -51 4
-11 -5 -24 4 -43 29 -28 37 -56 46 -56 19z"/>
<path d="M4246 12561 c-10 -15 2 -31 23 -31 44 0 77 -83 46 -114 -34 -33 -64
-48 -85 -41 -18 6 -21 12 -16 39 7 39 0 49 -26 35 -18 -10 -19 -19 -14 -107 3
-53 5 -100 6 -104 0 -5 6 -8 14 -8 17 0 26 22 26 61 0 17 4 28 10 24 5 -3 7
-12 4 -20 -7 -17 26 -35 66 -35 39 0 48 -23 25 -64 -25 -41 -34 -47 -72 -40
-28 5 -33 3 -33 -14 0 -24 47 -36 84 -22 33 12 76 78 76 116 0 39 -19 56 -73
65 -33 6 198 3 333 -5 19 -1 26 5 28 22 3 19 -1 22 -30 23 -18 0 -64 2 -103 3
-38 1 -106 3 -149 4 l-79 2 25 23 c46 43 48 125 5 166 -27 25 -82 38 -91 22z"/>
<path d="M6681 12526 c-14 -17 -10 -20 85 -66 50 -25 71 -41 73 -55 1 -11 3
-33 4 -50 l2 -30 -70 0 c-63 0 -70 -2 -70 -20 0 -17 7 -20 50 -21 101 -3 95
-1 95 -38 0 -37 -3 -39 -70 -50 -36 -7 -80 -36 -80 -54 0 -26 66 -29 73 -3 3
14 18 21 56 26 28 4 54 13 59 20 4 8 4 60 1 117 -4 57 -7 124 -8 151 -1 39 -4
47 -20 47 -10 0 -21 -7 -25 -15 -4 -12 -17 -9 -69 20 -73 40 -71 40 -86 21z"/>
<path d="M12423 12509 c-13 -5 -23 -15 -23 -23 0 -22 27 -27 51 -8 17 15 19
20 8 29 -9 7 -22 7 -36 2z"/>
<path d="M5897 12495 c-25 -24 -5 -50 26 -34 22 13 91 6 131 -12 17 -8 26 -20
26 -35 0 -22 -4 -23 -72 -26 -65 -3 -73 -5 -73 -23 0 -19 5 -20 78 -16 88 4
97 -6 49 -53 -23 -22 -39 -27 -83 -29 -40 -1 -54 -6 -54 -17 0 -19 56 -30 103
-19 38 8 102 70 102 98 0 11 24 13 127 10 91 -3 127 -1 130 8 8 24 -40 35
-147 34 l-108 -2 -13 43 c-18 54 -59 79 -143 85 -50 4 -65 2 -79 -12z"/>
<path d="M3312 12484 c6 -34 50 -53 132 -58 72 -4 81 -7 102 -33 24 -29 39
-71 29 -81 -7 -8 -180 21 -174 29 8 11 -22 38 -37 32 -15 -5 -19 -68 -8 -110
8 -30 32 -29 44 2 11 29 11 29 99 13 78 -14 73 -11 66 -30 -4 -9 -18 -15 -32
-15 -14 0 -28 -5 -32 -10 -3 -5 -14 -12 -24 -16 -9 -4 -22 -18 -27 -32 -7 -18
-17 -25 -38 -25 -40 0 -72 -26 -72 -58 0 -36 14 -56 34 -49 12 5 14 14 10 37
-6 28 -5 30 25 30 17 0 31 -5 31 -11 0 -17 82 0 107 23 12 11 32 49 44 84 l23
64 63 0 c48 0 65 4 70 15 9 25 -4 30 -67 27 -58 -3 -58 -3 -65 29 -8 35 -49
100 -72 113 -9 4 -50 11 -92 13 -50 4 -79 10 -84 19 -12 21 -59 18 -55 -2z
m213 -324 c-22 -24 -47 -27 -38 -4 6 15 44 36 52 28 2 -2 -4 -13 -14 -24z"/>
<path d="M10280 12439 c0 -7 11 -32 25 -55 26 -44 31 -71 27 -157 -2 -44 -5
-50 -32 -60 -18 -7 -30 -19 -30 -29 0 -22 12 -22 69 -2 48 16 71 14 140 -18
82 -37 145 -31 107 11 -9 10 -16 23 -16 29 0 6 -20 34 -45 62 -47 52 -49 58
-39 84 12 31 39 16 60 -33 12 -27 34 -57 48 -66 24 -16 35 -16 99 -6 40 6 102
16 139 21 77 10 103 22 111 49 5 22 -2 35 -25 44 -22 8 -42 -15 -27 -30 8 -8
-2 -13 -37 -17 -27 -4 -69 -11 -94 -16 -77 -16 -134 -21 -147 -12 -7 4 -23 33
-37 64 -18 41 -31 57 -50 62 -46 11 -85 -28 -86 -86 0 -10 21 -43 46 -73 25
-31 43 -60 39 -63 -4 -4 -13 2 -20 12 -8 10 -22 19 -32 20 -47 5 -93 19 -94
30 -1 6 -2 40 -3 76 -1 54 -6 74 -32 115 -29 47 -64 71 -64 44z"/>
<path d="M7889 12395 c-1 -8 -2 -21 -3 -27 -1 -7 2 -26 7 -43 5 -16 11 -50 14
-75 3 -25 9 -49 13 -54 13 -13 30 3 30 28 0 21 3 22 64 18 76 -5 139 12 134
36 -3 11 -11 15 -23 13 -34 -8 -173 -6 -181 2 -4 4 -9 32 -12 62 -4 46 -8 55
-23 55 -11 0 -20 -7 -20 -15z"/>
<path d="M7584 12366 c-7 -38 -24 -49 -24 -16 0 28 -28 25 -36 -4 -11 -46 -2
-61 36 -58 26 2 39 -3 51 -19 17 -23 39 -19 39 7 0 21 17 17 23 -6 3 -11 12
-20 21 -20 9 0 16 8 16 20 0 13 7 20 19 20 24 0 33 13 25 35 -4 10 -14 15 -25
12 -13 -3 -19 1 -21 17 -2 13 -10 21 -23 21 -15 0 -19 -6 -17 -22 3 -19 -2
-23 -22 -23 -23 0 -26 4 -24 32 2 24 -2 33 -14 36 -12 2 -19 -6 -24 -32z"/>
<path d="M8450 12367 c0 -8 9 -22 21 -33 l20 -18 -20 -8 c-12 -4 -21 -14 -21
-22 0 -17 38 -28 60 -16 13 7 24 2 44 -18 14 -16 26 -35 26 -43 0 -8 5 -20 10
-25 7 -7 1 -19 -19 -38 l-28 -27 -22 26 c-12 17 -27 25 -36 21 -21 -8 -19 -39
5 -54 23 -14 26 -32 5 -32 -19 0 -31 -48 -16 -63 9 -9 18 -4 36 20 25 31 26
31 55 16 25 -12 34 -12 45 -3 18 15 3 40 -23 40 -12 0 -9 7 10 28 14 15 30 35
35 46 9 16 25 19 116 21 114 3 127 6 127 35 0 26 -18 34 -37 18 -11 -9 -46
-13 -109 -13 l-93 0 -40 39 c-39 38 -40 40 -21 53 21 15 27 43 10 43 -6 0 -24
-7 -40 -15 -28 -15 -30 -14 -46 10 -17 26 -54 34 -54 12z"/>
<path d="M6973 12320 c-28 -11 -29 -22 -5 -43 12 -11 22 -13 32 -7 9 6 61 7
123 3 104 -6 107 -5 107 15 0 25 -35 48 -46 31 -6 -10 -141 -5 -178 6 -6 2
-21 0 -33 -5z"/>
<path d="M7775 12239 c-6 -19 -8 -19 -25 -4 -20 18 -40 13 -40 -10 0 -7 6 -15
13 -18 10 -4 10 -7 0 -18 -10 -9 -13 -10 -13 -1 0 7 -9 12 -21 12 -15 0 -20
-5 -17 -22 2 -16 -4 -26 -19 -33 -26 -11 -31 -43 -8 -51 8 -3 22 1 31 10 12
13 19 14 30 5 17 -14 34 -3 34 21 0 10 5 22 10 25 6 3 10 1 10 -4 0 -6 9 -11
21 -11 18 0 20 4 15 25 -5 18 -2 25 8 25 21 0 25 22 8 48 -18 27 -29 28 -37 1z"/>
<path d="M2031 11981 c-19 -12 -6 -41 18 -41 28 0 34 15 13 33 -11 10 -23 13
-31 8z"/>
<path d="M9698 11949 c-24 -13 -23 -39 1 -39 20 0 37 28 24 41 -4 4 -16 3 -25
-2z"/>
<path d="M1206 11844 c-4 -10 -2 -22 3 -27 14 -14 43 0 39 20 -4 24 -34 28
-42 7z"/>
<path d="M2015 11839 c-4 -5 -2 -23 5 -39 11 -27 10 -31 -15 -53 l-28 -23 -76
43 c-85 48 -124 54 -142 22 -16 -31 -6 -101 21 -138 43 -57 68 -31 30 31 -22
36 -27 88 -8 88 27 0 138 -73 182 -120 41 -43 47 -55 41 -79 -3 -17 -2 -32 4
-36 17 -10 13 -43 -9 -65 -11 -11 -20 -24 -20 -30 0 -5 -26 6 -58 25 -32 19
-78 38 -103 41 -42 6 -46 4 -57 -20 -9 -20 -9 -33 -1 -49 17 -32 71 -87 86
-87 23 0 14 36 -17 63 -28 26 -40 57 -21 57 46 0 159 -72 181 -116 9 -17 25
-43 37 -59 18 -25 23 -27 36 -16 15 11 14 16 -7 49 -35 56 -37 87 -9 137 23
42 23 45 8 74 -9 18 -11 31 -5 31 19 0 10 29 -26 75 l-36 47 36 37 c43 44 44
57 11 94 -29 30 -31 31 -40 16z"/>
<path d="M2947 11831 c-5 -22 8 -30 36 -23 24 6 17 36 -9 40 -15 2 -23 -3 -27
-17z"/>
<path d="M3817 11834 c-14 -15 -6 -34 14 -34 14 0 19 5 17 17 -3 18 -20 27
-31 17z"/>
<path d="M7214 11816 c-8 -21 13 -46 32 -39 20 8 13 47 -9 51 -9 2 -20 -4 -23
-12z"/>
<path d="M9540 11794 c-25 -14 -48 -31 -52 -37 -27 -43 -26 -44 -66 2 -29 33
-43 43 -57 38 -15 -7 -17 -16 -12 -73 5 -68 16 -92 37 -79 8 5 10 21 6 49 l-7
41 39 -44 c41 -47 72 -52 72 -11 0 33 16 56 56 79 38 23 65 21 97 -7 21 -18
22 -71 2 -98 -32 -43 -3 -62 35 -22 36 39 23 133 -22 161 -44 29 -80 29 -128
1z"/>
<path d="M8880 11780 c-12 -23 -6 -40 15 -40 16 0 29 35 20 50 -10 16 -23 12
-35 -10z"/>
<path d="M10647 11794 c-10 -10 12 -44 29 -44 20 0 30 30 13 41 -17 10 -33 11
-42 3z"/>
<path d="M8003 11774 c-8 -21 13 -42 28 -27 13 13 5 43 -11 43 -6 0 -13 -7
-17 -16z"/>
<path d="M930 11731 c0 -21 5 -31 15 -31 8 0 15 5 15 11 0 8 37 10 130 7 99
-4 133 -2 141 8 6 7 8 17 5 22 -3 5 -73 10 -156 11 l-150 2 0 -30z"/>
<path d="M11390 11736 c0 -8 16 -28 36 -46 28 -24 39 -29 45 -19 8 13 1 29
-24 62 -17 20 -57 23 -57 3z"/>
<path d="M5492 11727 c-9 -10 -8 -18 2 -32 18 -25 48 -13 44 17 -4 27 -30 35
-46 15z"/>
<path d="M6306 11732 c-9 -14 12 -35 28 -29 23 9 20 37 -3 37 -11 0 -22 -4
-25 -8z"/>
<path d="M12223 11724 c-10 -27 14 -40 37 -19 11 10 17 22 14 26 -9 15 -44 10
-51 -7z"/>
<path d="M2673 11714 c-9 -23 5 -176 17 -188 7 -7 15 -5 25 5 13 12 14 21 5
43 -5 15 -10 39 -10 54 0 26 2 25 41 -20 55 -65 73 -64 64 2 -8 61 4 83 44 74
33 -8 71 -52 71 -82 0 -13 -14 -37 -30 -54 -17 -17 -29 -35 -27 -41 7 -23 29
-17 62 16 28 28 35 43 35 73 0 48 -42 112 -79 120 -14 3 -32 8 -39 10 -30 9
-60 -8 -73 -43 l-14 -35 -30 41 c-32 43 -52 51 -62 25z"/>
<path d="M4654 11716 c-9 -24 3 -47 21 -40 18 7 16 45 -2 52 -7 2 -16 -3 -19
-12z"/>
<path d="M8543 11694 c-9 -25 8 -46 63 -77 48 -27 49 -30 46 -68 -6 -54 33
-113 78 -123 47 -9 109 -7 129 3 13 7 28 3 59 -18 66 -43 159 -84 176 -78 15
6 15 9 1 38 -13 24 -21 30 -37 26 -12 -4 -41 4 -67 18 -82 42 -85 46 -82 108
2 49 -1 58 -29 91 -43 49 -66 52 -128 21 l-52 -26 -55 31 c-30 17 -60 40 -65
51 -13 23 -29 25 -37 3z m301 -99 c18 -17 26 -34 26 -59 l0 -35 -65 41 -66 42
33 17 c44 22 41 23 72 -6z m-68 -81 c30 -20 57 -40 60 -45 9 -15 -90 -10 -113
6 -19 13 -23 37 -14 73 2 6 17 -1 67 -34z"/>
<path d="M6004 11675 c-4 -8 -4 -28 -1 -43 3 -15 11 -60 18 -100 10 -57 16
-72 28 -70 13 3 15 16 14 58 -2 30 -7 68 -13 84 -6 16 -8 31 -7 33 2 2 35 -10
73 -26 68 -29 69 -30 80 -78 13 -62 39 -67 38 -7 l-1 42 64 -18 c56 -15 66
-16 78 -3 19 18 19 28 -1 47 -18 19 -51 21 -56 5 -3 -9 -15 -9 -43 -2 -38 8
-40 11 -40 48 0 49 -22 58 -38 16 -6 -17 -14 -31 -17 -31 -3 0 -38 14 -79 30
-84 35 -90 35 -97 15z"/>
<path d="M3654 11665 c-7 -17 -74 -21 -102 -6 -26 13 -62 -5 -62 -31 0 -16 12
-30 41 -46 22 -13 57 -38 77 -56 80 -71 109 -68 98 13 -4 28 -9 58 -12 66 -5
11 1 15 19 15 50 0 127 21 127 35 0 23 -16 26 -70 13 -40 -9 -56 -9 -71 0 -25
16 -38 15 -45 -3z m0 -67 c3 -7 7 -25 10 -41 l6 -27 -47 36 c-27 20 -50 38
-52 40 -2 2 15 4 38 4 25 0 43 -5 45 -12z"/>
<path d="M7104 11666 c-12 -6 -28 -17 -36 -24 -8 -7 -29 -9 -50 -6 -19 4 -45
1 -56 -5 -14 -7 -23 -8 -27 -1 -14 23 -33 8 -38 -31 -6 -48 3 -67 47 -97 48
-33 115 -25 139 15 8 12 12 12 27 -2 11 -10 39 -20 63 -22 36 -4 49 -1 66 16
42 42 12 129 -54 157 -40 16 -52 16 -81 0z m87 -56 c40 -39 37 -74 -6 -78 -37
-3 -82 29 -69 49 5 8 9 19 10 24 0 6 2 16 2 23 3 21 32 13 63 -18z m-159 -27
c26 -24 23 -51 -8 -59 -36 -9 -71 9 -69 36 3 39 45 52 77 23z"/>
<path d="M7683 11658 c-12 -19 -14 -97 -4 -116 11 -21 85 -62 112 -62 26 0 42
36 34 76 l-6 35 79 -7 c86 -7 122 3 122 36 0 23 -9 25 -44 9 -31 -14 -210 6
-240 27 -25 17 -42 18 -53 2z m97 -98 c7 -17 11 -33 8 -35 -2 -3 -20 4 -39 14
-36 19 -49 48 -28 62 19 11 45 -6 59 -41z"/>
<path d="M1140 11600 c-11 -11 -20 -27 -20 -35 0 -18 21 -20 37 -4 7 7 19 9
27 6 19 -8 21 -65 3 -89 -12 -15 -19 -12 -81 28 -107 68 -176 69 -176 2 0 -35
35 -98 55 -98 22 0 25 27 4 51 -24 28 -25 59 -1 59 10 0 46 -17 80 -37 58 -36
76 -50 132 -108 28 -29 48 -32 57 -9 3 9 -5 26 -21 43 -25 26 -26 29 -11 57
26 49 20 98 -16 128 -37 31 -43 32 -69 6z"/>
<path d="M4488 11593 c-43 -47 -58 -76 -58 -110 0 -26 -4 -33 -19 -33 -14 0
-20 10 -24 43 -3 24 -4 52 -1 63 7 26 -20 52 -32 32 -12 -18 -7 -149 5 -161
13 -13 107 -26 122 -16 8 5 8 16 -2 43 -12 32 -11 41 5 70 26 49 58 64 91 42
30 -20 34 -65 9 -114 -16 -33 -12 -52 11 -52 25 0 45 43 45 98 0 64 -11 87
-50 107 -43 22 -73 18 -102 -12z"/>
<path d="M10380 11590 c0 -36 53 -93 135 -145 57 -37 86 -42 147 -25 95 27
102 118 15 178 -41 27 -68 28 -92 2 -25 -27 -12 -85 27 -122 l30 -28 -31 0
c-55 0 -191 104 -191 146 0 17 -6 24 -20 24 -16 0 -20 -7 -20 -30z m281 -31
c28 -20 40 -61 21 -73 -23 -14 -81 61 -66 85 8 13 12 12 45 -12z"/>
<path d="M5190 11566 c0 -27 9 -46 37 -77 42 -46 84 -70 165 -94 99 -28 166 7
160 87 -4 50 -19 68 -57 68 -60 0 -96 -70 -57 -113 16 -19 16 -19 -8 -12 -127
39 -187 80 -199 135 -10 50 -41 54 -41 6z m320 -78 c0 -38 -13 -50 -34 -35
-13 10 -16 20 -12 35 10 30 46 30 46 0z"/>
<path d="M12192 11588 c-20 -20 -15 -41 9 -35 45 12 98 -26 99 -70 0 -21 -3
-22 -49 -16 -43 5 -52 3 -74 -19 l-25 -25 -48 38 c-62 49 -145 89 -183 89 -40
0 -75 -34 -67 -63 3 -12 6 -28 6 -35 0 -20 81 -102 101 -102 29 0 23 20 -20
65 -68 70 -61 111 14 88 30 -10 77 -42 322 -219 54 -39 83 -46 83 -20 0 6 -26
29 -56 51 -77 55 -104 81 -104 101 0 14 7 16 49 11 63 -7 91 10 91 58 0 44
-40 91 -88 105 -46 12 -46 12 -60 -2z"/>
<path d="M11390 11570 c-14 -26 -87 -27 -235 -4 -58 9 -111 14 -120 11 -23
-10 -18 -26 13 -38 47 -18 82 -59 82 -96 0 -38 -8 -41 -41 -14 -18 14 -24 30
-24 58 0 47 -25 53 -38 8 -12 -41 5 -81 45 -105 39 -23 71 -26 87 -6 17 20 16
78 -1 114 l-16 31 31 -7 c18 -4 80 -7 138 -7 91 0 110 3 128 19 16 14 18 23
10 37 -13 25 -46 24 -59 -1z"/>
<path d="M9354 11476 c-3 -8 -1 -23 5 -34 7 -14 8 -37 1 -73 -6 -28 -10 -69
-10 -91 0 -32 3 -39 18 -36 13 3 19 19 26 78 8 73 9 74 26 52 23 -29 44 -28
58 2 6 13 31 33 57 46 49 24 73 20 122 -18 20 -16 21 -20 8 -55 -7 -22 -23
-49 -34 -61 -19 -20 -20 -25 -7 -35 34 -28 115 116 89 157 -5 9 -35 30 -65 46
-51 28 -57 29 -97 18 -23 -7 -56 -26 -74 -41 l-32 -29 -34 44 c-35 46 -48 53
-57 30z"/>
<path d="M7183 11453 c-17 -6 -5 -32 34 -76 36 -40 36 -57 0 -57 -12 -1 -39
-7 -59 -14 -33 -12 -39 -11 -50 2 -20 23 -173 92 -206 92 -39 0 -82 -35 -82
-66 0 -14 11 -35 26 -48 74 -66 80 -69 90 -32 8 32 -2 46 -30 46 -33 0 -53 25
-36 45 19 23 47 18 137 -26 69 -34 93 -52 131 -99 26 -32 52 -59 59 -59 31 -2
22 36 -20 86 l-19 21 56 12 c66 13 84 36 67 79 -15 34 -82 99 -98 94z"/>
<path d="M2923 11434 c-3 -9 6 -28 26 -48 39 -40 39 -50 1 -66 -25 -11 -34
-10 -53 4 -131 95 -183 105 -216 42 -13 -22 -12 -31 4 -66 20 -44 47 -65 72
-56 14 6 13 9 -4 29 -37 41 -47 67 -30 84 13 14 20 13 63 -8 47 -23 91 -62
163 -142 18 -21 39 -36 45 -34 21 7 17 34 -9 65 -14 16 -25 32 -25 36 0 3 14
12 30 21 23 12 30 22 30 44 0 16 -7 34 -16 42 -8 7 -22 25 -30 41 -16 31 -41
37 -51 12z"/>
<path d="M3720 11425 c0 -9 11 -20 23 -26 25 -11 57 -57 57 -81 0 -7 -13 -20
-29 -30 -28 -15 -30 -15 -48 4 -25 28 -77 59 -145 87 -50 20 -60 21 -85 9 -19
-9 -29 -22 -31 -42 -5 -40 26 -106 50 -106 15 0 18 8 18 50 0 41 -3 50 -17 50
-14 0 -15 2 -4 9 8 5 37 -1 77 -17 52 -21 78 -40 140 -104 61 -64 78 -77 90
-67 19 16 18 22 -12 54 l-26 28 31 24 c35 27 40 58 16 103 -28 54 -105 94
-105 55z"/>
<path d="M7970 11425 c0 -9 16 -29 35 -46 42 -37 43 -52 10 -81 -14 -12 -25
-28 -25 -35 0 -18 -19 -8 -103 60 -77 62 -143 87 -183 69 -29 -14 -38 -33 -30
-65 8 -33 51 -77 76 -77 23 0 27 25 6 33 -8 3 -23 18 -32 32 -24 37 -7 51 43
35 50 -17 199 -134 207 -162 8 -29 52 -62 72 -54 17 6 11 43 -10 61 -13 11 -9
65 4 65 13 0 40 55 40 81 0 13 -17 38 -40 61 -43 40 -70 49 -70 23z"/>
<path d="M6288 11399 c-29 -16 -22 -40 10 -37 35 2 48 -6 67 -42 15 -28 14
-30 -7 -34 -13 -2 -41 -8 -63 -13 -34 -7 -46 -5 -78 14 -38 24 -134 53 -174
53 -34 0 -73 -21 -73 -40 0 -30 71 -139 86 -133 20 8 17 28 -11 73 -36 57 -33
64 22 56 69 -9 155 -53 262 -134 85 -64 122 -79 120 -48 0 6 -29 36 -65 66
l-66 55 40 8 c59 12 68 28 48 82 -11 29 -29 51 -50 65 -38 23 -44 24 -68 9z"/>
<path d="M8779 11310 c-21 -22 -40 -36 -43 -31 -4 5 -27 21 -52 36 -66 39 -75
27 -70 -89 2 -73 6 -92 19 -94 20 -4 30 43 22 103 -4 25 -3 45 2 45 13 0 56
-31 71 -52 19 -26 26 -23 58 27 33 53 52 61 94 40 26 -13 30 -21 30 -56 0 -30
-6 -46 -25 -63 -24 -23 -35 -66 -16 -66 41 0 81 65 81 133 0 48 -22 77 -73 96
-45 17 -58 13 -98 -29z"/>
<path d="M4630 11326 c0 -7 11 -21 25 -30 28 -18 33 -52 12 -80 -12 -17 -16
-16 -72 13 -90 45 -152 56 -203 35 -46 -18 -52 -36 -27 -84 16 -31 51 -60 72
-60 24 0 15 50 -11 59 -35 14 -41 40 -11 51 18 7 42 5 80 -5 62 -16 55 -12
148 -73 66 -42 103 -49 91 -17 -4 9 -15 20 -25 26 -18 9 -18 12 -4 39 24 46
19 95 -11 119 -30 24 -64 28 -64 7z"/>
<path d="M5494 11305 c-3 -8 2 -22 11 -31 16 -17 35 -56 35 -74 0 -5 -18 -15
-40 -21 -40 -12 -41 -12 -78 24 -25 24 -58 43 -102 56 -62 20 -66 20 -88 3
-13 -9 -31 -29 -39 -43 -15 -25 -15 -28 13 -63 33 -41 49 -45 57 -15 8 30 -2
49 -24 49 -17 0 -18 3 -9 20 22 41 115 15 168 -47 20 -24 67 -76 105 -115 54
-55 70 -68 81 -59 21 18 8 47 -42 96 -25 25 -43 46 -41 48 2 2 18 9 36 16 18
7 35 21 38 32 9 26 -11 91 -35 117 -24 26 -38 28 -46 7z"/>
<path d="M11074 11185 c10 -62 -1 -112 -26 -118 -16 -5 -19 -13 -16 -49 2 -31
8 -44 20 -46 23 -4 44 39 59 121 7 37 16 67 19 67 4 0 28 -18 53 -40 25 -22
50 -40 56 -40 6 0 17 15 25 34 18 44 48 60 100 53 29 -4 49 -15 69 -37 34 -38
34 -52 1 -96 -21 -28 -29 -32 -41 -23 -10 9 -17 9 -25 1 -14 -14 4 -62 23 -62
19 0 97 84 104 113 10 38 -11 83 -53 115 -30 23 -45 27 -100 27 -61 0 -66 -2
-89 -32 l-25 -32 -66 45 c-85 57 -96 57 -88 -1z"/>
<path d="M10416 11197 c-8 -12 -20 -43 -26 -69 -11 -41 -15 -46 -37 -45 -36 3
-38 -15 -7 -47 25 -24 29 -25 44 -11 10 9 23 37 30 63 18 66 20 67 41 33 24
-39 52 -40 79 -2 28 41 52 46 100 21 61 -31 83 -111 32 -118 -18 -3 -23 -9
-20 -30 4 -37 23 -38 58 -4 34 34 39 72 16 126 -10 25 -28 40 -70 61 -64 31
-93 29 -133 -11 -24 -24 -26 -24 -39 -7 -7 10 -16 25 -19 35 -9 27 -34 29 -49
5z"/>
<path d="M12107 11141 c-11 -30 -12 -31 -78 -31 -53 0 -76 5 -110 25 -24 14
-50 25 -56 25 -21 0 -15 -41 6 -47 10 -2 24 -16 30 -29 7 -17 19 -24 38 -24
30 -1 60 -21 172 -114 44 -36 77 -56 86 -52 23 8 18 66 -10 111 -13 22 -25 44
-25 49 0 5 34 6 78 2 59 -5 81 -4 97 7 16 13 17 17 6 31 -15 18 -37 21 -43 7
-2 -6 -35 -7 -81 -4 -76 6 -79 7 -74 29 2 13 -2 29 -10 35 -11 10 -16 6 -26
-20z m-2 -79 c6 -4 23 -32 39 -62 l30 -55 -43 35 c-23 19 -58 47 -78 63 l-36
27 39 0 c21 0 44 -4 49 -8z"/>
<path d="M5510 9754 c0 -8 14 -27 30 -41 69 -58 11 -91 -75 -42 -56 31 -84 36
-103 17 -27 -27 -7 -78 31 -78 15 0 18 5 15 24 l-5 25 38 -19 c21 -11 44 -32
51 -47 7 -15 25 -34 41 -43 24 -13 29 -13 37 0 6 10 4 22 -6 37 -13 21 -13 23
11 29 37 9 48 37 31 77 -21 52 -96 99 -96 61z"/>
<path d="M1068 9670 c-38 -29 -41 -76 -9 -112 31 -34 87 -46 116 -25 30 23 27
113 -4 138 -30 25 -72 24 -103 -1z m80 -32 c10 -13 9 -65 -2 -76 -12 -12 -54
18 -58 42 -8 40 35 64 60 34z"/>
<path d="M7023 9605 c-20 -28 -81 -54 -125 -55 -56 0 -29 -29 75 -81 56 -28
117 -62 135 -76 31 -23 62 -25 62 -4 0 6 -21 25 -47 43 -46 32 -48 35 -50 85
l-2 52 37 3 c26 2 38 8 40 21 3 14 -4 17 -37 17 -22 0 -43 5 -46 10 -10 16
-22 12 -42 -15z m17 -98 c0 -14 -5 -17 -22 -11 -49 14 -53 21 -22 37 31 16 44
9 44 -26z"/>
<path d="M1892 9588 c-16 -21 -35 -95 -28 -113 3 -10 12 -15 21 -11 8 3 15 1
15 -4 0 -13 39 -37 71 -45 21 -5 33 0 58 24 41 40 40 71 -5 121 -32 35 -42 40
-79 40 -23 0 -47 -6 -53 -12z m103 -53 c30 -29 31 -46 6 -69 -22 -20 -41 -14
-70 25 -44 59 12 97 64 44z"/>
<path d="M2816 9575 c-3 -9 4 -21 20 -32 25 -16 64 -80 64 -106 0 -7 -5 -18
-12 -25 -9 -9 -16 -2 -29 28 -23 51 -63 64 -91 30 -25 -31 -23 -47 11 -81 23
-23 38 -29 71 -29 47 0 90 34 90 72 -1 54 -70 158 -105 158 -7 0 -15 -7 -19
-15z m4 -144 c16 -30 12 -36 -10 -16 -21 19 -26 35 -10 35 5 0 14 -9 20 -19z"/>
<path d="M9397 9552 c-32 -35 -50 -129 -29 -157 11 -16 92 -33 120 -26 15 4
37 23 50 42 40 59 10 124 -67 148 -50 15 -55 14 -74 -7z m68 -36 c42 -18 58
-46 45 -80 -8 -21 -16 -26 -44 -26 -50 0 -69 33 -53 93 9 32 8 31 52 13z"/>
<path d="M7965 9518 c-22 -12 -52 -20 -67 -20 -15 0 -32 -6 -38 -13 -6 -8 -35
-19 -63 -25 -108 -22 -102 -45 27 -101 49 -21 98 -47 110 -58 24 -23 51 -27
62 -10 7 12 -37 55 -67 64 -11 4 -19 16 -19 28 0 12 -3 31 -6 43 -5 18 4 25
68 50 46 19 74 35 76 47 5 23 -31 21 -83 -5z m-98 -103 c9 -24 -2 -28 -42 -14
-29 11 -33 15 -18 20 30 12 53 10 60 -6z"/>
<path d="M4470 9515 c-34 -18 -54 -57 -46 -89 7 -29 79 -86 107 -86 22 0 66
45 74 77 8 32 -19 79 -55 98 -35 18 -47 18 -80 0z m78 -50 c21 -26 19 -56 -3
-75 -20 -17 -58 6 -52 31 3 11 -2 23 -11 29 -16 9 -15 11 2 25 28 21 42 19 64
-10z"/>
<path d="M6140 9511 c0 -11 9 -22 19 -26 21 -6 38 -42 26 -53 -3 -4 -33 -6
-65 -5 -72 1 -83 -9 -65 -62 26 -75 88 -105 136 -66 22 18 23 22 12 52 -11 29
-10 35 7 54 30 31 25 69 -11 99 -36 31 -59 33 -59 7z m17 -158 c14 -20 14 -23
-1 -29 -19 -7 -69 33 -60 48 10 16 46 4 61 -19z"/>
<path d="M5348 9499 c-22 -12 -12 -42 13 -36 21 6 54 -27 44 -43 -5 -7 -20 -9
-40 -6 -26 5 -39 2 -61 -18 -25 -21 -27 -27 -19 -52 22 -60 131 -99 155 -55
13 26 13 64 -1 78 -8 8 -8 17 0 31 17 32 13 54 -16 84 -28 29 -47 34 -75 17z
m60 -166 c2 -16 -2 -23 -13 -23 -29 0 -74 30 -75 51 0 3 19 3 43 0 34 -5 43
-10 45 -28z"/>
<path d="M3616 9459 c-14 -17 -26 -37 -26 -44 0 -21 11 -45 21 -45 4 0 25 -11
45 -25 25 -17 44 -23 58 -19 65 20 75 81 23 132 -44 43 -86 43 -121 1z m94
-29 c39 -39 16 -79 -32 -54 -24 12 -27 18 -18 30 10 11 9 15 -4 20 -9 3 -13
10 -10 15 9 16 43 10 64 -11z"/>
<path d="M8688 9435 c-15 -9 -34 -32 -43 -53 -9 -20 -21 -45 -26 -54 -13 -26
-11 -38 7 -38 9 0 25 -11 36 -25 40 -51 129 -53 174 -4 28 31 15 112 -27 155
-37 38 -74 44 -121 19z m100 -55 c49 -63 3 -141 -63 -109 -53 25 -61 73 -22
127 17 22 61 13 85 -18z"/>
<path d="M1060 9401 c-41 -41 -41 -92 1 -149 31 -42 43 -50 53 -33 3 4 48 11
100 14 97 5 136 17 136 42 0 20 -19 29 -34 16 -7 -6 -38 -13 -69 -17 l-57 -7
0 39 c0 22 -10 57 -23 79 -30 53 -65 58 -107 16z m75 -41 c20 -39 20 -90 0
-90 -9 0 -27 7 -40 16 -29 19 -34 64 -9 88 22 23 31 20 49 -14z"/>
<path d="M12071 9381 c-10 -6 -11 -13 -2 -29 6 -11 11 -30 11 -42 0 -19 -4
-20 -37 -15 -21 4 -50 15 -65 26 -34 24 -48 24 -48 0 0 -46 155 -90 180 -51
26 40 -6 132 -39 111z"/>
<path d="M6884 9365 c-4 -8 -4 -21 -1 -28 7 -19 265 -169 285 -165 9 2 18 13
20 26 3 18 -1 22 -22 22 -28 0 -242 124 -250 146 -7 18 -25 18 -32 -1z"/>
<path d="M2920 9324 c0 -13 -8 -15 -49 -9 -79 11 -115 -22 -74 -68 17 -18 17
-20 -10 -39 -30 -22 -35 -49 -12 -68 9 -8 12 -22 8 -41 -4 -21 -2 -29 8 -30
135 -5 189 -3 193 8 6 16 1 19 -76 43 -35 11 -72 26 -83 34 -30 22 -5 41 51
40 60 -1 56 23 -9 53 -26 13 -47 25 -47 28 0 3 27 3 59 -1 54 -6 60 -4 71 15
9 17 9 26 -1 37 -15 19 -29 18 -29 -2z"/>
<path d="M11740 9319 c0 -14 5 -19 17 -17 26 5 29 38 4 38 -15 0 -21 -6 -21
-21z"/>
<path d="M7650 9293 c0 -19 9 -25 148 -99 83 -44 133 -77 195 -126 20 -16 30
-19 38 -11 24 24 -33 72 -198 163 -89 49 -167 90 -173 90 -5 0 -10 -8 -10 -17z"/>
<path d="M1870 9279 c-12 -22 -5 -75 13 -97 28 -34 45 -33 92 8 63 54 79 53
71 -4 -8 -52 6 -68 36 -39 17 18 18 24 7 66 -15 62 -30 73 -71 56 -18 -7 -47
-26 -65 -42 l-33 -29 -12 26 c-9 20 -9 29 0 38 18 18 14 38 -8 38 -10 0 -24
-9 -30 -21z"/>
<path d="M9622 9288 c-17 -17 -15 -38 3 -38 9 0 19 -10 24 -23 5 -13 21 -38
36 -55 15 -18 20 -30 12 -27 -8 4 -63 7 -123 8 -86 2 -108 5 -106 16 4 19 -8
51 -19 51 -11 0 -40 -65 -45 -100 -5 -40 17 -109 39 -125 56 -39 111 -3 112
73 l1 47 60 -3 c32 -2 83 -7 113 -13 30 -5 67 -9 83 -9 42 0 35 27 -12 46 -43
18 -120 96 -120 123 0 19 -19 41 -35 41 -6 0 -16 -5 -23 -12z m-117 -198 c22
-24 13 -70 -14 -70 -24 0 -37 17 -46 58 -6 29 -4 32 18 32 13 0 32 -9 42 -20z"/>
<path d="M4537 9259 c-57 -8 -106 -34 -107 -56 0 -6 11 -21 25 -31 25 -20 25
-21 5 -27 -11 -3 -25 -16 -31 -27 -9 -16 -7 -26 10 -49 11 -15 18 -34 15 -43
-3 -8 2 -16 13 -20 26 -8 142 -10 149 -3 14 13 -7 37 -31 37 -28 0 -99 33
-110 51 -10 15 1 22 46 28 22 3 40 11 41 16 1 6 -18 23 -42 39 l-44 30 30 8
c16 5 43 6 60 3 21 -4 35 0 44 10 12 15 7 46 -7 44 -4 -1 -34 -5 -66 -10z"/>
<path d="M10138 9243 c-20 -23 -43 -71 -52 -105 -8 -35 21 -98 46 -98 22 0 24
27 2 51 -15 17 -15 22 2 69 25 71 47 65 101 -25 45 -77 69 -95 126 -95 28 0
44 7 62 26 38 41 48 129 15 129 -9 0 -17 -15 -22 -44 -10 -56 -23 -71 -64 -71
-31 0 -38 6 -70 58 -46 71 -93 122 -114 122 -9 0 -24 -8 -32 -17z"/>
<path d="M6225 9206 c-4 -25 -4 -62 -1 -81 4 -19 4 -35 0 -35 -4 0 -31 23 -60
50 -40 38 -60 50 -83 50 -26 0 -31 -4 -31 -23 0 -13 -6 -45 -14 -70 -12 -39
-12 -48 0 -58 11 -9 16 -4 28 23 8 18 17 46 21 61 l6 28 75 -66 c41 -36 78
-65 83 -65 14 0 17 29 17 130 -1 80 -4 95 -18 98 -13 2 -18 -7 -23 -42z"/>
<path d="M3445 9187 c-31 -19 -36 -31 -17 -45 13 -10 39 -12 104 -7 l87 6 7
-25 c8 -32 53 -65 97 -73 30 -4 37 -1 56 25 24 34 27 74 8 90 -28 24 -106 32
-199 22 -79 -9 -93 -9 -100 5 -10 18 -16 18 -43 2z m308 -57 c12 -10 -10 -50
-27 -50 -20 0 -66 39 -66 57 0 12 8 13 43 8 23 -4 46 -11 50 -15z"/>
<path d="M5294 9190 c-29 -12 -74 -68 -74 -93 0 -11 5 -36 12 -54 11 -30 16
-33 53 -34 22 0 80 -2 129 -5 105 -6 136 -1 136 25 0 17 -6 18 -65 13 l-65 -5
0 27 c0 29 -31 96 -52 113 -21 17 -51 22 -74 13z m76 -91 c7 -16 10 -32 7 -36
-4 -3 -29 -8 -56 -11 -47 -4 -50 -3 -56 21 -7 28 18 73 45 80 20 5 45 -18 60
-54z"/>
<path d="M11020 9155 c0 -9 8 -18 18 -21 55 -18 76 -30 117 -69 34 -31 44 -47
39 -61 -3 -10 -8 -25 -10 -32 -3 -9 -13 -3 -29 17 -43 50 -89 73 -126 64 -18
-5 -37 -16 -43 -25 -26 -41 60 -120 131 -120 26 0 42 -6 51 -19 18 -26 42 -8
42 30 0 15 5 32 10 37 17 17 14 78 -4 106 -42 65 -196 137 -196 93z m73 -160
c36 -25 43 -36 31 -48 -9 -9 -56 11 -82 36 -17 15 -19 23 -10 29 18 11 19 11
61 -17z"/>
<path d="M10636 9145 c-7 -19 18 -48 39 -44 21 5 28 19 17 37 -12 18 -49 23
-56 7z"/>
<path d="M11931 9141 c-39 -71 29 -160 106 -139 25 6 35 17 49 53 19 51 37 54
42 7 2 -23 -2 -33 -18 -42 -17 -9 -19 -14 -9 -26 29 -35 69 6 69 73 0 46 -25
73 -68 73 -18 0 -27 -10 -44 -49 -23 -58 -47 -69 -78 -36 -17 18 -20 30 -16
53 9 38 -17 64 -33 33z"/>
<path d="M6942 9133 c2 -10 14 -19 28 -21 14 -2 36 -7 50 -12 14 -4 37 -11 53
-14 24 -6 26 -9 17 -26 -6 -11 -40 -37 -76 -57 -93 -54 -85 -67 44 -71 95 -2
103 -1 100 15 -2 14 -15 19 -55 21 l-51 3 43 40 c46 43 63 75 48 90 -12 12
-146 49 -179 49 -19 0 -25 -4 -22 -17z"/>
<path d="M8830 9049 l0 -103 -30 29 c-26 25 -30 34 -27 79 2 41 -1 51 -15 54
-14 3 -19 -6 -24 -38 l-7 -41 -31 30 c-36 35 -61 39 -75 13 -12 -23 14 -203
31 -213 23 -14 28 17 14 99 l-12 81 33 -30 c19 -16 38 -29 43 -29 5 0 8 -19 7
-42 -2 -32 2 -43 13 -43 8 0 16 10 18 23 3 22 5 21 46 -13 51 -41 83 -47 71
-12 -5 12 -11 74 -14 137 -5 99 -8 115 -23 118 -16 3 -18 -7 -18 -99z"/>
<path d="M7746 8988 c-9 -5 -16 -18 -16 -29 0 -18 4 -20 31 -14 17 4 51 4 75
0 l45 -6 -63 -42 c-35 -23 -72 -44 -83 -47 -11 -4 -20 -14 -20 -25 0 -19 10
-21 135 -27 74 -5 137 -5 142 0 20 20 -13 33 -93 38 -46 3 -86 7 -88 9 -2 2
20 16 49 32 80 43 94 56 86 81 -6 18 -15 22 -49 23 -23 0 -63 4 -89 8 -25 4
-54 4 -62 -1z"/>
<path d="M9377 8396 c-3 -8 -2 -29 3 -46 15 -53 9 -56 -100 -52 -86 4 -100 2
-100 -11 0 -24 7 -25 119 -29 l102 -2 -3 -55 c-2 -36 1 -55 9 -58 21 -8 35 48
29 113 -11 109 -42 184 -59 140z"/>
<path d="M11805 8290 c-10 -16 12 -47 42 -58 97 -37 172 -52 265 -53 l66 -1 6
-46 c3 -25 4 -47 2 -49 -2 -2 -33 -6 -70 -10 l-68 -6 4 44 c2 35 0 44 -14 47
-14 3 -18 -7 -24 -47 l-7 -51 -63 0 c-34 0 -75 5 -90 10 -36 14 -56 -3 -32
-27 11 -10 39 -18 75 -20 64 -5 103 -19 103 -39 0 -7 6 -15 13 -17 6 -3 1 -6
-12 -6 -43 -2 -180 -42 -192 -58 -24 -28 10 -30 94 -6 129 38 261 31 277 -13
10 -25 29 -31 46 -14 13 13 96 -50 112 -85 13 -28 37 -33 46 -9 7 19 -83 117
-124 134 -32 13 -34 20 -24 94 l7 46 53 0 c29 0 56 -5 59 -10 5 -8 11 -7 21 1
10 8 11 16 3 31 -9 17 -19 19 -79 16 l-69 -3 -6 33 c-12 66 15 89 122 101 52
6 58 9 70 39 11 28 11 33 -2 38 -23 9 -48 -4 -41 -21 4 -11 -3 -15 -28 -15
-18 0 -51 -6 -72 -14 -22 -7 -45 -11 -52 -9 -7 3 -19 -1 -27 -7 -41 -34 -355
18 -355 59 0 14 -27 14 -35 1z m387 -300 c-2 -24 -4 -45 -6 -47 -1 -1 -17 2
-35 7 -18 5 -52 10 -75 11 -41 2 -41 3 -38 35 4 32 6 33 56 37 102 7 101 8 98
-43z"/>
<path d="M9543 8242 c-8 -5 -9 -13 -3 -22 6 -8 10 -46 10 -85 0 -73 12 -108
29 -90 5 6 11 21 13 35 3 24 6 25 93 28 92 3 130 18 118 48 -6 16 -33 19 -33
4 0 -6 -37 -10 -90 -10 l-90 0 0 34 c0 19 -7 42 -16 50 -18 18 -16 18 -31 8z"/>
<path d="M10893 8213 c-14 -5 -18 -33 -5 -33 4 0 8 -38 8 -84 l1 -83 -69 -13
c-38 -8 -71 -17 -73 -21 -9 -13 72 -105 104 -119 33 -13 37 -25 20 -63 -8 -18
-8 -30 0 -46 19 -34 38 -25 44 20 3 22 8 43 11 46 2 3 38 -14 80 -36 50 -28
76 -48 78 -62 2 -15 19 -26 58 -40 259 -93 300 -103 300 -75 0 16 -24 38 -33
30 -10 -10 -100 27 -128 53 -14 12 -30 23 -37 23 -6 0 -36 12 -65 26 l-54 27
-1 111 c0 61 2 119 4 128 6 21 31 26 183 37 114 9 136 16 123 38 -6 10 -34 10
-122 3 -123 -11 -300 -36 -349 -50 l-30 -8 -6 52 c-4 29 -6 63 -5 77 5 55 -6
73 -37 62z m192 -223 c8 -27 11 -187 3 -195 -3 -4 -39 12 -80 34 l-73 40 5 58
5 58 50 12 c72 16 83 15 90 -7z m-185 -60 c0 -45 0 -45 -39 -25 -34 17 -47 52
-22 58 51 14 61 9 61 -33z"/>
<path d="M2694 8165 c-3 -8 -1 -34 4 -59 13 -64 -1 -121 -22 -87 -10 15 -94
51 -120 51 -32 0 -46 -25 -35 -63 11 -38 37 -67 61 -67 24 0 23 32 -2 48 -19
12 -28 42 -12 42 16 0 108 -59 131 -84 32 -34 67 -36 55 -3 -4 12 -8 45 -9 72
-3 99 -16 165 -31 165 -8 0 -17 -7 -20 -15z"/>
<path d="M1011 8040 c-6 -25 -10 -65 -9 -90 1 -25 -1 -70 -5 -100 l-8 -55 -54
3 -54 4 7 51 c4 29 7 84 7 122 0 56 -3 70 -15 70 -11 0 -16 -17 -21 -70 -3
-38 -9 -100 -14 -137 -7 -65 -7 -67 16 -72 51 -10 169 -17 169 -9 0 4 4 40 7
78 4 39 6 94 5 123 -1 40 2 52 13 52 8 0 15 7 15 15 0 12 24 15 133 17 118 3
132 5 132 21 0 16 -14 18 -156 20 l-157 2 -11 -45z"/>
<path d="M10273 8050 c-49 -28 -53 -33 -53 -68 0 -33 -6 -42 -58 -82 -59 -47
-75 -76 -47 -86 11 -4 26 4 43 23 15 16 37 38 49 48 22 18 23 18 41 -26 34
-77 81 -102 141 -74 37 16 71 59 71 89 0 25 16 19 48 -20 18 -22 28 -43 25
-55 -4 -13 3 -22 21 -30 68 -31 46 47 -38 134 -26 26 -44 52 -41 57 7 12 -63
90 -90 100 -53 20 -61 19 -112 -10z m136 -64 l25 -26 -33 11 c-18 6 -55 9 -82
7 -52 -5 -57 -2 -36 24 35 44 75 39 126 -16z m-10 -57 c35 -12 35 -14 20 -58
-13 -36 -60 -65 -90 -56 -18 6 -59 80 -59 105 0 19 82 25 129 9z"/>
<path d="M5126 8018 l-48 -42 6 -52 c8 -70 14 -84 39 -84 20 0 20 0 1 -21 -19
-21 -18 -21 18 -55 44 -40 91 -46 108 -15 12 24 -1 35 -33 28 -28 -7 -59 15
-51 36 4 11 19 15 51 15 27 0 52 7 63 17 15 13 32 15 108 9 112 -8 162 0 162
26 0 24 -20 37 -30 20 -6 -10 -32 -12 -111 -7 -84 5 -106 10 -124 27 -24 22
-75 40 -116 40 -19 0 -29 -7 -34 -22 -6 -21 -8 -21 -12 -4 -3 12 9 32 37 61
23 24 39 48 36 54 -11 17 -17 14 -70 -31z m123 -123 c21 -21 9 -28 -45 -27
-56 2 -59 4 -42 32 10 17 19 20 43 15 16 -3 36 -12 44 -20z"/>
<path d="M9395 8007 c-4 -14 -5 -35 -3 -48 3 -22 0 -24 -47 -24 -27 0 -69 4
-93 8 -41 7 -43 6 -40 -15 3 -21 10 -24 96 -32 l93 -9 -3 -45 c-2 -29 1 -46 9
-49 22 -8 34 48 30 141 -3 74 -7 92 -20 94 -10 2 -19 -6 -22 -21z"/>
<path d="M6942 7998 c-7 -7 -12 -22 -12 -34 0 -19 6 -22 46 -22 26 -1 49 -3
51 -6 11 -11 -10 -46 -27 -46 -10 0 -32 -12 -49 -26 l-31 -26 0 30 c0 33 -42
82 -71 82 -10 0 -41 -5 -69 -11 -39 -8 -50 -15 -48 -27 3 -13 12 -16 43 -13
75 8 87 6 99 -12 16 -26 -18 -50 -59 -42 -65 12 -70 11 -73 -16 l-3 -27 70 2
c38 1 67 -2 65 -6 -3 -4 -29 -8 -58 -8 -31 0 -60 -6 -72 -15 -19 -15 -19 -15
6 -36 22 -19 25 -19 36 -4 9 12 24 15 54 13 l41 -3 -21 -22 c-17 -19 -31 -23
-80 -23 -53 0 -60 -2 -60 -20 0 -18 7 -20 54 -20 52 0 116 16 116 28 0 4 9 18
18 30 17 22 21 23 60 11 29 -8 42 -18 44 -33 2 -11 11 -22 21 -24 13 -3 17 3
17 22 0 15 5 43 12 64 l12 38 95 15 c72 10 96 18 96 29 0 17 -31 18 -137 6
l-68 -8 0 31 c0 42 16 71 39 71 20 0 35 25 25 42 -3 5 -12 7 -20 4 -8 -3 -24
0 -34 6 -15 10 -22 10 -32 0 -17 -17 -57 -15 -64 3 -7 18 -16 19 -32 3z m73
-190 c-3 -23 -7 -44 -9 -45 -2 -2 -15 1 -29 6 l-27 10 21 36 c30 50 50 47 44
-7z"/>
<path d="M8510 7943 c-36 -23 -82 -56 -104 -73 -21 -16 -47 -30 -57 -30 -14 0
-19 -7 -19 -25 0 -19 5 -25 21 -25 12 0 42 -15 68 -34 25 -18 78 -51 117 -74
39 -23 76 -48 84 -56 17 -22 40 -20 40 3 0 30 -11 51 -26 51 -16 0 -172 88
-180 102 -6 9 68 9 166 -1 65 -6 65 -6 70 -40 7 -46 27 -51 38 -9 l8 33 72 -4
c59 -2 73 0 78 13 3 9 1 23 -6 31 -15 18 -50 20 -50 4 0 -12 -75 -7 -88 5 -3
4 -5 22 -5 42 1 30 -2 35 -20 32 -19 -3 -22 -9 -20 -42 2 -28 -1 -37 -11 -33
-7 3 -66 9 -130 13 -64 3 -116 10 -116 14 0 9 34 40 45 40 12 0 115 72 115 80
0 4 -6 12 -12 17 -9 6 -33 -4 -78 -34z"/>
<path d="M1825 7968 c-16 -6 -34 -18 -39 -26 -35 -60 -99 -79 -137 -41 -28 28
-49 18 -49 -26 0 -24 5 -38 17 -42 9 -4 18 -2 20 4 2 5 26 8 56 5 51 -4 53 -3
95 42 46 49 85 63 148 53 43 -7 56 -18 104 -82 53 -72 98 -90 191 -79 40 5 74
14 76 21 6 17 -35 55 -55 51 -9 -2 -17 -10 -17 -18 0 -25 -69 -25 -115 1 -22
13 -40 29 -40 36 0 25 -71 92 -108 103 -46 12 -108 12 -147 -2z"/>
<path d="M6081 7923 c1 -32 2 -71 1 -86 -2 -27 -3 -28 -29 -14 -34 18 -113 37
-152 37 -16 0 -39 -11 -55 -25 -23 -21 -27 -32 -24 -67 2 -35 9 -46 37 -65 55
-37 156 -27 209 21 16 14 21 16 17 5 -8 -22 12 -72 28 -66 7 2 13 24 14 52 1
27 8 52 15 56 7 5 45 6 83 2 59 -5 73 -3 84 11 12 15 12 19 -1 33 -10 10 -21
12 -30 7 -7 -5 -46 -9 -86 -9 l-72 0 4 51 c6 63 -5 108 -28 112 -15 3 -17 -4
-15 -55z m-102 -118 c70 -18 81 -29 55 -55 -25 -26 -104 -37 -144 -20 -51 21
-36 89 20 90 8 0 39 -7 69 -15z"/>
<path d="M3506 7952 c-4 -10 0 -37 8 -60 l15 -40 -53 5 c-45 5 -55 2 -83 -21
-19 -16 -43 -26 -63 -26 -27 0 -31 -3 -28 -22 3 -20 8 -23 40 -20 32 3 39 0
53 -27 8 -17 20 -31 25 -31 6 0 10 -6 10 -14 0 -7 7 -19 15 -26 19 -15 107 3
147 31 36 25 89 27 175 5 87 -22 108 -18 92 18 -15 33 -63 53 -84 36 -12 -10
-24 -10 -53 -2 -44 12 -130 1 -142 -18 -7 -11 -11 -11 -25 0 -12 10 -19 10
-27 2 -16 -16 -73 -15 -86 1 -6 7 -15 25 -21 40 -9 24 -8 27 16 33 38 10 77
-7 81 -34 3 -19 9 -23 30 -20 26 3 27 5 23 52 -1 27 -9 67 -17 87 -8 24 -9 41
-3 44 14 9 1 25 -21 25 -10 0 -21 -8 -24 -18z"/>
<path d="M4110 7931 c0 -5 26 -35 57 -67 l57 -56 -34 -28 c-19 -16 -38 -26
-42 -24 -10 6 -28 -30 -28 -55 0 -31 15 -26 67 24 49 47 84 63 43 20 -13 -14
-29 -25 -36 -25 -13 0 -26 -25 -17 -34 13 -13 43 -5 69 19 31 28 35 30 52 13
25 -25 0 -71 -29 -52 -8 5 -29 -35 -29 -56 0 -23 33 -15 70 17 38 33 41 39 36
72 -3 20 -7 45 -8 56 -2 11 -11 20 -20 20 -10 0 -23 6 -30 13 -17 17 46 16
145 -3 114 -22 143 -20 163 10 18 27 13 55 -10 55 -7 0 -16 -9 -19 -20 -6 -25
-27 -25 -137 -4 -46 8 -106 14 -133 13 -49 -3 -51 -2 -97 49 -29 32 -55 52
-68 52 -12 0 -22 -4 -22 -9z"/>
<path d="M7719 7928 c0 -7 0 -32 1 -56 1 -39 0 -43 -17 -34 -10 6 -39 13 -65
17 -42 6 -50 4 -72 -18 -34 -34 -35 -85 -3 -114 37 -36 104 -58 133 -44 33 15
34 14 34 -9 0 -13 7 -20 19 -20 25 0 45 25 38 49 -4 17 -2 18 19 11 13 -5 42
-19 65 -31 62 -31 117 -49 134 -43 8 4 13 10 10 14 -3 5 -6 62 -6 127 0 65 -3
126 -5 136 -8 28 -50 20 -93 -18 -21 -19 -52 -38 -69 -41 -17 -3 -40 -15 -51
-25 -11 -11 -22 -19 -25 -19 -3 0 -6 28 -8 62 -2 50 -6 63 -20 66 -10 2 -18
-2 -19 -10z m249 -143 l1 -104 -24 9 c-52 20 -109 53 -126 74 -22 26 -11 42
37 51 21 4 50 20 70 41 19 19 36 34 38 34 2 0 4 -47 4 -105z m-275 9 c59 -31
12 -99 -50 -72 -59 25 -78 59 -51 86 14 14 57 8 101 -14z"/>
<path d="M1940 7905 c-10 -12 -10 -27 -1 -75 10 -52 10 -63 -3 -76 -9 -8 -16
-24 -16 -35 0 -16 -7 -19 -50 -19 -61 0 -77 -22 -39 -51 29 -22 49 -24 49 -4
0 11 12 13 63 9 45 -4 67 -2 81 9 24 18 12 41 -18 33 -20 -5 -21 -1 -22 57 0
34 -2 78 -4 97 -2 19 -2 41 1 49 6 21 -25 25 -41 6z"/>
<path d="M2569 7893 c-9 -10 -15 -50 -17 -113 -3 -81 -1 -100 13 -114 13 -12
20 -14 30 -6 8 6 40 10 74 8 80 -4 88 5 75 83 l-10 60 65 -7 c36 -3 100 -12
142 -18 42 -7 81 -10 87 -8 18 6 14 22 -10 43 -23 19 -58 26 -58 11 0 -7 -64
0 -266 29 -79 11 -90 15 -86 31 6 23 -21 24 -39 1z m128 -113 c18 -63 13 -70
-52 -70 l-55 0 0 54 c0 60 6 66 60 63 32 -2 35 -6 47 -47z"/>
<path d="M9736 7431 c-10 -16 5 -41 25 -41 21 0 25 20 7 38 -14 14 -25 15 -32
3z"/>
<path d="M5415 7400 c-10 -16 15 -41 39 -38 32 5 28 42 -6 46 -14 2 -29 -2
-33 -8z"/>
<path d="M8823 7354 c-3 -8 1 -22 9 -30 13 -13 16 -13 27 -1 14 17 4 47 -15
47 -8 0 -17 -7 -21 -16z"/>
<path d="M7120 7327 c0 -27 27 -44 44 -27 13 13 -4 44 -28 48 -11 3 -16 -4
-16 -21z"/>
<path d="M3807 7316 c-7 -17 22 -31 36 -17 5 5 6 14 3 20 -10 16 -33 14 -39
-3z"/>
<path d="M4523 7314 c-8 -21 13 -42 28 -27 13 13 5 43 -11 43 -6 0 -13 -7 -17
-16z"/>
<path d="M9671 7306 c-8 -9 -4 -19 14 -34 26 -23 29 -30 19 -56 -5 -12 -21
-16 -70 -16 -52 0 -72 5 -102 24 -57 38 -121 52 -157 35 -25 -12 -30 -21 -33
-55 -3 -36 1 -45 27 -67 17 -14 31 -31 31 -37 0 -6 8 -10 18 -8 12 2 17 13 17
38 0 28 -4 35 -25 40 -28 7 -39 38 -18 51 18 12 66 1 108 -24 19 -12 69 -56
112 -99 76 -76 102 -91 111 -65 7 19 -21 59 -65 92 l-40 30 48 3 c58 4 72 14
80 57 10 57 -46 126 -75 91z"/>
<path d="M7992 7283 c4 -22 56 -39 71 -23 9 9 7 15 -7 26 -28 20 -68 19 -64
-3z"/>
<path d="M8537 7283 c-17 -16 -4 -44 32 -73 34 -28 38 -36 36 -68 -2 -19 0
-44 6 -53 11 -21 72 -40 139 -43 34 -1 57 -9 84 -30 48 -36 100 -41 104 -8 4
24 -29 45 -36 24 -2 -8 -17 -2 -43 15 -30 22 -37 32 -31 48 4 11 7 37 6 59 0
72 -89 110 -165 70 -28 -14 -32 -14 -63 6 -19 11 -36 29 -39 40 -5 20 -18 26
-30 13z m245 -100 c18 -17 25 -58 10 -67 -5 -3 -32 11 -62 31 -39 26 -49 37
-39 44 23 14 71 10 91 -8z m-86 -60 c24 -16 44 -31 44 -34 0 -7 -70 6 -73 13
-1 1 -8 13 -15 26 -16 29 -8 28 44 -5z"/>
<path d="M2030 7265 c0 -17 36 -39 50 -30 15 9 12 32 -6 39 -26 10 -44 7 -44
-9z"/>
<path d="M5186 7248 c-25 -35 -19 -65 20 -108 47 -52 143 -98 213 -102 48 -3
55 0 73 24 19 24 19 29 7 69 -10 31 -22 48 -42 57 -63 30 -108 -20 -74 -80 11
-20 12 -28 4 -28 -24 0 -113 48 -144 78 -34 31 -40 46 -23 57 6 3 10 17 10 31
0 30 -24 32 -44 2z m268 -110 c8 -13 7 -21 -1 -29 -16 -16 -43 5 -43 33 0 24
28 21 44 -4z"/>
<path d="M6272 7248 c2 -13 11 -24 21 -26 22 -4 35 27 16 39 -25 16 -41 10
-37 -13z"/>
<path d="M2902 7243 c4 -23 56 -49 70 -35 5 5 7 19 3 31 -9 28 -78 31 -73 4z"/>
<path d="M10500 7240 c0 -15 5 -20 18 -18 9 2 17 10 17 18 0 8 -8 16 -17 18
-13 2 -18 -3 -18 -18z"/>
<path d="M11217 7224 c-10 -10 12 -44 27 -44 8 0 16 6 19 14 9 23 -28 48 -46
30z"/>
<path d="M3626 7185 c-12 -18 -23 -24 -39 -21 -77 16 -108 16 -113 1 -9 -22
17 -47 84 -81 31 -16 68 -37 81 -46 33 -24 44 -13 38 38 l-5 44 37 0 c119 0
179 25 137 56 -14 10 -22 10 -44 -2 -15 -8 -53 -14 -86 -14 -50 0 -57 2 -46
15 6 8 9 19 5 25 -11 17 -32 11 -49 -15z m-1 -76 c15 -15 -10 -11 -41 7 l-29
16 30 -7 c17 -3 34 -11 40 -16z"/>
<path d="M4287 7204 c-14 -14 -7 -83 12 -125 19 -42 22 -43 58 -40 51 4 64 16
52 47 -14 39 -11 50 19 64 31 15 51 14 71 -5 15 -15 7 -70 -9 -60 -20 13 -27
-6 -16 -40 7 -19 15 -38 19 -41 14 -14 36 20 48 72 15 68 3 99 -46 120 -32 13
-38 13 -73 -5 -51 -26 -65 -45 -60 -81 3 -19 0 -30 -8 -30 -14 0 -32 44 -36
89 -3 33 -17 49 -31 35z"/>
<path d="M6020 7114 c0 -86 2 -95 18 -92 13 2 18 17 22 65 l5 63 53 -37 c45
-32 52 -41 52 -71 0 -26 4 -33 17 -30 9 2 20 13 23 25 5 22 6 22 34 8 15 -8
34 -15 41 -15 17 0 45 33 45 53 0 25 -22 32 -36 12 -12 -16 -17 -17 -51 -4
-35 14 -38 18 -39 57 -1 45 -15 69 -33 58 -6 -4 -11 -20 -11 -37 0 -16 -3 -29
-6 -29 -4 0 -28 16 -54 35 -75 55 -80 51 -80 -61z"/>
<path d="M1200 7176 c0 -25 25 -43 35 -25 10 15 -5 49 -21 49 -8 0 -14 -10
-14 -24z"/>
<path d="M6872 7184 c-16 -11 -22 -25 -22 -54 0 -32 6 -43 38 -70 59 -49 124
-53 135 -9 6 21 7 21 42 -9 65 -58 145 -36 145 39 0 79 -143 141 -191 83 -9
-12 -16 -10 -41 11 -34 29 -73 32 -106 9z m93 -49 c28 -27 34 -75 10 -75 -25
0 -66 32 -61 46 3 8 -2 17 -11 22 -9 5 -13 14 -9 21 12 19 46 12 71 -14z m160
1 c34 -15 54 -53 40 -75 -16 -27 -100 4 -89 33 3 8 1 17 -5 21 -16 10 -13 35
4 35 9 0 31 -6 50 -14z"/>
<path d="M7981 7158 c-28 -25 -159 -38 -195 -19 -12 7 -38 11 -57 9 l-34 -3 2
-55 c2 -64 25 -90 79 -90 37 0 69 34 62 67 -3 16 9 20 91 30 101 13 116 20
107 51 -10 29 -31 33 -55 10z m-193 -70 c21 -21 14 -48 -13 -48 -29 0 -50 31
-33 48 15 15 31 15 46 0z"/>
<path d="M2657 7163 c-3 -5 -6 -39 -8 -78 -3 -59 -1 -70 13 -73 13 -2 18 7 23
42 l7 45 58 -44 c32 -25 61 -45 63 -45 14 0 15 36 2 67 -8 19 -12 39 -9 44 14
23 94 0 124 -36 11 -13 10 -20 -9 -46 -13 -17 -20 -37 -17 -45 9 -22 43 0 63
40 21 46 3 84 -57 114 -61 30 -115 30 -136 -3 -9 -14 -13 -32 -10 -42 4 -10
-12 1 -36 25 -42 41 -62 50 -71 35z"/>
<path d="M12150 7125 c0 -21 30 -31 40 -14 11 17 3 29 -21 29 -10 0 -19 -7
-19 -15z"/>
<path d="M2050 7111 c0 -10 10 -25 21 -33 l22 -14 -28 -18 c-22 -15 -32 -16
-44 -7 -31 22 -136 71 -154 71 -38 0 -57 -19 -57 -57 0 -28 8 -44 39 -74 43
-43 56 -47 65 -22 5 11 1 22 -11 30 -50 34 -72 83 -38 83 30 0 135 -61 152
-88 22 -35 75 -83 88 -79 21 7 16 40 -9 66 l-26 27 30 29 c16 16 30 32 30 36
0 15 -52 69 -66 69 -8 0 -14 -8 -14 -19z"/>
<path d="M10872 7118 c-7 -7 -12 -27 -12 -45 0 -86 113 -169 181 -132 17 8 24
6 40 -16 29 -36 71 -55 121 -55 107 0 130 101 38 165 -49 34 -136 58 -162 44
-15 -8 -32 -4 -78 20 -62 32 -108 39 -128 19z m97 -47 c55 -28 81 -101 36
-101 -8 0 -25 5 -39 12 -20 9 -24 16 -20 35 4 15 2 23 -6 23 -13 0 -39 28 -40
43 0 13 30 8 69 -12z m251 -71 c57 -41 47 -90 -19 -90 -48 0 -66 13 -66 47 0
18 -5 28 -15 28 -10 0 -16 12 -18 32 l-3 31 46 -13 c25 -8 59 -24 75 -35z"/>
<path d="M10324 7075 c-60 -26 -99 -107 -75 -153 9 -17 7 -20 -17 -25 -15 -3
-31 -1 -37 4 -5 6 -11 47 -11 92 -2 75 -3 82 -23 85 -20 3 -21 -1 -20 -65 0
-37 6 -90 13 -118 13 -54 7 -52 98 -39 55 8 63 22 41 68 -14 30 -14 39 -3 67
17 41 68 63 124 54 62 -9 88 -30 80 -63 -12 -47 -34 -83 -59 -92 -19 -7 -25
-17 -25 -40 0 -39 18 -38 57 3 41 43 64 90 66 137 2 49 -20 74 -78 89 -56 14
-92 13 -131 -4z"/>
<path d="M1217 7074 c-4 -4 -65 -6 -137 -5 l-130 2 0 -26 c0 -28 27 -46 40
-25 6 10 37 12 128 8 66 -3 126 -2 132 2 16 10 8 44 -11 48 -8 1 -18 0 -22 -4z"/>
<path d="M12120 7005 c-19 -9 -57 -10 -157 -3 -134 8 -183 2 -183 -25 0 -11
16 -14 68 -13 37 0 118 -1 180 -3 93 -3 116 -1 129 12 9 8 13 23 10 31 -7 18
-13 19 -47 1z"/>
<path d="M9375 6988 c-8 -28 -11 -217 -3 -232 5 -8 15 -13 23 -10 12 5 15 25
15 88 l1 81 44 -49 c47 -53 69 -54 60 -2 -9 45 11 58 86 59 50 0 65 -4 76 -19
7 -10 11 -25 7 -34 -3 -8 -9 -34 -11 -58 -5 -34 -11 -46 -34 -58 -31 -16 -38
-38 -14 -48 23 -9 85 51 85 83 0 14 5 42 10 61 13 43 -1 82 -36 100 -52 28
-193 7 -206 -32 -6 -17 -25 -2 -54 43 -25 40 -41 49 -49 27z"/>
<path d="M8761 6949 c-27 -25 -14 -52 17 -33 42 26 56 -18 22 -73 l-19 -32
-68 39 c-78 46 -131 52 -163 20 -30 -30 -24 -55 22 -94 45 -39 68 -35 68 11 0
22 -3 24 -25 19 -18 -5 -27 -1 -34 13 -23 42 31 42 110 -1 44 -25 59 -39 59
-55 0 -22 55 -73 78 -73 23 0 23 23 -2 60 -22 34 -23 40 -10 51 30 24 49 80
45 126 -1 12 -51 43 -69 43 -4 0 -18 -10 -31 -21z"/>
<path d="M6040 6920 c-43 -33 -16 -41 140 -43 139 -2 161 3 148 29 -2 4 -53 8
-115 8 -75 1 -116 5 -125 14 -16 16 -18 15 -48 -8z"/>
<path d="M4350 6904 c-19 -50 -2 -76 31 -47 11 9 48 15 119 17 73 2 104 6 110
16 5 8 7 18 4 22 -3 4 -54 5 -114 2 -69 -3 -111 -1 -115 6 -11 17 -25 11 -35
-16z"/>
<path d="M1205 6909 c-5 -7 -50 -10 -129 -8 -105 2 -121 0 -124 -14 -2 -9 6
-27 18 -39 20 -22 22 -22 34 -5 11 14 29 17 110 17 54 0 106 5 117 10 23 13
25 36 3 44 -21 8 -22 8 -29 -5z"/>
<path d="M3795 6907 c-13 -8 -65 -12 -150 -12 -131 0 -158 -5 -149 -28 10 -26
332 -14 349 13 8 12 -5 40 -19 40 -6 0 -20 -6 -31 -13z"/>
<path d="M5480 6901 c0 -19 -6 -21 -67 -21 -38 1 -88 5 -112 9 -50 10 -71 5
-71 -15 0 -20 42 -27 170 -28 l115 -1 0 35 c0 25 -5 36 -17 38 -13 2 -18 -3
-18 -17z"/>
<path d="M6865 6890 c-10 -32 3 -40 61 -40 32 0 88 -11 136 -27 59 -19 85 -24
97 -16 27 17 19 38 -14 39 -16 0 -52 9 -80 18 -27 10 -76 20 -107 23 -32 3
-58 10 -58 14 0 18 -29 8 -35 -11z"/>
<path d="M2676 6875 c-8 -22 17 -35 69 -35 27 0 79 -5 115 -11 82 -13 110 -7
110 26 0 25 -18 33 -36 15 -5 -5 -36 -6 -79 0 -132 16 -174 18 -179 5z"/>
<path d="M1820 6846 c0 -32 27 -55 36 -31 6 16 16 17 93 10 135 -12 145 -12
149 6 2 13 -13 18 -80 27 -46 7 -109 12 -140 12 -54 0 -58 -1 -58 -24z"/>
<path d="M8045 6858 c-4 -10 -43 -13 -146 -13 -144 0 -166 -6 -153 -39 4 -11
13 -15 27 -10 11 3 78 7 148 9 134 3 159 10 159 46 0 21 -28 26 -35 7z"/>
<path d="M11951 6821 c-9 -6 -11 -21 -6 -54 l7 -45 -50 -7 c-40 -5 -58 -2 -92
15 -28 14 -46 18 -52 12 -13 -13 7 -52 26 -52 8 0 16 -7 20 -15 3 -8 16 -15
28 -15 13 0 64 -27 113 -60 50 -33 96 -60 103 -60 19 0 14 26 -11 57 -13 15
-27 40 -31 56 -7 30 -19 27 124 32 57 3 60 4 60 24 0 23 -15 35 -31 25 -6 -3
-46 -9 -89 -11 l-78 -4 -7 50 c-7 55 -14 64 -34 52z m12 -163 c4 -12 5 -23 4
-24 -1 -1 -18 9 -37 22 l-34 24 31 0 c23 0 32 -5 36 -22z"/>
<path d="M10140 6798 c0 -2 -3 -49 -6 -105 -6 -99 -5 -103 15 -103 18 0 20 7
23 61 3 60 3 60 23 42 65 -60 98 -67 120 -23 22 43 50 55 95 41 54 -16 73 -42
72 -98 -1 -39 -6 -51 -27 -66 -20 -15 -23 -22 -14 -33 30 -36 64 -5 78 73 13
65 -2 108 -47 138 -74 48 -153 39 -185 -21 l-13 -25 -41 33 c-23 18 -47 45
-54 61 -6 15 -18 27 -25 27 -8 0 -14 -1 -14 -2z"/>
<path d="M10908 6748 c-4 -12 10 -167 17 -185 2 -7 12 -13 21 -13 15 0 16 8
10 65 -4 36 -3 65 2 65 5 0 19 -11 32 -25 39 -42 78 -31 95 25 16 51 59 54
109 6 38 -35 40 -60 5 -69 -20 -5 -25 -32 -9 -57 7 -12 12 -11 31 5 12 11 28
35 36 53 12 29 12 36 -4 63 -23 38 -85 79 -121 79 -31 0 -82 -33 -82 -53 0 -7
-5 -19 -10 -27 -8 -12 -17 -8 -52 26 -46 44 -75 59 -80 42z"/>
<path d="M1170 5527 c0 -7 14 -26 30 -42 17 -16 30 -34 30 -40 0 -20 -38 -47
-92 -66 -47 -15 -54 -21 -62 -53 -8 -30 -6 -41 11 -64 30 -40 77 -50 111 -25
35 26 39 58 13 94 -20 27 -20 28 -1 34 28 9 60 53 60 82 0 15 -14 39 -34 59
-35 35 -66 45 -66 21z m8 -220 c18 -14 15 -35 -8 -42 -28 -9 -48 10 -43 39 5
25 21 26 51 3z"/>
<path d="M1963 5278 c-19 -21 -43 -79 -43 -103 0 -5 8 -10 18 -10 10 -1 31
-11 47 -23 46 -36 108 -23 135 29 16 28 -20 106 -55 119 -43 16 -80 12 -102
-12z m106 -50 c20 -32 20 -33 2 -52 -38 -37 -116 18 -91 64 18 33 64 26 89
-12z"/>
<path d="M2824 5278 c-4 -6 0 -16 9 -23 43 -31 -6 -72 -70 -60 -33 6 -50 -6
-37 -27 4 -7 8 -23 9 -36 1 -27 34 -55 82 -70 30 -9 37 -8 55 10 22 22 18 67
-9 81 -12 8 -12 11 6 24 24 16 29 81 9 101 -15 15 -45 15 -54 0z m20 -164 c7
-17 -17 -18 -47 -2 -21 11 -21 11 -2 18 24 9 42 3 49 -16z"/>
<path d="M3700 5197 c0 -8 9 -22 20 -32 17 -15 20 -29 18 -69 -3 -45 -6 -51
-27 -54 -15 -3 -21 0 -16 8 14 22 -5 80 -32 97 -25 17 -26 16 -49 -11 -13 -15
-24 -34 -24 -42 0 -24 31 -64 61 -80 36 -18 63 -18 99 1 28 15 30 19 30 76 0
46 -5 68 -21 90 -21 30 -59 40 -59 16z m-40 -127 c0 -12 -3 -12 -16 2 -9 9
-13 21 -9 28 9 14 25 -5 25 -30z"/>
<path d="M1084 5166 c-5 -13 -122 -32 -170 -27 -30 3 -49 -22 -29 -39 11 -9
29 -10 78 -1 101 17 117 15 117 -14 0 -60 95 -100 132 -57 44 49 29 93 -36
112 -25 7 -51 19 -57 26 -15 18 -28 18 -35 0z m110 -77 c12 -11 -12 -39 -33
-39 -11 0 -16 9 -16 30 0 25 3 29 20 24 11 -4 24 -10 29 -15z"/>
<path d="M5463 5165 c-3 -9 2 -21 12 -29 37 -27 -17 -86 -79 -86 -22 0 -26 -6
-32 -45 -9 -63 21 -93 109 -109 46 -8 87 13 87 45 0 31 -27 77 -50 84 -25 8
-25 17 0 40 11 10 20 31 20 47 0 27 -30 68 -50 68 -6 0 -13 -7 -17 -15z m35
-182 c33 -20 25 -49 -13 -46 -63 5 -105 40 -79 66 9 9 65 -3 92 -20z"/>
<path d="M4501 5153 c-16 -13 -23 -32 -26 -70 -3 -50 -2 -53 29 -73 42 -25 97
-26 119 -2 25 28 22 94 -5 120 -21 19 -68 42 -88 42 -4 0 -17 -8 -29 -17z m97
-87 l3 -37 -38 3 c-35 3 -38 5 -35 31 2 15 -1 27 -8 27 -8 0 -8 6 0 20 10 18
14 19 43 7 27 -11 32 -19 35 -51z"/>
<path d="M1967 5048 c-47 -59 -48 -63 -37 -92 5 -14 6 -26 1 -26 -5 0 -12 -8
-15 -17 -13 -32 14 -40 119 -34 91 5 100 8 100 26 0 17 -9 21 -70 28 -45 5
-77 15 -88 26 -18 18 -18 19 12 53 29 34 42 78 22 78 -5 0 -25 -19 -44 -42z"/>
<path d="M6306 5081 c-3 -4 1 -17 9 -27 19 -25 19 -50 -1 -58 -25 -9 -64 -7
-64 4 0 6 -11 10 -25 10 -33 0 -33 -25 0 -46 28 -19 106 -14 133 8 16 14 11
80 -8 103 -14 17 -36 20 -44 6z"/>
<path d="M7992 5062 c-9 -6 -4 -16 17 -37 48 -45 53 -117 11 -128 -16 -4 -20
0 -20 19 0 33 -34 64 -69 64 -38 0 -53 -20 -49 -67 3 -33 8 -40 43 -57 37 -17
42 -17 91 -2 36 11 54 23 62 41 23 50 9 113 -33 153 -26 24 -33 26 -53 14z
m-31 -154 c7 -25 6 -26 -17 -16 -13 6 -24 20 -24 30 0 29 32 18 41 -14z"/>
<path d="M7103 5014 c-3 -9 3 -21 16 -30 49 -35 12 -90 -69 -101 -44 -6 -57
-17 -42 -36 5 -7 6 -21 2 -32 -11 -30 -1 -53 34 -74 46 -28 97 -34 133 -16 55
28 52 87 -6 121 l-30 18 20 24 c27 35 25 87 -6 117 -28 29 -43 31 -52 9z m34
-195 c48 -23 52 -32 22 -52 -14 -11 -30 -12 -56 -7 -46 11 -57 23 -49 54 8 32
26 33 83 5z"/>
<path d="M6047 5006 c-7 -18 1 -26 25 -26 11 0 18 7 18 20 0 23 -35 28 -43 6z"/>
<path d="M8812 4949 c2 -49 -24 -62 -104 -55 -105 9 -101 -18 7 -49 77 -22
115 -42 115 -60 0 -19 -33 -19 -96 0 -98 30 -115 8 -32 -40 28 -16 71 -50 95
-73 26 -26 50 -41 59 -38 23 9 16 32 -21 65 -29 25 -32 31 -16 31 54 0 67 65
21 104 l-31 25 21 21 c28 28 29 100 1 100 -16 0 -19 -7 -19 -31z"/>
<path d="M2730 4932 c-16 -17 -30 -39 -30 -50 0 -19 29 -52 46 -52 5 0 15 -9
22 -21 11 -17 20 -20 45 -15 18 4 90 8 161 9 89 1 130 6 133 14 8 22 -35 33
-136 35 -95 2 -101 4 -101 23 0 27 -46 71 -82 80 -22 6 -33 1 -58 -23z m80
-32 c32 -32 26 -51 -12 -43 -48 8 -64 26 -43 47 21 21 31 20 55 -4z"/>
<path d="M3607 4923 c-4 -3 -7 -26 -7 -50 0 -49 -3 -50 -75 -28 -49 14 -75 8
-75 -19 0 -13 255 -65 284 -58 28 7 56 62 56 110 0 36 -3 43 -17 40 -13 -2
-20 -16 -24 -45 -7 -58 -21 -71 -66 -64 l-38 7 0 57 c0 46 -3 57 -16 57 -8 0
-19 -3 -22 -7z"/>
<path d="M4470 4865 c0 -57 -14 -71 -40 -40 -13 16 -105 22 -114 7 -10 -17 12
-30 81 -47 59 -14 75 -22 85 -43 17 -33 38 -40 38 -12 0 20 3 21 54 15 51 -7
55 -5 71 19 13 19 16 39 12 72 -5 50 -18 70 -40 61 -12 -4 -13 -13 -4 -45 15
-58 6 -74 -40 -67 -62 11 -63 12 -63 59 0 54 -8 76 -26 76 -10 0 -14 -15 -14
-55z"/>
<path d="M5500 4860 c0 -6 -29 -10 -68 -10 -40 0 -73 -5 -80 -12 -14 -14 -16
-64 -2 -73 6 -4 5 -13 -2 -25 -7 -11 -10 -21 -7 -24 2 -3 49 -9 103 -13 76 -7
99 -6 103 4 7 19 -6 33 -32 33 -31 0 -135 46 -135 59 0 7 27 11 68 11 74 0
110 16 99 44 -7 17 -47 23 -47 6z"/>
<path d="M9495 4860 c-3 -5 4 -17 15 -27 34 -28 40 -47 29 -86 -9 -33 -13 -36
-55 -43 -51 -7 -71 -35 -54 -78 12 -33 92 -71 119 -56 25 13 27 47 5 79 -10
14 -13 26 -7 30 32 20 48 103 28 141 -21 41 -66 63 -80 40z m17 -222 c14 -14
18 -23 10 -26 -17 -5 -64 27 -57 38 10 15 23 12 47 -12z"/>
<path d="M5926 4844 c-33 -33 -14 -39 127 -42 l137 -3 0 -25 c0 -26 24 -71 50
-91 45 -36 130 6 130 64 0 39 -9 49 -64 72 -41 18 -68 21 -195 21 -91 0 -151
4 -158 11 -7 7 -15 5 -27 -7z m361 -60 c44 -17 55 -38 31 -62 -32 -32 -88 4
-88 55 0 27 2 28 57 7z"/>
<path d="M7842 4790 c-31 -29 -29 -73 4 -99 40 -32 71 -27 116 19 48 48 83 53
92 13 4 -14 3 -29 -2 -32 -27 -19 -17 -69 12 -58 27 10 39 57 27 98 -23 76
-83 84 -143 20 -38 -42 -45 -45 -72 -35 -17 6 -22 34 -7 34 16 0 22 33 8 47
-11 11 -17 10 -35 -7z"/>
<path d="M11954 4729 c-3 -6 -1 -16 5 -22 18 -18 13 -37 -11 -37 -12 0 -42 7
-66 17 -30 11 -46 13 -54 5 -16 -16 -3 -29 49 -46 106 -36 156 -8 121 69 -12
26 -32 33 -44 14z"/>
<path d="M11560 4690 c0 -19 5 -30 14 -30 20 0 29 16 21 40 -10 32 -35 25 -35
-10z"/>
<path d="M11792 4560 c-43 -18 -19 -33 56 -36 48 -1 81 -8 103 -20 44 -26 48
-44 11 -44 -64 0 -77 -18 -40 -57 l22 -24 -44 20 c-58 26 -85 26 -104 0 -20
-29 -6 -56 69 -129 43 -43 58 -52 64 -41 13 21 4 37 -53 91 -28 27 -48 52 -44
55 4 4 47 -11 96 -34 107 -50 122 -51 122 -12 0 22 -9 35 -42 57 l-42 29 38 3
c20 2 39 9 42 17 9 22 -39 84 -81 105 -48 23 -141 34 -173 20z"/>
<path d="M9374 4393 c-14 -35 -14 -40 3 -72 43 -81 102 -74 135 17 11 28 26
52 33 52 22 0 45 -42 45 -82 0 -32 -3 -38 -21 -38 -28 0 -21 -34 7 -38 34 -5
54 24 54 77 0 112 -100 166 -143 76 -9 -20 -17 -42 -17 -49 0 -8 -6 -19 -14
-25 -11 -9 -18 -6 -35 15 -20 25 -20 28 -5 45 12 14 13 22 4 38 -16 30 -28 26
-46 -16z"/>
<path d="M10074 4365 c-25 -25 -26 -31 -21 -87 5 -56 20 -84 39 -72 4 3 5 33
1 68 -4 41 -2 66 5 70 22 13 73 -20 119 -78 80 -100 139 -119 176 -57 23 39
23 97 0 109 -24 12 -43 4 -43 -18 0 -10 6 -20 13 -23 15 -5 -2 -58 -21 -65 -8
-2 -50 34 -96 82 -45 47 -90 86 -98 86 -9 0 -23 3 -32 6 -9 3 -26 -5 -42 -21z"/>
<path d="M10630 4259 c-16 -28 -5 -49 24 -49 32 0 41 16 25 46 -15 30 -35 31
-49 3z"/>
<path d="M997 3804 c-4 -4 -7 -59 -7 -122 l0 -114 -62 5 c-35 3 -72 7 -83 9
-26 4 -32 -30 -10 -57 14 -17 17 -18 26 -5 9 12 28 14 112 9 56 -4 128 -12
161 -19 40 -8 61 -9 68 -2 14 14 2 45 -15 39 -6 -2 -43 1 -82 7 l-70 12 -5
119 c-5 109 -13 139 -33 119z"/>
<path d="M4365 3630 c-4 -11 -4 -39 0 -60 6 -38 5 -40 -18 -40 -13 0 -39 -3
-57 -6 l-32 -7 3 44 c4 39 1 44 -16 44 -19 0 -20 -7 -21 -120 -1 -78 2 -122 9
-127 22 -14 33 11 29 65 -4 54 -4 54 28 61 73 14 79 11 82 -46 2 -41 7 -54 21
-56 15 -3 17 5 17 57 l0 61 58 -1 c31 0 80 -4 107 -9 53 -8 75 0 75 29 0 14
-17 16 -117 19 -64 1 -119 5 -122 8 -3 3 -6 26 -6 52 -1 35 -5 48 -17 50 -9 2
-19 -6 -23 -18z"/>
<path d="M5080 3616 c-10 -12 -10 -49 -4 -168 8 -138 11 -153 28 -156 18 -4
19 3 12 159 -4 90 -11 168 -15 172 -4 4 -14 1 -21 -7z"/>
<path d="M6035 3620 c-3 -5 -37 -10 -76 -10 -58 0 -69 -3 -70 -17 -6 -72 5
-290 14 -299 7 -6 51 -14 100 -18 87 -6 87 -6 87 18 0 23 -24 43 -34 28 -2 -4
-31 -5 -63 -2 l-58 5 -3 49 -3 49 196 -6 c191 -6 251 0 243 24 -2 7 -75 13
-218 16 -118 3 -216 6 -216 6 -1 1 -4 26 -8 55 l-7 52 64 0 c68 0 95 15 83 45
-6 17 -22 20 -31 5z"/>
<path d="M2615 3610 c-3 -5 -7 -35 -8 -65 l-2 -54 -51 -7 c-72 -9 -85 -19 -54
-43 21 -17 27 -18 44 -5 11 8 30 14 43 14 19 0 22 -6 25 -47 2 -35 7 -48 18
-48 11 0 16 13 18 48 3 46 4 47 37 47 32 0 34 -2 37 -37 2 -27 8 -39 21 -41
14 -3 17 4 17 38 0 35 3 41 18 36 9 -3 49 -8 88 -12 60 -5 72 -4 77 10 8 21 3
23 -84 31 -42 4 -81 10 -87 14 -6 4 -13 25 -14 46 -3 32 -7 40 -23 40 -17 0
-20 -6 -17 -42 2 -43 2 -43 -32 -43 -40 0 -46 15 -39 84 5 37 3 46 -10 46 -9
0 -19 -4 -22 -10z"/>
<path d="M3580 3599 c-8 -14 -10 -43 -5 -86 l7 -64 -29 3 c-28 3 -28 4 -30 71
-1 74 -4 82 -28 74 -11 -5 -15 -23 -15 -77 0 -68 -1 -70 -25 -70 -22 0 -26 6
-37 60 -10 48 -16 60 -31 60 -20 0 -20 -19 -1 -102 6 -28 6 -28 -50 -28 -42 0
-56 -4 -56 -14 0 -22 19 -30 64 -27 43 2 56 -9 56 -51 0 -44 17 -78 35 -72 13
5 15 16 10 53 -4 25 -9 54 -12 64 -3 13 2 17 26 17 30 0 31 -2 31 -44 0 -57 8
-76 31 -76 17 0 18 6 12 60 -6 59 -5 60 19 60 23 0 26 -6 34 -52 6 -37 14 -53
24 -53 12 0 15 12 13 53 l-2 52 67 0 c69 0 95 11 85 36 -4 11 -21 12 -79 7
l-74 -6 -2 39 c-1 21 -2 59 -3 83 0 49 -17 64 -35 30z"/>
<path d="M5174 3608 c-8 -13 -6 -207 2 -256 7 -34 24 -49 43 -38 6 4 6 17 0
36 -20 55 -9 63 41 30 38 -25 47 -28 59 -16 18 19 7 46 -18 46 -11 0 -23 5
-26 10 -4 6 34 10 107 10 62 0 123 3 136 6 30 9 28 38 -5 53 -23 10 -29 10
-38 -2 -8 -12 -39 -16 -133 -19 -67 -1 -122 0 -122 4 0 4 14 23 30 41 48 55
34 93 -17 45 -24 -23 -27 -19 -23 35 2 28 -22 39 -36 15z"/>
<path d="M6883 3560 c-11 -16 -26 -20 -100 -22 -74 -3 -88 -6 -91 -20 -3 -16
5 -18 54 -18 l57 0 -7 -31 c-3 -17 -6 -74 -6 -125 l0 -94 -32 0 c-42 0 -63
-13 -54 -35 4 -13 13 -15 36 -10 30 6 136 -11 155 -26 16 -12 37 6 33 27 -2
11 -12 19 -24 20 -12 1 -33 4 -48 8 -23 6 -26 11 -26 50 l0 44 53 -5 c28 -4
97 -7 152 -7 92 -1 100 1 100 18 0 17 -10 19 -122 21 -80 2 -128 7 -138 15 -8
7 -22 10 -30 6 -12 -4 -15 2 -15 28 0 59 11 96 29 96 28 0 61 30 61 56 0 29
-20 32 -37 4z"/>
<path d="M11633 3573 c-18 -6 -16 -32 2 -40 21 -8 43 -52 56 -115 25 -118 82
-186 214 -258 118 -63 181 -79 325 -82 116 -2 166 9 157 35 -4 12 -8 12 -92 1
-50 -7 -50 -7 -28 12 18 16 22 32 25 104 2 70 0 85 -12 88 -10 2 -19 -9 -25
-30 -9 -29 -15 -33 -50 -36 -65 -6 -103 6 -107 31 -5 34 -31 27 -39 -11 -9
-46 9 -114 30 -110 11 3 15 13 14 32 -2 24 1 27 20 22 12 -3 46 -6 75 -6 45 0
52 -3 52 -19 0 -11 -4 -23 -10 -26 -5 -3 -10 -15 -10 -26 0 -17 -7 -19 -57
-19 -32 0 -81 6 -108 14 -71 19 -241 114 -269 151 l-24 31 33 -4 c18 -2 80 8
137 22 56 14 132 30 168 36 199 32 267 57 229 81 -18 11 -59 12 -59 1 0 -5
-55 -19 -122 -32 -68 -12 -170 -33 -227 -47 -92 -22 -108 -23 -147 -12 -42 13
-44 15 -55 69 -11 58 -50 134 -71 142 -7 3 -19 3 -25 1z"/>
<path d="M1920 3530 l0 -41 -111 2 c-113 1 -146 -8 -121 -33 8 -8 46 -11 122
-9 l109 2 3 -53 c2 -39 7 -53 18 -53 11 0 16 13 18 48 l3 48 97 -3 c91 -3 97
-2 97 17 0 17 -7 20 -45 20 -25 1 -68 2 -97 3 l-52 2 -3 42 c-2 31 -8 44 -20
46 -15 3 -18 -4 -18 -38z"/>
<path d="M7727 3482 c-10 -10 -17 -24 -17 -30 0 -13 -3 -14 -70 -16 -36 -1
-45 -4 -44 -18 1 -10 -3 -18 -8 -18 -5 0 -8 -10 -6 -22 2 -15 9 -21 18 -19 21
6 122 1 134 -6 19 -12 -29 -21 -79 -16 -38 4 -54 1 -63 -10 -18 -21 -5 -26 79
-31 l74 -4 0 -38 c0 -22 4 -45 8 -51 6 -10 -4 -13 -40 -15 -71 -2 -77 -3 -91
-11 -6 -5 -12 -17 -12 -29 0 -17 4 -19 23 -13 50 17 189 17 303 0 97 -14 118
-15 125 -3 16 24 3 33 -52 35 -30 2 -78 7 -108 13 -30 5 -72 10 -94 10 -34 0
-38 2 -27 15 15 18 7 115 -17 192 -12 42 -13 56 -3 67 12 15 6 36 -9 36 -4 0
-15 -8 -24 -18z"/>
<path d="M8544 3368 c-8 -13 -10 -18 -12 -50 -2 -15 -12 -18 -55 -18 -54 0
-87 19 -87 48 0 7 -11 12 -25 12 -28 0 -33 -21 -10 -40 8 -7 15 -18 15 -24 0
-7 6 -18 13 -24 6 -7 12 -17 12 -21 0 -4 12 -31 28 -59 45 -83 63 -89 282
-100 128 -7 204 -15 234 -26 24 -9 57 -16 73 -16 24 0 29 4 26 21 -4 26 -38
51 -45 32 -3 -9 -15 -8 -46 3 -26 10 -106 19 -207 24 -91 5 -166 9 -167 10 -2
0 -3 24 -3 54 0 52 1 55 28 58 34 4 36 30 2 38 -21 5 -25 12 -25 45 0 39 -17
57 -31 33z m-14 -156 c0 -56 -6 -65 -30 -52 -18 10 -60 73 -60 91 0 5 20 9 45
9 l45 0 0 -48z"/>
<path d="M11365 3330 c-11 -5 -45 -9 -75 -9 -30 -1 -107 -10 -170 -21 -200
-34 -245 -45 -248 -61 -5 -27 231 -149 396 -204 92 -30 159 -64 187 -95 22
-24 45 -26 45 -5 0 22 -41 75 -58 75 -8 0 -31 9 -51 20 -20 11 -83 36 -141 56
-101 35 -306 132 -297 141 9 9 226 44 329 53 59 5 117 14 129 20 41 23 -1 50
-46 30z"/>
<path d="M7590 3265 c-19 -23 -6 -29 66 -28 72 2 79 5 71 28 -9 21 -119 21
-137 0z"/>
<path d="M11084 3225 c-16 -12 -17 -16 -4 -24 8 -5 18 -7 23 -4 5 3 19 1 30
-5 47 -23 272 -63 367 -65 54 -2 65 1 68 16 3 14 -4 17 -39 17 -46 0 -214 25
-264 40 -16 5 -49 11 -72 15 -24 4 -45 11 -49 16 -8 14 -38 11 -60 -6z"/>
<path d="M9333 3133 c-22 -8 -15 -23 38 -76 91 -92 95 -110 31 -148 -48 -29
-92 -69 -92 -85 0 -24 26 -21 56 8 l31 29 52 -36 c60 -40 67 -42 73 -17 7 26
-1 42 -22 42 -10 0 -28 9 -41 20 l-24 19 33 13 c17 7 32 16 32 20 0 12 52 9
130 -7 75 -16 120 -12 120 11 0 16 -37 38 -44 25 -3 -5 -37 -3 -78 5 -40 8
-88 14 -105 14 -18 0 -33 3 -33 8 0 4 -12 20 -26 36 -30 31 -30 30 39 67 24
12 37 27 37 39 0 26 -12 25 -60 -5 -22 -14 -40 -22 -40 -19 0 4 -6 2 -13 -4
-10 -9 -22 -4 -48 17 -19 15 -40 26 -46 24z"/>
<path d="M10127 3016 c-10 -25 5 -60 39 -95 18 -18 36 -45 39 -60 10 -44 68
-101 109 -108 39 -6 92 11 100 33 3 8 17 14 32 14 42 0 99 20 130 46 23 19 26
25 15 33 -9 6 -26 3 -50 -10 -20 -10 -50 -21 -66 -25 -30 -5 -30 -5 -30 41 0
37 -5 50 -25 65 -36 28 -103 26 -155 -5 l-42 -24 -26 27 c-15 15 -28 39 -30
52 -4 28 -31 39 -40 16z m271 -98 c14 -14 15 -47 3 -67 -7 -11 -20 -8 -70 14
-33 15 -61 31 -61 35 0 25 106 40 128 18z m-31 -108 c15 0 16 -2 3 -10 -31
-20 -64 -11 -93 26 l-29 35 51 -25 c28 -14 58 -26 68 -26z"/>
<path d="M1224 2785 c-7 -18 3 -35 21 -35 12 0 25 21 25 41 0 15 -40 10 -46
-6z"/>
<path d="M2163 2774 c-9 -23 13 -40 32 -24 12 10 13 16 4 26 -15 18 -28 18
-36 -2z"/>
<path d="M2813 2754 c-6 -16 15 -37 29 -28 4 3 8 14 8 25 0 23 -28 26 -37 3z"/>
<path d="M2124 2746 c-3 -8 2 -30 10 -51 17 -40 14 -55 -10 -55 -8 0 -28 -7
-45 -15 -28 -15 -31 -15 -68 15 -46 37 -103 59 -137 52 -28 -5 -55 -49 -45
-72 12 -30 64 -90 78 -90 28 0 23 27 -13 65 -33 36 -35 40 -19 51 26 19 75 -5
152 -74 126 -112 131 -116 147 -103 20 17 4 42 -46 78 -21 14 -38 29 -38 34 0
5 18 13 40 19 56 15 68 43 45 103 -18 47 -42 67 -51 43z"/>
<path d="M3764 2705 c-9 -22 0 -50 16 -50 21 0 26 51 5 59 -9 3 -18 0 -21 -9z"/>
<path d="M2737 2690 c-14 -11 -29 -29 -32 -40 -9 -28 -17 -25 -43 15 -24 38
-48 45 -55 18 -3 -10 -4 -52 -3 -93 1 -58 5 -75 16 -75 8 0 18 18 25 45 11 44
12 44 26 23 21 -35 38 -28 61 26 24 59 43 69 74 40 33 -31 38 -55 19 -95 -9
-19 -13 -39 -10 -44 13 -20 32 -9 49 28 24 54 14 103 -30 142 -41 35 -62 37
-97 10z"/>
<path d="M4604 2677 c-9 -24 -1 -51 17 -55 25 -5 30 34 8 54 -17 15 -19 15
-25 1z"/>
<path d="M5403 2663 c-17 -6 -17 -40 0 -46 25 -10 40 8 28 32 -7 11 -13 21
-14 20 -1 0 -8 -3 -14 -6z"/>
<path d="M922 2622 c2 -26 8 -38 21 -40 11 -2 17 3 17 14 0 18 18 18 197 -2
54 -6 63 -4 69 11 7 17 -13 38 -28 29 -6 -4 -53 0 -236 21 l-43 5 3 -38z"/>
<path d="M12216 2653 c-13 -13 -5 -43 13 -53 21 -11 31 2 23 32 -4 18 -26 30
-36 21z"/>
<path d="M3596 2634 c-9 -8 -16 -20 -16 -25 0 -5 -25 -9 -55 -9 -41 0 -55 4
-55 14 0 21 -21 31 -31 15 -4 -8 -16 -14 -25 -14 -35 0 -23 -23 32 -65 67 -50
170 -110 190 -110 15 0 14 18 -1 95 -4 20 -2 21 76 12 83 -9 107 -3 96 25 -3
10 -26 15 -77 16 -90 1 -109 7 -103 31 7 26 -12 35 -31 15z m-2 -96 c10 -38 7
-39 -31 -19 -70 37 -72 41 -22 41 40 0 48 -3 53 -22z"/>
<path d="M6225 2640 c-4 -7 -3 -16 3 -22 14 -14 45 -2 40 15 -6 16 -34 21 -43
7z"/>
<path d="M11812 2608 c2 -17 21 -32 73 -57 l70 -35 2 -74 c2 -80 13 -103 40
-86 12 7 27 4 60 -12 48 -25 86 -20 118 16 16 18 18 18 62 -10 25 -16 68 -37
95 -46 45 -15 52 -15 65 -1 18 17 8 41 -13 33 -16 -6 -85 22 -143 58 -35 22
-41 31 -41 60 0 63 -19 95 -71 121 -59 30 -108 32 -142 5 l-26 -21 -50 22
c-28 12 -56 27 -62 35 -18 22 -41 17 -37 -8z m298 -68 c28 -14 40 -28 45 -50
4 -18 5 -33 3 -36 -3 -2 -20 8 -39 22 -19 14 -51 34 -72 45 -21 11 -35 24 -32
29 10 16 53 11 95 -10z m-29 -86 c30 -20 58 -40 63 -45 14 -12 -13 -39 -38
-39 -34 0 -106 58 -106 84 0 46 13 46 81 0z"/>
<path d="M5997 2613 c-11 -10 -8 -172 3 -193 6 -11 16 -17 24 -14 10 4 12 22
8 76 l-5 71 52 -29 c28 -16 75 -48 104 -72 29 -23 60 -45 70 -48 32 -10 64 54
35 72 -6 4 -17 -1 -24 -10 -12 -17 -17 -15 -66 23 -44 35 -186 131 -193 131
-1 0 -5 -3 -8 -7z"/>
<path d="M7142 2568 c2 -13 10 -23 18 -23 8 0 16 10 18 23 3 17 -2 22 -18 22
-16 0 -21 -5 -18 -22z"/>
<path d="M4341 2541 c-10 -7 -12 -26 -6 -82 4 -41 11 -85 16 -98 8 -21 14 -22
47 -16 49 9 55 16 58 74 5 93 40 116 95 62 33 -33 40 -90 14 -111 -22 -18 -19
-50 4 -50 54 0 69 134 21 185 -33 35 -84 50 -121 35 -23 -10 -32 -23 -44 -63
-8 -28 -15 -58 -15 -68 0 -9 -6 -19 -14 -22 -11 -4 -16 12 -21 74 -7 82 -12
93 -34 80z"/>
<path d="M11395 2541 c-8 -15 3 -31 21 -31 9 0 14 7 12 17 -4 20 -24 28 -33
14z"/>
<path d="M7980 2525 c-10 -12 -7 -16 16 -25 34 -13 54 1 34 25 -16 19 -34 19
-50 0z"/>
<path d="M5144 2505 c-10 -26 3 -85 28 -121 29 -43 104 -83 167 -91 46 -5 52
-3 82 26 28 29 31 36 26 78 -6 52 -42 98 -70 87 -9 -3 -24 -29 -32 -57 -13
-45 -13 -53 0 -74 14 -21 14 -23 -2 -23 -33 0 -121 48 -139 75 -10 15 -20 46
-24 68 -5 42 -26 60 -36 32z m265 -117 c1 -11 -6 -18 -18 -18 -15 0 -18 5 -14
23 10 48 15 53 23 32 5 -11 9 -28 9 -37z"/>
<path d="M891 2496 c-13 -16 1 -66 19 -66 6 0 24 -10 41 -22 27 -20 29 -26 23
-65 -5 -33 -2 -49 16 -78 12 -19 31 -40 41 -46 27 -14 108 -2 141 22 23 16 31
17 48 7 11 -7 20 -18 20 -24 0 -16 68 -23 80 -9 10 12 -6 35 -23 35 -6 0 -29
12 -53 27 -32 21 -44 35 -49 61 -9 47 -70 112 -105 112 -16 0 -35 -7 -44 -15
-8 -8 -20 -15 -27 -15 -23 0 -81 43 -89 66 -11 27 -22 30 -39 10z m238 -117
c13 -17 21 -32 19 -34 -8 -8 -88 47 -83 56 12 18 42 8 64 -22z m14 -84 c23
-16 6 -30 -48 -38 -29 -5 -44 -2 -57 10 -20 18 -24 43 -7 43 7 0 9 10 7 25
l-5 25 46 -26 c25 -15 54 -33 64 -39z"/>
<path d="M6831 2464 c-23 -30 -26 -40 -11 -49 6 -3 10 -16 10 -29 0 -23 41
-68 73 -79 10 -4 27 -2 37 3 13 7 21 7 25 -1 14 -22 115 -79 140 -79 32 0 85
50 85 80 0 59 -69 145 -125 156 -21 4 -44 0 -64 -11 -31 -16 -33 -15 -62 10
-40 33 -81 33 -108 -1z m84 -30 c28 -18 34 -64 12 -83 -11 -8 -19 -5 -34 12
-27 29 -32 48 -21 70 11 21 13 21 43 1z m179 -25 c56 -44 71 -120 25 -134 -31
-10 -115 45 -112 73 2 12 -2 22 -7 22 -18 0 -10 29 12 44 30 21 50 20 82 -5z"/>
<path d="M11060 2483 c-1 -66 -10 -203 -15 -220 -6 -19 -3 -23 13 -23 26 0 30
13 38 110 l7 80 33 -25 c18 -14 54 -34 79 -45 43 -18 46 -22 43 -54 -2 -40 4
-51 27 -43 9 4 15 19 15 38 0 25 3 30 17 25 9 -4 42 -9 73 -13 51 -5 60 -3 80
17 29 29 12 50 -25 30 -20 -11 -37 -11 -87 -2 -67 13 -75 19 -84 75 -4 20 -12
37 -20 37 -16 0 -27 -34 -19 -61 6 -19 5 -20 -17 -8 -12 7 -48 30 -79 51 -54
37 -79 46 -79 31z"/>
<path d="M1800 2412 c0 -10 11 -29 24 -42 19 -17 24 -29 19 -51 -10 -51 5 -93
49 -137 22 -23 48 -42 57 -42 9 0 34 11 55 24 36 22 41 22 66 8 34 -20 62 -10
58 20 -2 17 -10 23 -28 23 -22 1 -25 5 -22 35 4 54 -16 99 -60 131 -46 33 -82
37 -117 13 -21 -15 -24 -15 -50 10 -32 30 -51 33 -51 8z m198 -67 c28 -23 50
-71 38 -83 -9 -8 -117 89 -110 99 10 16 42 9 72 -16z m-5 -113 c18 -20 18 -21
-13 -37 -32 -16 -33 -16 -60 10 -29 28 -43 78 -27 94 10 10 62 -25 100 -67z"/>
<path d="M8823 2414 c-8 -21 13 -42 28 -27 13 13 5 43 -11 43 -6 0 -13 -7 -17
-16z"/>
<path d="M7706 2385 c-27 -21 -34 -109 -11 -135 55 -60 142 -9 104 62 -10 19
-9 20 90 13 89 -7 101 -6 107 9 4 9 4 19 1 22 -3 3 -58 7 -124 10 -87 4 -121
9 -129 19 -14 18 -14 18 -38 0z m64 -112 c0 -14 -10 -16 -34 -7 -10 4 -16 18
-16 37 l0 30 25 -23 c14 -13 25 -29 25 -37z"/>
<path d="M2624 2375 c-7 -17 29 -70 56 -85 12 -6 20 -26 25 -59 11 -81 84
-134 149 -107 29 12 35 11 55 -5 34 -28 61 -25 61 6 0 17 -5 25 -18 25 -31 0
-43 20 -26 46 21 32 3 94 -37 128 -36 31 -54 32 -127 9 l-55 -18 -32 38 c-35
41 -43 44 -51 22z m236 -75 c26 -14 42 -66 28 -89 -10 -17 -16 -14 -69 28 -56
44 -57 46 -36 58 27 15 53 16 77 3z m-55 -100 c46 -40 46 -40 18 -40 -39 0
-73 26 -73 56 0 13 2 24 4 24 3 0 26 -18 51 -40z"/>
<path d="M3427 2353 c-21 -20 -4 -55 50 -98 55 -45 57 -48 54 -91 -2 -41 1
-49 38 -86 40 -39 43 -40 94 -35 48 5 57 2 112 -33 69 -44 95 -53 114 -41 20
13 6 57 -24 77 -26 17 -50 10 -41 -12 3 -8 -15 -1 -39 16 -25 17 -45 32 -45
33 0 1 4 17 9 34 12 42 -2 93 -35 133 -31 36 -73 40 -122 10 l-32 -20 -50 38
c-32 24 -49 45 -49 60 -1 21 -20 30 -34 15z m257 -132 c21 -23 35 -71 27 -93
-5 -13 -16 -7 -60 34 -52 48 -54 51 -36 64 26 19 49 18 69 -5z m-16 -133 c8
-17 -45 -7 -72 15 -22 18 -27 28 -21 46 6 21 8 21 48 -15 23 -21 44 -41 45
-46z"/>
<path d="M10526 2351 c-9 -14 4 -41 19 -41 18 0 26 15 19 34 -7 17 -29 21 -38
7z"/>
<path d="M8487 2323 c-12 -11 -8 -33 6 -33 6 0 32 -13 56 -29 36 -24 44 -35
47 -65 4 -50 28 -91 67 -115 42 -26 62 -26 107 -2 l35 18 50 -33 c60 -41 98
-45 93 -11 -2 12 -10 22 -18 22 -8 0 -34 11 -57 24 l-41 24 5 53 c7 63 -3 78
-62 105 -49 23 -108 24 -139 3 -23 -14 -27 -13 -74 15 -50 32 -64 36 -75 24z
m281 -83 c25 -15 32 -27 32 -50 0 -17 -5 -30 -13 -30 -9 0 -99 54 -126 76 -1
1 0 7 4 13 10 18 67 12 103 -9z m-58 -83 c25 -17 47 -32 50 -34 7 -6 -23 -23
-43 -23 -25 0 -77 54 -77 80 0 23 0 23 70 -23z"/>
<path d="M10317 2289 c-9 -6 -17 -18 -17 -28 0 -15 -10 -19 -51 -23 -28 -3
-57 -12 -66 -21 -14 -14 -12 -17 25 -36 23 -12 66 -41 96 -66 82 -67 103 -59
70 25 -9 23 -15 43 -13 45 2 2 41 -2 85 -7 88 -12 117 -7 112 18 -2 13 -17 17
-63 19 -33 2 -82 6 -108 10 -46 7 -48 9 -42 35 7 32 -3 43 -28 29z m4 -117 l9
-23 -30 21 c-36 25 -38 33 -9 28 12 -2 26 -13 30 -26z"/>
<path d="M5960 2265 c0 -17 74 -95 90 -95 6 0 6 -10 -1 -27 -28 -75 49 -153
151 -153 22 0 47 8 61 19 23 18 24 18 57 -7 30 -23 35 -24 49 -10 19 20 12 33
-31 53 -34 17 -46 38 -46 87 0 16 -13 42 -32 64 -29 33 -35 35 -72 29 -23 -3
-51 -13 -64 -21 -19 -13 -26 -13 -52 1 -16 8 -40 29 -52 45 -23 32 -58 40 -58
15z m274 -100 c9 -13 16 -34 16 -46 0 -20 -1 -20 -47 6 -66 38 -70 43 -42 54
39 16 56 13 73 -14z m1 -118 c0 -8 -16 -12 -48 -11 -60 0 -102 35 -92 76 l7
26 66 -39 c37 -22 67 -45 67 -52z"/>
<path d="M9717 2273 c-21 -21 7 -49 33 -33 11 7 11 11 1 24 -15 17 -24 20 -34
9z"/>
<path d="M12134 2205 c-7 -19 -14 -42 -14 -51 0 -14 -10 -16 -79 -12 -45 3
-87 10 -96 18 -14 11 -19 10 -37 -7 -21 -22 -17 -43 8 -43 8 0 27 -8 42 -17
47 -29 212 -165 212 -174 0 -11 27 -12 34 0 3 4 -3 32 -13 62 -25 72 -34 119
-24 120 4 0 58 10 118 22 96 19 110 25 110 42 0 23 3 23 -130 -4 -55 -11 -102
-18 -104 -15 -3 2 1 19 7 37 16 44 15 57 -4 57 -8 0 -22 -16 -30 -35z m-14
-112 c0 -5 4 -25 9 -45 l9 -38 -45 32 c-70 51 -73 58 -19 58 25 0 46 -3 46 -7z"/>
<path d="M4306 2214 c-8 -22 17 -60 54 -82 21 -13 26 -22 19 -32 -11 -18 -2
-66 18 -96 7 -12 31 -29 53 -39 37 -17 44 -17 96 -3 l55 16 40 -34 c44 -37 76
-43 86 -18 9 25 -11 49 -41 50 -39 1 -60 27 -61 74 -1 46 -29 81 -87 111 -46
23 -57 23 -88 0 -24 -19 -25 -19 -63 0 -21 11 -42 31 -47 44 -11 29 -25 32
-34 9z m224 -94 c38 -20 65 -51 58 -71 -2 -7 -82 39 -117 67 -4 3 8 24 15 24
3 0 22 -9 44 -20z m-35 -66 c30 -20 55 -40 55 -45 0 -4 -14 -10 -30 -14 -55
-12 -113 37 -96 81 7 19 9 19 71 -22z"/>
<path d="M6817 2203 c-20 -19 -4 -54 41 -90 43 -34 48 -41 39 -60 -11 -24 6
-69 42 -110 35 -42 108 -56 147 -29 18 13 25 11 67 -15 26 -16 47 -34 47 -39
0 -12 27 -13 34 -1 7 11 -16 61 -29 61 -5 0 -25 9 -43 20 -28 17 -32 23 -22
35 33 39 -1 146 -52 164 -31 11 -103 1 -141 -20 -14 -8 -27 -3 -58 21 -21 18
-39 40 -39 51 0 18 -20 26 -33 12z m262 -103 c12 0 31 -48 31 -80 0 -17 -5
-30 -11 -30 -15 0 -129 79 -129 89 0 11 70 30 88 25 8 -2 17 -4 21 -4z m-109
-75 c6 -8 32 -26 56 -40 47 -27 50 -45 8 -45 -36 0 -61 16 -79 50 -24 46 -14
70 15 35z"/>
<path d="M9416 2141 c-4 -5 -3 -16 0 -24 8 -22 240 -35 280 -15 33 15 40 46 9
38 -28 -6 -231 -3 -260 4 -13 3 -26 2 -29 -3z"/>
<path d="M11230 2130 c-15 -15 -20 -33 -20 -75 l0 -56 -27 15 c-16 8 -46 33
-68 55 -21 23 -45 41 -51 41 -8 0 -15 -23 -19 -57 -4 -32 -14 -73 -21 -92 -14
-34 -11 -51 9 -51 18 0 35 32 42 83 l7 45 44 -33 c45 -35 100 -53 114 -39 5 5
10 38 12 74 3 61 4 65 28 68 35 4 91 -36 107 -76 12 -29 11 -34 -7 -49 -11
-10 -20 -23 -20 -30 0 -18 35 -16 54 2 27 28 29 54 4 103 -38 77 -143 117
-188 72z"/>
<path d="M5183 2133 c-23 -8 -13 -38 20 -59 29 -19 32 -26 29 -60 -5 -53 30
-104 85 -123 38 -14 43 -13 78 7 l37 22 41 -30 c45 -33 60 -28 55 16 -2 21 -8
29 -23 29 -35 0 -45 14 -45 63 0 65 -28 109 -75 118 -41 7 -127 -3 -136 -17
-3 -5 -16 1 -30 14 -13 13 -30 22 -36 20z m221 -75 c15 -21 22 -68 11 -68 -15
0 -114 74 -109 81 3 5 23 9 44 9 29 0 43 -6 54 -22z m-69 -64 c30 -20 55 -41
55 -45 0 -14 -40 -30 -60 -24 -27 9 -60 53 -60 81 0 13 2 24 5 24 3 0 30 -16
60 -36z"/>
<path d="M7694 2106 c-8 -22 12 -52 51 -76 38 -23 41 -30 24 -47 -16 -16 -7
-78 11 -78 8 0 22 -11 31 -25 34 -52 56 -64 116 -62 31 1 63 8 71 14 10 9 18
9 34 -1 57 -35 90 -51 99 -46 18 11 9 36 -17 45 -59 23 -71 40 -66 96 4 50 3
53 -37 93 -46 46 -82 52 -156 26 -36 -13 -42 -12 -73 7 -18 11 -40 31 -49 44
-17 27 -31 31 -39 10z m290 -115 c19 -20 27 -37 24 -56 l-3 -27 -68 50 c-51
38 -63 52 -50 55 45 12 70 6 97 -22z m-66 -69 c34 -24 62 -48 62 -52 0 -15
-73 -16 -103 -2 -29 14 -47 47 -47 88 0 29 -2 29 88 -34z"/>
<path d="M9392 2028 c-19 -19 -16 -192 3 -208 20 -16 24 -4 27 83 l3 69 44
-41 c46 -42 78 -48 66 -12 -7 24 26 61 54 61 10 0 33 -10 52 -23 41 -27 53
-86 22 -109 -52 -39 -50 -98 2 -64 26 17 41 45 55 103 9 40 -14 78 -67 110
-57 34 -106 28 -143 -19 -15 -18 -17 -17 -55 21 -44 45 -46 46 -63 29z"/>
<path d="M10318 1974 c-17 -8 -28 -23 -28 -35 0 -19 -3 -18 -37 10 -57 47 -70
42 -78 -26 -3 -32 -11 -75 -17 -95 -13 -45 -4 -79 16 -57 20 21 36 76 36 121
l0 40 39 -31 c47 -37 71 -40 71 -8 0 13 6 31 13 42 34 45 157 -29 157 -95 0
-26 -3 -30 -13 -21 -17 14 -27 4 -27 -25 0 -32 10 -54 25 -54 23 0 55 51 55
87 0 60 -24 99 -82 132 -59 34 -89 38 -130 15z"/>
<path d="M8593 1908 c-2 -5 0 -15 5 -25 8 -14 27 -16 143 -14 126 2 164 10
157 33 -4 11 -298 16 -305 6z"/>
</g>
</svg>
