<?xml version="1.0" standalone="no"?>
<!DOCTYPE svg PUBLIC "-//W3C//DTD SVG 20010904//EN"
 "http://www.w3.org/TR/2001/REC-SVG-20010904/DTD/svg10.dtd">
<svg version="1.0" xmlns="http://www.w3.org/2000/svg"
 width="1872.000000pt" height="1404.000000pt" viewBox="0 0 1872.000000 1404.000000"
 preserveAspectRatio="xMidYMid meet">

<g transform="translate(0.000000,1404.000000) scale(0.100000,-0.100000)"
fill="#000000" stroke="none">
<path d="M12536 13263 c-71 -2 -135 -8 -142 -14 -12 -10 -6 -60 12 -92 14 -24
75 -67 96 -67 9 0 40 9 67 20 36 14 51 16 54 7 2 -7 2 -62 -1 -123 -6 -129 0
-164 28 -164 21 0 40 42 21 48 -13 4 -14 134 -2 197 l8 40 11 -28 c6 -15 27
-35 46 -44 31 -14 39 -15 72 -2 21 8 39 20 42 27 6 18 -28 27 -50 13 -27 -17
-54 -5 -78 35 -37 59 -75 68 -160 34 -64 -25 -62 -25 -99 9 -56 52 -45 61 77
62 143 1 196 9 200 32 3 14 -3 17 -35 15 -21 -1 -96 -4 -167 -5z"/>
<path d="M3525 13205 c-17 -14 -18 -17 -5 -26 12 -9 14 -28 9 -112 -4 -56 -12
-128 -19 -161 -8 -40 -9 -61 -2 -68 14 -14 45 -2 39 15 -2 6 1 44 7 82 l12 70
120 5 c97 4 119 8 119 20 0 12 -21 16 -119 18 l-118 3 5 62 c3 34 7 71 9 82 4
26 -30 32 -57 10z"/>
<path d="M14057 13203 c-15 -15 -6 -43 13 -43 11 0 20 6 20 14 0 17 -24 38
-33 29z"/>
<path d="M7766 13179 c-10 -51 -17 -169 -9 -169 4 0 40 -4 78 -7 39 -4 94 -6
123 -5 40 1 52 -2 52 -13 0 -8 7 -15 15 -15 12 0 15 -24 17 -132 3 -119 5
-133 21 -133 16 0 18 14 20 156 l2 157 -45 11 c-25 6 -65 10 -90 9 -25 -1 -70
1 -100 5 l-55 8 3 54 4 54 51 -7 c29 -4 84 -7 122 -7 56 0 70 3 70 15 0 11
-17 16 -70 21 -38 3 -100 9 -137 14 -65 7 -67 7 -72 -16z"/>
<path d="M5100 13155 c-9 -11 -10 -29 -1 -78 17 -101 15 -117 -14 -117 -60 0
-100 -95 -57 -132 48 -43 92 -30 111 34 7 24 20 51 29 61 15 17 15 20 1 30
-16 12 -35 124 -30 173 3 30 -22 49 -39 29z m4 -280 c-10 -32 -22 -39 -39 -25
-26 22 -19 45 15 45 25 0 29 -3 24 -20z"/>
<path d="M2453 13150 c-13 -5 -23 -14 -23 -20 0 -6 -10 -24 -22 -41 -20 -27
-26 -29 -65 -23 -33 5 -49 2 -78 -16 -19 -12 -40 -31 -46 -41 -14 -27 -2 -108
22 -141 16 -23 17 -31 7 -48 -7 -11 -18 -20 -24 -20 -15 0 -23 -67 -10 -80 11
-11 36 5 36 23 0 5 12 29 27 53 21 32 35 44 61 49 47 9 112 70 112 105 0 16
-7 35 -15 44 -8 8 -15 21 -15 28 0 21 49 88 65 88 21 0 28 19 15 35 -14 17
-16 17 -47 5z m-143 -141 c0 -7 10 -9 25 -7 l25 5 -26 -46 c-46 -78 -50 -83
-61 -69 -20 25 -24 91 -6 110 18 20 43 24 43 7z m100 -58 c0 -16 -57 -67 -65
-59 -2 2 7 23 21 46 25 42 44 48 44 13z"/>
<path d="M17223 13101 c-22 -52 -30 -60 -59 -65 -34 -7 -64 -39 -84 -90 -7
-20 -6 -35 7 -61 15 -32 15 -38 1 -68 -17 -36 -10 -64 14 -54 8 2 19 22 26 44
11 36 14 38 51 38 91 0 142 120 74 172 -13 10 -14 15 -3 27 15 19 30 84 23
102 -10 27 -25 14 -50 -45z m-74 -159 c-13 -20 -23 -38 -25 -40 -1 -2 -4 3 -7
11 -7 19 30 80 43 72 7 -4 2 -21 -11 -43z m95 -6 c-9 -30 -25 -44 -59 -52 -29
-7 -29 -7 -14 17 9 13 24 39 34 58 17 33 18 34 31 16 8 -10 11 -28 8 -39z"/>
<path d="M17445 13138 c-2 -7 -9 -35 -14 -63 -5 -27 -19 -81 -31 -120 -24 -80
-23 -118 3 -123 13 -3 17 3 17 27 0 16 12 67 26 112 29 92 36 169 17 176 -7 3
-15 -1 -18 -9z"/>
<path d="M15400 13105 c-17 -18 -34 -25 -62 -25 -49 0 -86 -19 -127 -65 -33
-38 -39 -75 -20 -118 10 -23 6 -31 -45 -91 -57 -68 -67 -94 -41 -116 19 -15
38 -3 32 21 -4 13 10 36 44 73 48 53 50 54 84 43 46 -14 103 4 151 45 34 30
35 34 30 82 -9 81 -11 90 -19 103 -4 7 0 14 13 18 13 4 20 15 20 31 0 32 -29
32 -60 -1z m-77 -78 c15 9 -19 -44 -60 -92 l-32 -38 -6 26 c-4 14 -4 35 0 46
8 25 78 76 83 61 2 -6 9 -7 15 -3z m81 -43 c20 -52 -21 -107 -89 -120 -57 -10
-57 3 -2 71 52 64 79 79 91 49z"/>
<path d="M16480 13091 c-20 -33 -28 -39 -49 -35 -20 4 -36 -5 -74 -40 -48 -44
-49 -45 -45 -98 2 -46 -2 -63 -30 -117 -24 -43 -32 -70 -28 -87 6 -22 35 -35
37 -16 0 4 2 16 3 28 1 12 15 42 30 68 25 44 29 46 71 46 34 0 53 7 87 33 51
39 60 75 29 118 -26 35 -26 35 4 75 14 18 25 40 25 48 0 30 -35 16 -60 -23z
m-94 -147 c-36 -47 -36 -47 -36 -17 0 32 14 55 45 71 33 17 29 -4 -9 -54z
m100 -11 c-7 -22 -66 -58 -84 -52 -6 2 5 25 25 52 31 42 38 47 50 34 9 -9 12
-23 9 -34z"/>
<path d="M2587 13113 c-13 -12 -7 -33 9 -33 18 0 18 -20 -2 -197 -6 -54 -4
-63 11 -69 17 -7 38 13 29 28 -4 6 0 50 21 236 5 42 5 42 -29 42 -18 0 -36 -3
-39 -7z"/>
<path d="M17623 13100 c-40 -24 -65 -62 -57 -84 7 -19 54 -46 80 -46 11 0 14
-5 10 -16 -15 -39 -26 -152 -19 -188 8 -37 35 -67 48 -54 4 3 1 25 -5 48 -16
59 6 192 44 265 15 29 12 49 -12 78 -20 22 -49 22 -89 -3z m67 -32 c0 -28 -41
-61 -64 -52 -24 9 -20 27 12 46 32 21 52 23 52 6z"/>
<path d="M11443 13089 c-18 -12 -33 -27 -33 -34 0 -22 27 -25 51 -4 28 24 59
25 59 1 0 -10 -17 -46 -37 -80 -36 -58 -50 -76 -108 -132 -29 -28 -32 -48 -9
-57 9 -3 26 5 43 21 26 25 29 26 57 11 49 -26 98 -20 128 16 14 17 26 35 26
40 0 14 -39 49 -55 49 -18 0 -20 -21 -4 -37 7 -7 9 -19 6 -27 -8 -19 -65 -21
-89 -3 -15 12 -12 19 28 81 48 76 62 123 45 155 -15 28 -65 28 -108 0z"/>
<path d="M11700 13095 c0 -8 5 -15 11 -15 8 0 10 -37 7 -130 -4 -99 -2 -133 8
-141 7 -6 17 -8 22 -5 5 3 10 73 11 156 l2 150 -30 0 c-21 0 -31 -5 -31 -15z"/>
<path d="M16905 13084 c-41 -21 -59 -40 -51 -53 11 -17 41 -13 61 9 19 21 59
27 69 11 13 -20 -56 -81 -176 -155 -30 -18 -38 -46 -13 -46 9 0 29 7 45 15 27
14 29 14 35 -5 4 -11 17 -27 30 -36 42 -27 159 16 127 48 -9 9 -17 9 -34 0
-51 -25 -66 -24 -84 4 -17 25 -17 27 0 40 44 32 98 88 107 111 23 60 -46 94
-116 57z"/>
<path d="M6845 13069 c-19 -19 -19 -21 -2 -33 14 -11 17 -29 17 -110 0 -98 10
-136 34 -136 19 0 29 30 15 46 -6 8 -10 56 -8 131 2 110 1 118 -17 120 -10 1
-28 -7 -39 -18z"/>
<path d="M7013 13074 c-3 -9 0 -20 7 -24 10 -6 12 -36 8 -126 -5 -135 -4 -144
23 -144 22 0 35 23 23 41 -4 7 -6 70 -5 141 l2 128 -26 0 c-14 0 -28 -7 -32
-16z"/>
<path d="M16215 13075 c-27 -7 -76 -14 -108 -14 -50 -1 -58 -4 -55 -18 2 -14
16 -19 58 -23 53 -5 54 -5 27 -17 -35 -16 -34 -28 3 -60 17 -13 30 -33 30 -42
0 -16 -29 -49 -57 -65 -18 -10 -53 12 -53 33 0 23 -35 34 -51 15 -17 -20 14
-62 58 -81 44 -18 81 -6 118 39 31 36 32 77 4 107 -12 12 -19 23 -18 25 92 57
120 79 117 93 -4 22 -14 23 -73 8z"/>
<path d="M13747 13069 c-21 -12 -47 -61 -47 -88 0 -26 38 -52 65 -45 22 5 22
3 28 -153 2 -87 8 -166 12 -175 11 -28 32 -21 52 18 18 37 43 54 98 71 17 4
30 15 30 23 0 21 -59 15 -108 -10 -21 -11 -39 -20 -41 -20 -2 0 -6 71 -8 158
-5 133 -3 161 11 185 14 25 14 29 1 37 -20 13 -70 12 -93 -1z m23 -74 c-7 -8
-16 -15 -21 -15 -15 0 -10 22 9 43 15 17 17 17 20 3 2 -9 -2 -23 -8 -31z"/>
<path d="M15615 13058 c-94 -52 -160 -213 -107 -261 48 -44 152 16 152 87 0
22 -43 30 -89 18 -45 -11 -46 -4 -5 57 32 48 70 70 109 64 24 -4 34 -1 39 12
3 9 4 21 0 26 -7 12 -75 11 -99 -3z m-21 -219 c-9 -10 -25 -19 -36 -19 -16 0
-16 3 -6 20 13 20 36 30 51 22 5 -2 1 -13 -9 -23z"/>
<path d="M13990 13040 c-12 -7 -12 -12 -2 -22 6 -6 12 -24 12 -39 0 -42 61
-89 97 -75 24 10 13 33 -19 42 -38 11 -52 51 -23 66 13 8 14 13 4 24 -13 16
-47 18 -69 4z"/>
<path d="M9252 12979 c-42 -31 -50 -43 -33 -53 4 -3 11 -48 14 -100 5 -97 17
-136 42 -136 20 0 29 19 16 34 -6 7 -13 38 -17 69 l-7 57 39 0 c22 0 57 10 79
23 53 30 58 65 16 107 -41 41 -92 41 -149 -1z m122 -25 c9 -8 16 -19 16 -24 0
-15 -56 -40 -90 -40 -35 0 -39 17 -14 55 19 29 64 34 88 9z"/>
<path d="M9558 12981 c-34 -31 -46 -87 -25 -115 23 -31 113 -28 138 3 39 48 9
124 -52 133 -25 4 -39 -1 -61 -21z m92 -61 c0 -25 -21 -38 -53 -35 -38 4 -42
10 -29 39 18 41 82 38 82 -4z"/>
<path d="M5256 12948 c-37 -32 -43 -76 -16 -111 26 -32 58 -35 93 -7 25 20 26
20 32 0 9 -28 53 -60 82 -60 28 0 93 59 93 84 0 25 -23 19 -55 -14 -16 -16
-34 -30 -41 -30 -20 0 -54 50 -67 98 -17 64 -73 82 -121 40z m67 -57 c-16 -44
-47 -55 -58 -21 -9 28 10 48 39 43 18 -4 23 -10 19 -22z"/>
<path d="M15727 12843 c-13 -13 -7 -31 13 -36 21 -5 45 16 35 33 -7 11 -38 14
-48 3z"/>
<path d="M16571 12841 c-21 -13 -4 -31 30 -31 24 0 30 4 27 18 -4 19 -36 27
-57 13z"/>
<path d="M7147 12825 c-4 -8 -2 -17 4 -20 15 -10 49 5 49 21 0 19 -46 18 -53
-1z"/>
<path d="M11814 12825 c-7 -18 3 -35 22 -35 20 0 30 30 13 41 -20 12 -29 11
-35 -6z"/>
<path d="M2754 12805 c-7 -17 10 -35 34 -35 20 0 10 44 -11 48 -9 2 -20 -4
-23 -13z"/>
<path d="M7833 12423 c-4 -9 -2 -18 4 -20 5 -2 8 -26 5 -56 -4 -51 -3 -53 42
-95 49 -46 63 -85 53 -148 -7 -43 -18 -56 -82 -104 -72 -53 -90 -98 -79 -191
5 -40 14 -74 21 -76 17 -6 55 35 51 55 -2 9 -10 17 -18 17 -25 0 -25 69 1 115
13 22 29 40 36 40 7 0 31 16 53 36 41 37 60 82 60 143 0 40 -20 111 -31 111
-4 0 -21 14 -38 31 -37 36 -41 79 -10 110 28 28 18 49 -26 49 -24 0 -38 -5
-42 -17z"/>
<path d="M12437 12385 c-40 -21 -107 -75 -107 -86 0 -26 34 -17 81 20 l51 41
27 -19 c14 -10 42 -28 62 -39 l36 -20 43 25 c23 14 46 21 50 17 5 -5 6 -87 2
-183 -6 -139 -4 -175 6 -179 7 -2 17 -1 22 4 4 5 10 94 12 197 l3 189 35 -40
c44 -50 78 -69 86 -48 6 16 -73 102 -113 123 -27 14 -59 2 -112 -38 -32 -26
-41 -24 -94 16 -52 40 -52 40 -90 20z"/>
<path d="M3454 12348 c-5 -7 -7 -61 -5 -120 l2 -107 -53 -3 c-39 -2 -53 -7
-53 -18 0 -11 13 -16 48 -18 l48 -3 -3 -97 c-3 -91 -2 -97 17 -97 17 0 20 7
20 45 1 25 2 68 3 97 l2 52 42 3 c31 2 44 8 46 21 3 14 -4 17 -38 17 l-41 0 2
109 c1 60 -2 114 -5 120 -9 15 -23 14 -32 -1z"/>
<path d="M11690 12282 c-34 -16 -70 -45 -70 -58 0 -20 24 -17 62 6 36 22 88
27 88 8 0 -27 -73 -138 -120 -182 -43 -41 -55 -47 -79 -41 -17 3 -32 2 -36 -4
-10 -17 -43 -13 -65 9 -11 11 -24 20 -30 20 -5 0 6 26 25 58 19 32 38 78 41
103 6 42 4 46 -20 57 -20 9 -33 9 -49 1 -32 -17 -87 -71 -87 -86 0 -23 36 -14
63 17 26 28 57 40 57 21 0 -46 -72 -159 -116 -181 -17 -9 -43 -25 -59 -37 -25
-18 -27 -23 -16 -36 11 -15 16 -14 49 7 56 35 87 37 137 9 42 -23 45 -23 74
-8 18 9 31 11 31 5 0 -19 29 -10 75 26 l47 36 37 -36 c44 -43 57 -44 94 -10
36 33 23 53 -22 34 -28 -11 -32 -10 -54 15 l-23 28 43 76 c47 83 54 124 24
141 -22 11 -78 12 -101 2z"/>
<path d="M14007 12252 c-13 -20 -40 -72 -60 -116 -20 -43 -51 -98 -67 -123
-34 -50 -32 -63 11 -63 24 0 30 4 27 18 -2 9 29 81 69 160 40 78 73 144 73
146 0 2 -7 6 -15 10 -10 3 -23 -7 -38 -32z"/>
<path d="M14206 12245 c-15 -16 -26 -32 -26 -37 0 -5 -25 -53 -55 -106 -51
-88 -61 -122 -37 -122 5 0 21 18 35 39 23 34 33 41 73 47 53 8 64 -1 64 -53 0
-36 25 -47 37 -17 9 24 -41 251 -59 270 -4 3 -18 -6 -32 -21z m34 -121 c0 -7
-15 -14 -34 -16 l-34 -4 22 42 21 43 12 -27 c7 -15 12 -32 13 -38z"/>
<path d="M2370 12216 c-17 -19 -29 -24 -51 -19 -51 10 -93 -5 -137 -49 -23
-22 -42 -48 -42 -57 0 -9 11 -34 24 -55 22 -36 22 -41 8 -66 -20 -34 -10 -62
20 -58 17 2 23 10 23 28 1 22 5 25 35 22 54 -4 99 16 131 60 33 46 37 82 13
117 -15 21 -15 24 10 50 14 15 26 32 26 39 0 21 -35 13 -60 -12z m-89 -115
c-16 -20 -38 -44 -49 -54 -20 -18 -21 -18 -37 13 -16 32 -16 33 11 61 28 29
70 41 91 26 10 -7 6 -18 -16 -46z m89 -11 c0 -39 -86 -108 -108 -86 -8 9 89
117 99 110 5 -3 9 -14 9 -24z"/>
<path d="M6979 12191 c-43 -43 -47 -56 -22 -65 11 -5 22 -1 30 11 34 50 83 72
83 38 0 -30 -61 -135 -88 -152 -35 -22 -83 -75 -79 -88 7 -21 40 -16 66 9 l27
26 29 -30 c16 -16 32 -30 36 -30 15 0 69 52 69 66 0 22 -36 17 -52 -7 l-14
-22 -18 28 c-15 22 -16 32 -7 44 22 31 71 136 71 154 0 38 -19 57 -57 57 -28
0 -44 -8 -74 -39z"/>
<path d="M7646 12206 c-20 -31 -20 -46 -1 -46 11 0 13 -12 9 -62 -4 -46 -2
-68 9 -82 18 -24 41 -12 33 18 -5 20 -2 21 42 18 26 -2 67 1 91 7 29 6 51 6
63 0 25 -13 37 17 15 38 -13 14 -24 14 -76 4 -53 -10 -63 -10 -77 3 -8 9 -24
16 -34 16 -16 0 -19 9 -22 52 -3 61 -25 75 -52 34z"/>
<path d="M2620 12211 c-30 -12 -90 -64 -90 -78 0 -28 27 -23 65 13 36 33 40
35 51 19 19 -26 -5 -75 -74 -152 -112 -126 -116 -131 -103 -147 17 -20 42 -4
78 47 14 20 29 37 34 37 5 0 13 -18 19 -40 15 -56 43 -68 103 -45 47 18 67 42
43 51 -8 3 -30 -2 -51 -10 -40 -17 -55 -14 -55 10 0 8 -7 28 -15 45 -15 28
-15 31 15 68 37 46 59 103 52 137 -5 28 -49 55 -72 45z"/>
<path d="M6810 12205 c-10 -12 -9 -16 5 -21 16 -6 17 -16 10 -93 -12 -135 -12
-145 6 -149 13 -2 18 13 27 80 7 46 12 109 12 141 0 53 -1 57 -24 57 -13 0
-29 -7 -36 -15z"/>
<path d="M13803 12213 c-8 -3 -10 -20 -7 -51 3 -26 2 -58 -3 -71 -9 -23 -11
-22 -58 38 -27 34 -53 60 -59 58 -17 -6 -30 -178 -14 -188 19 -12 28 -1 29 34
0 18 4 41 8 52 7 18 9 17 26 -8 21 -33 66 -59 83 -48 17 10 32 67 32 122 0 46
-14 70 -37 62z"/>
<path d="M9215 12173 c-25 -6 -43 -21 -56 -44 -7 -14 0 -28 31 -64 54 -63 53
-79 -4 -71 -52 8 -68 -6 -39 -36 18 -17 24 -18 66 -7 62 15 73 30 56 71 -7 18
-26 47 -42 65 l-29 33 26 12 c20 9 29 9 38 0 18 -18 38 -14 38 8 0 31 -35 45
-85 33z"/>
<path d="M9466 12171 c-4 -6 -4 -15 -1 -21 3 -5 2 -10 -4 -10 -14 0 -38 -38
-46 -71 -5 -21 0 -33 24 -58 40 -41 71 -40 121 6 38 34 41 40 38 82 -3 39 -7
48 -31 59 -40 19 -93 26 -101 13z m78 -47 c24 -9 19 -52 -9 -79 -28 -29 -42
-31 -67 -8 -25 22 -23 30 14 64 35 31 38 32 62 23z"/>
<path d="M4883 12118 c-5 -8 -7 -56 -4 -113 6 -91 8 -100 26 -100 17 0 21 9
28 70 5 45 15 77 26 88 18 18 19 18 53 -12 34 -30 78 -42 78 -21 0 10 -97 90
-108 89 -4 0 -16 -4 -27 -8 -12 -5 -25 -3 -33 6 -17 16 -27 17 -39 1z"/>
<path d="M5163 12114 c-3 -8 -3 -18 0 -21 4 -3 -5 -19 -18 -35 -39 -47 -28
-110 26 -138 28 -16 106 20 119 55 26 68 3 107 -78 138 -38 14 -44 14 -49 1z
m78 -54 c32 -18 25 -64 -13 -88 -30 -19 -34 -20 -50 -5 -25 23 -22 50 8 78 31
29 29 28 55 15z"/>
<path d="M11944 12005 c-4 -8 -3 -22 0 -31 6 -15 8 -15 26 1 20 18 17 45 -6
45 -8 0 -17 -7 -20 -15z"/>
<path d="M7240 11990 c-12 -23 -6 -40 15 -40 13 0 25 21 25 46 0 21 -28 17
-40 -6z"/>
<path d="M2744 11869 c-3 -6 0 -17 8 -25 13 -13 16 -13 27 0 7 8 10 20 6 26
-8 13 -32 13 -41 -1z"/>
<path d="M12235 11583 c-41 -6 -59 -22 -44 -39 6 -8 18 -14 25 -14 7 0 22 -17
33 -38 11 -21 38 -55 60 -75 45 -41 82 -47 118 -22 21 15 23 14 29 -10 7 -27
5 -39 -21 -162 -18 -85 -16 -116 8 -107 17 6 51 161 51 239 l1 60 58 0 57 1 0
-31 c0 -34 24 -75 45 -75 19 0 25 22 10 40 -7 8 -16 36 -19 61 -7 45 -5 48 30
77 23 19 35 36 31 45 -9 24 -42 9 -86 -39 -39 -43 -42 -44 -96 -42 -36 2 -55
7 -55 16 0 6 -8 12 -18 12 -10 0 -28 14 -41 30 -12 17 -40 41 -61 55 -39 24
-53 27 -115 18z m99 -54 c38 -22 81 -82 71 -99 -12 -20 -41 -9 -77 28 -32 34
-58 72 -58 86 0 12 30 5 64 -15z"/>
<path d="M3437 11537 c-13 -20 -13 -26 -1 -42 8 -10 14 -29 14 -41 0 -20 -6
-23 -47 -26 -35 -2 -48 -7 -48 -18 0 -11 13 -16 48 -18 46 -3 47 -4 47 -37 0
-32 -2 -34 -37 -37 -27 -2 -39 -8 -41 -20 -3 -15 4 -18 38 -18 35 0 41 -3 36
-17 -3 -10 -8 -50 -12 -89 -5 -60 -4 -72 10 -77 21 -8 23 -3 31 84 4 42 10 81
14 87 4 6 25 13 46 14 32 3 40 7 40 23 0 17 -6 20 -42 17 -43 -2 -43 -2 -43
32 0 40 15 46 85 38 42 -4 47 -3 43 14 -2 13 -16 21 -48 26 -25 4 -52 5 -61 3
-13 -5 -18 4 -23 42 -13 90 -22 101 -49 60z"/>
<path d="M8006 11519 c-36 -10 -66 -37 -66 -61 0 -24 32 -23 48 2 12 19 42 28
42 13 0 -17 -59 -109 -84 -132 -34 -32 -36 -67 -3 -55 12 4 45 8 72 9 28 1 76
5 108 9 47 6 58 11 55 24 -3 13 -13 17 -38 15 -19 -1 -54 -3 -78 -4 -53 -3
-59 3 -35 38 64 94 54 163 -21 142z"/>
<path d="M7665 11474 c-12 -12 -13 -19 -5 -29 6 -8 10 -40 8 -74 -4 -80 5 -88
83 -75 l60 10 -7 -65 c-3 -36 -12 -100 -18 -142 -7 -42 -10 -81 -8 -87 6 -18
22 -14 43 11 19 22 26 57 11 57 -7 0 0 64 29 266 12 81 15 91 32 86 29 -7 18
29 -13 45 -38 19 -194 17 -215 -3z m161 -48 c12 -50 2 -69 -46 -83 -63 -18
-70 -13 -70 52 l0 55 55 0 c49 0 55 -2 61 -24z"/>
<path d="M2514 11428 c-10 -15 6 -26 48 -33 l42 -7 -22 -18 c-33 -27 -27 -39
27 -62 59 -24 69 -43 40 -74 -31 -33 -55 -38 -95 -19 -19 9 -39 13 -44 10 -38
-24 43 -71 103 -60 40 8 97 63 97 94 0 24 -35 68 -60 76 -28 9 -25 17 15 43
35 22 47 51 23 54 -45 5 -170 2 -174 -4z"/>
<path d="M2311 11381 c-30 -30 -51 -41 -84 -46 -77 -12 -129 -86 -103 -149 12
-29 11 -35 -5 -55 -28 -34 -25 -61 6 -61 17 0 25 5 25 18 0 31 20 43 46 26 32
-21 94 -3 128 37 31 36 32 54 9 127 l-18 55 39 33 c36 31 41 54 10 54 -8 0
-32 -18 -53 -39z m-71 -95 c0 -3 -18 -26 -40 -51 -40 -46 -40 -46 -40 -18 0
39 26 73 56 73 13 0 24 -2 24 -4z m66 -91 c-9 -34 -66 -61 -95 -44 -17 11 -15
16 28 70 l46 58 14 -28 c8 -17 11 -40 7 -56z"/>
<path d="M7017 11394 c-18 -18 -4 -33 38 -39 l44 -7 -44 -58 c-25 -32 -45 -61
-45 -63 0 -14 36 -15 67 -2 19 8 39 12 44 9 23 -14 0 -94 -36 -124 -13 -11
-20 -10 -46 9 -17 13 -37 20 -45 17 -22 -9 0 -43 40 -63 46 -21 84 -3 114 57
30 61 30 115 -3 136 -14 9 -32 13 -42 10 -10 -4 2 13 26 38 53 54 51 76 -7 76
-22 0 -52 3 -68 6 -16 3 -32 2 -37 -2z"/>
<path d="M6851 11357 c-6 -6 -11 -34 -11 -61 0 -28 -5 -80 -11 -116 -13 -82
-7 -110 26 -110 25 0 33 18 15 36 -5 5 -6 36 0 79 16 132 18 174 5 179 -7 2
-18 -1 -24 -7z"/>
<path d="M11288 11350 c-37 -20 -55 -50 -43 -71 5 -7 14 -4 29 9 40 36 67 46
83 29 14 -13 13 -20 -8 -63 -23 -47 -62 -91 -142 -163 -21 -18 -36 -39 -34
-45 7 -21 34 -17 65 9 16 14 32 25 36 25 3 0 12 -13 21 -30 12 -23 22 -30 44
-30 16 0 34 7 42 16 7 8 25 22 41 30 31 16 37 41 12 51 -9 3 -28 -6 -48 -26
-40 -39 -50 -39 -66 0 -12 27 -11 33 8 57 78 99 96 169 52 203 -31 23 -46 23
-92 -1z"/>
<path d="M11561 11361 c-38 -7 -49 -22 -28 -40 11 -8 22 -9 41 -1 15 5 39 10
54 10 26 0 25 -2 -20 -41 -65 -55 -64 -73 2 -64 61 8 83 -4 74 -44 -8 -33 -52
-71 -82 -71 -13 0 -37 14 -54 30 -17 17 -35 29 -41 27 -23 -7 -17 -29 16 -62
28 -28 43 -35 73 -35 48 0 112 42 120 79 3 14 8 32 10 39 9 30 -8 60 -43 73
l-35 14 41 30 c59 43 51 60 -29 61 -36 1 -80 -1 -99 -5z"/>
<path d="M4847 11322 c-10 -10 -17 -23 -17 -28 0 -5 -9 -15 -21 -22 -17 -11
-20 -20 -15 -45 4 -18 8 -90 9 -161 1 -89 6 -130 14 -133 22 -8 33 35 35 136
2 95 4 101 23 101 27 0 71 46 80 82 6 22 1 33 -23 58 -35 34 -62 38 -85 12z
m57 -38 c21 -20 20 -30 -4 -54 -32 -32 -51 -26 -43 13 5 28 20 57 29 57 1 0
10 -7 18 -16z"/>
<path d="M5166 11311 c-3 -5 -15 -7 -26 -4 -25 7 -63 -34 -77 -82 -10 -32 -9
-39 9 -57 22 -22 67 -18 81 9 8 12 11 12 24 -6 10 -15 25 -21 52 -21 40 0 61
14 61 41 0 26 -21 35 -35 16 -31 -42 -68 1 -63 71 3 33 -13 54 -26 33z m-33
-98 c-3 -6 -11 -14 -19 -17 -17 -7 -18 17 -2 47 11 21 11 21 18 2 4 -11 5 -25
3 -32z"/>
<path d="M14226 11298 c-3 -7 -7 -35 -11 -63 -8 -60 -28 -95 -55 -95 -27 0
-34 37 -21 100 14 64 14 60 -8 60 -30 0 -52 -11 -44 -23 3 -6 7 -41 8 -78 0
-37 6 -74 13 -82 19 -23 59 -26 90 -6 27 15 31 16 45 2 19 -20 57 -11 92 21
27 25 33 56 11 56 -7 0 -25 -11 -40 -25 -33 -31 -34 -31 -46 0 -6 16 -6 33 1
48 7 15 7 36 2 57 -9 35 -30 51 -37 28z"/>
<path d="M13927 11271 c-32 -29 -34 -29 -45 -10 -16 25 -48 24 -75 -3 -13 -13
-28 -23 -35 -24 -7 -1 -16 -2 -20 -2 -5 -1 -9 -34 -10 -72 -2 -56 1 -72 13
-77 21 -8 23 -5 41 63 25 96 71 131 59 44 -6 -42 -4 -50 9 -50 9 0 26 17 40
38 13 20 33 46 46 57 l22 20 -7 -66 c-6 -54 -4 -68 10 -82 18 -19 25 -20 49
-11 23 9 20 34 -5 34 -19 0 -20 4 -13 70 10 103 -16 126 -79 71z"/>
<path d="M9389 11261 c-62 -62 -22 -171 57 -158 78 13 170 94 134 118 -11 6
-22 1 -40 -20 -26 -30 -78 -61 -103 -61 -7 0 -18 5 -25 12 -9 9 -2 16 28 29
51 23 64 63 30 91 -31 25 -47 23 -81 -11z m61 -21 c0 -9 -32 -30 -46 -30 -4 0
1 9 11 20 19 21 35 26 35 10z"/>
<path d="M9140 11265 c-8 -9 -22 -12 -41 -8 -21 4 -29 2 -30 -8 -5 -135 -3
-189 8 -193 16 -6 19 -1 43 76 11 35 26 72 34 83 22 30 41 5 40 -51 -1 -60 23
-56 53 9 13 26 25 47 28 47 3 0 3 -27 -1 -59 -6 -54 -4 -60 15 -71 17 -9 26
-9 37 1 19 15 18 29 -2 29 -13 0 -15 8 -9 49 11 79 -22 115 -68 74 -18 -17
-20 -17 -39 10 -22 30 -49 35 -68 12z"/>
<path d="M2727 11216 c-7 -18 1 -26 25 -26 13 0 18 6 16 17 -4 22 -34 29 -41
9z"/>
<path d="M7222 11128 c-16 -22 -23 -56 -12 -63 5 -3 19 -3 30 0 15 5 20 15 20
41 0 35 -18 46 -38 22z"/>
<path d="M11807 11086 c-7 -21 6 -47 22 -44 24 5 26 44 2 51 -11 3 -22 0 -24
-7z"/>
<path d="M3404 10748 c-4 -7 -7 -30 -5 -52 2 -43 -9 -56 -51 -56 -44 0 -78
-17 -72 -35 5 -13 16 -15 53 -10 25 4 54 9 64 12 13 3 17 -2 17 -26 0 -30 -2
-31 -44 -31 -57 0 -76 -8 -76 -31 0 -17 6 -18 60 -12 59 6 60 5 60 -19 0 -23
-6 -26 -52 -34 -37 -6 -53 -14 -53 -24 0 -12 12 -15 53 -13 l52 2 0 -67 c0
-69 11 -95 36 -85 11 4 12 21 7 77 l-6 73 57 7 c31 3 67 4 80 0 32 -8 45 15
20 33 -14 11 -36 13 -87 8 l-68 -6 3 28 c3 27 4 28 71 30 74 1 82 4 74 28 -5
11 -23 15 -77 15 -68 0 -70 1 -70 25 0 22 6 26 60 37 48 10 60 16 60 31 0 20
-19 20 -102 1 -28 -6 -28 -6 -28 50 0 42 -4 56 -14 56 -8 0 -18 -5 -22 -12z"/>
<path d="M7767 10734 c-3 -3 -3 -21 0 -39 5 -30 2 -35 -26 -49 -17 -9 -31 -21
-31 -26 0 -6 -6 -10 -14 -10 -7 0 -19 -7 -26 -15 -15 -19 3 -107 31 -147 25
-36 27 -89 5 -175 -22 -87 -18 -108 18 -92 33 15 53 63 36 84 -10 12 -10 24
-2 53 12 44 1 130 -18 142 -11 7 -11 11 0 25 10 12 10 19 2 27 -16 16 -15 73
1 86 7 6 25 15 40 21 24 9 27 8 33 -16 10 -38 -7 -77 -34 -81 -19 -3 -23 -9
-20 -30 3 -26 5 -27 52 -23 27 1 67 9 87 17 24 8 41 9 44 3 9 -14 25 -1 25 21
0 26 -30 33 -78 16 l-40 -15 5 53 c5 45 2 55 -21 83 -16 19 -26 43 -26 62 0
23 -4 31 -18 31 -10 0 -21 -3 -25 -6z"/>
<path d="M12451 10704 c-12 -15 -21 -36 -21 -48 -2 -109 -9 -139 -37 -162 -29
-24 -71 -39 -81 -29 -8 7 21 181 29 175 11 -9 38 21 32 36 -5 15 -68 19 -110
8 -30 -8 -29 -32 2 -44 29 -11 29 -11 13 -99 -14 -78 -11 -73 -30 -66 -9 4
-15 18 -15 32 0 14 -5 28 -10 32 -5 3 -12 14 -16 24 -4 9 -18 22 -32 27 -18 7
-25 17 -25 38 0 40 -26 72 -58 72 -36 0 -56 -14 -49 -34 5 -12 14 -14 37 -10
28 6 30 5 30 -25 0 -17 -5 -31 -11 -31 -17 0 0 -82 23 -107 11 -12 49 -32 84
-44 l64 -23 0 -63 c0 -48 4 -65 15 -70 25 -9 30 4 27 67 -3 58 -3 58 29 65 35
8 100 49 113 72 4 9 11 50 13 92 4 50 10 79 19 84 19 11 18 57 0 57 -8 0 -24
-12 -35 -26z m-268 -184 c3 -11 3 -20 -1 -20 -12 0 -42 34 -42 47 0 21 36 -2
43 -27z"/>
<path d="M2550 10594 c-50 -67 -110 -170 -110 -190 0 -15 18 -14 95 1 20 4 21
2 12 -76 -9 -83 -3 -107 25 -96 10 3 15 26 16 77 1 85 8 111 27 104 8 -3 19
-3 24 0 15 9 2 34 -20 41 -16 5 -19 16 -19 61 0 40 4 54 14 54 21 0 31 21 15
31 -8 4 -14 16 -14 25 0 35 -23 23 -65 -32z m8 -139 c-2 -2 -16 -7 -32 -11
l-29 -7 29 53 29 54 3 -43 c2 -24 2 -44 0 -46z"/>
<path d="M9139 10608 c-7 -14 -9 -49 -4 -104 l7 -83 -26 -7 c-32 -8 -65 -53
-73 -97 -4 -30 -1 -37 25 -56 34 -24 74 -27 90 -8 24 28 32 106 22 198 -9 79
-8 93 5 103 13 9 13 15 3 38 -17 36 -35 42 -49 16z m6 -270 c-4 -24 -11 -47
-15 -51 -10 -12 -50 10 -50 27 0 20 39 66 57 66 12 0 13 -8 8 -42z"/>
<path d="M2255 10564 c-45 -56 -48 -58 -91 -55 -41 2 -49 -1 -86 -38 -39 -40
-40 -43 -35 -94 5 -48 2 -57 -33 -112 -44 -69 -53 -95 -41 -114 13 -20 57 -6
77 24 17 26 10 50 -12 41 -8 -3 -1 15 16 39 17 25 32 45 33 45 1 0 17 -4 34
-9 42 -12 93 2 133 35 36 31 40 73 10 122 l-20 32 38 50 c25 33 45 49 60 49
34 1 25 35 -10 39 -21 3 -34 -7 -73 -54z m-101 -100 c13 -5 10 -14 -21 -48
-20 -22 -40 -42 -45 -44 -16 -7 -7 41 13 69 21 30 27 33 53 23z m80 -57 c12
-33 -12 -63 -58 -75 -65 -18 -70 -4 -18 54 26 29 52 52 57 50 6 -1 14 -15 19
-29z"/>
<path d="M4789 10457 c-14 -72 -23 -140 -21 -151 7 -28 62 -56 110 -56 36 0
43 3 40 18 -2 12 -16 19 -45 23 -58 7 -71 21 -64 66 l7 38 57 0 c52 -1 58 1
55 20 -2 16 -12 21 -50 23 -54 3 -55 6 -33 77 10 36 11 52 3 62 -24 29 -34 9
-59 -120z"/>
<path d="M11273 10563 c-19 -10 -33 -24 -33 -35 0 -15 8 -18 50 -18 41 0 50 3
50 18 0 13 2 14 9 3 5 -8 -1 -37 -17 -77 -21 -52 -40 -78 -104 -140 -64 -61
-77 -78 -67 -90 16 -19 22 -18 54 12 l28 26 24 -31 c27 -35 58 -40 103 -16 35
18 70 61 70 86 0 27 -28 24 -41 -4 -11 -25 -57 -57 -81 -57 -7 0 -20 13 -30
29 -15 28 -15 30 4 48 28 25 59 77 87 145 20 50 21 60 9 85 -16 34 -66 41
-115 16z"/>
<path d="M7117 10538 c-13 -18 -32 -51 -43 -73 -10 -22 -27 -51 -36 -64 -24
-33 -13 -44 38 -38 l44 5 0 -37 c0 -119 25 -179 56 -137 10 14 10 22 -2 44 -8
15 -14 53 -14 86 0 50 2 57 15 46 15 -13 35 -6 35 13 0 6 -11 20 -24 32 -23
19 -24 24 -16 79 5 33 7 63 4 68 -11 17 -34 7 -57 -24z m3 -103 c-6 -15 -13
-25 -16 -22 -4 3 0 20 7 37 17 37 24 25 9 -15z"/>
<path d="M6863 10542 c-7 -5 -10 -51 -8 -147 4 -178 15 -220 54 -196 13 8 13
13 1 38 -10 20 -14 67 -15 160 0 128 -7 160 -32 145z"/>
<path d="M11582 10509 c-13 -22 -38 -57 -56 -77 -71 -80 -68 -109 13 -98 28 4
58 9 66 12 11 5 15 -1 15 -19 0 -50 21 -127 35 -127 23 0 26 16 13 69 -9 41
-9 56 3 77 12 23 11 27 -4 39 -18 13 -23 74 -8 103 13 26 -5 62 -31 62 -16 0
-30 -12 -46 -41z m21 -119 c-4 -4 -22 -10 -40 -13 l-32 -6 37 50 37 49 3 -36
c2 -20 0 -40 -5 -44z"/>
<path d="M14065 10482 c-26 -18 -58 -77 -60 -112 -8 -97 81 -136 161 -72 34
27 44 55 24 67 -6 4 -23 -7 -38 -23 -38 -41 -66 -48 -91 -23 -26 26 -27 40 -3
47 84 28 113 57 94 99 -9 19 -19 25 -44 25 -18 0 -38 -4 -43 -8z m36 -52 c-30
-26 -45 -26 -31 0 6 11 21 20 33 20 l22 -1 -24 -19z"/>
<path d="M13758 10463 c-1 -4 -2 -44 -3 -88 -1 -44 -4 -89 -6 -100 -3 -12 2
-21 13 -23 13 -2 21 9 33 51 14 49 76 129 90 116 2 -3 0 -21 -5 -39 -13 -46 3
-103 33 -119 35 -19 82 -11 82 14 0 17 -6 19 -32 17 -43 -5 -55 23 -40 94 6
28 7 58 4 67 -11 28 -51 20 -87 -18 -19 -19 -37 -35 -41 -35 -4 0 -9 14 -11
32 -3 28 -25 52 -30 31z"/>
<path d="M5048 10427 c-49 -41 -60 -85 -33 -137 15 -28 19 -30 76 -30 68 0
119 26 119 61 0 25 -22 24 -45 -1 -15 -17 -29 -20 -69 -18 -45 3 -51 6 -54 27
-3 15 0 21 8 16 22 -14 80 5 97 32 17 25 16 26 -11 49 -34 30 -54 30 -88 1z
m56 -26 c3 -5 -1 -12 -10 -15 -27 -11 -37 -7 -24 9 14 17 26 19 34 6z"/>
<path d="M9383 10443 c-7 -2 -13 -9 -13 -13 0 -5 -11 -26 -25 -46 -27 -39 -26
-64 3 -96 40 -47 142 10 142 79 0 50 -63 95 -107 76z m63 -88 c-8 -33 -49 -53
-70 -35 -14 11 -14 15 0 42 12 24 18 27 30 18 11 -10 15 -9 20 5 10 26 28 1
20 -30z"/>
<path d="M2655 10270 c-10 -16 4 -30 30 -30 22 0 40 22 28 34 -10 10 -51 7
-58 -4z"/>
<path d="M7295 10223 c-7 -19 9 -38 24 -29 16 10 14 33 -3 39 -8 3 -17 -1 -21
-10z"/>
<path d="M11800 10210 c0 -15 5 -20 18 -18 9 2 17 10 17 18 0 8 -8 16 -17 18
-13 2 -18 -3 -18 -18z"/>
<path d="M7861 9872 l-54 -56 -27 34 c-16 19 -26 38 -24 42 6 10 -30 28 -55
28 -31 0 -26 -15 24 -67 47 -49 63 -84 20 -43 -14 13 -25 29 -25 36 0 13 -25
26 -34 17 -13 -13 -5 -43 19 -69 28 -31 30 -35 13 -52 -25 -25 -71 0 -52 29 5
8 -35 29 -56 29 -23 0 -15 -33 17 -70 33 -38 39 -41 72 -36 20 3 45 7 56 8 11
2 20 11 20 20 0 10 6 23 13 30 17 17 16 -46 -3 -145 -22 -114 -20 -143 10
-163 27 -18 55 -13 55 10 0 7 -9 16 -20 19 -25 6 -25 27 -4 137 8 46 14 106
13 133 -3 49 -2 51 49 97 32 29 52 55 52 68 0 34 -20 25 -79 -36z"/>
<path d="M12241 9862 c-16 -5 -13 -29 5 -36 9 -3 29 -6 45 -6 17 0 28 -4 24
-10 -3 -5 -12 -7 -20 -4 -17 7 -35 -26 -35 -66 0 -39 -23 -48 -64 -25 -41 25
-47 34 -40 73 5 27 3 32 -14 32 -24 0 -36 -47 -22 -84 12 -33 78 -76 116 -76
39 0 56 19 65 73 6 33 3 -198 -5 -333 -1 -19 5 -26 22 -28 19 -3 22 1 23 30 0
18 2 65 3 103 1 39 3 106 4 149 l2 79 23 -25 c64 -69 186 -34 190 54 2 37 -25
48 -31 13 -8 -41 -56 -71 -97 -61 -30 8 -68 70 -60 96 6 18 12 21 39 16 39 -7
49 0 35 26 -9 17 -20 19 -104 16 -51 -2 -98 -4 -104 -6z"/>
<path d="M3356 9804 c-8 -21 14 -29 70 -26 50 3 51 3 58 -29 14 -72 11 -78
-46 -81 -41 -2 -54 -7 -56 -20 -3 -16 5 -18 57 -18 l61 0 -1 -57 c0 -32 -4
-80 -9 -108 -8 -53 0 -75 29 -75 14 0 16 17 19 117 1 64 5 119 8 122 3 3 26 6
52 6 35 1 48 5 50 17 4 22 -29 31 -78 23 -38 -6 -40 -5 -40 18 0 13 -3 39 -6
57 l-7 32 44 -3 c39 -4 44 -1 44 16 0 19 -7 20 -122 21 -95 2 -123 -1 -127
-12z"/>
<path d="M7075 9740 c-37 -18 -39 -21 -36 -57 4 -51 16 -64 47 -52 39 14 50
11 64 -18 15 -32 14 -52 -5 -72 -15 -15 -70 -7 -60 9 13 20 -6 27 -40 16 -19
-7 -38 -15 -41 -19 -14 -14 20 -36 72 -48 68 -15 99 -3 120 46 13 32 13 38 -5
73 -26 51 -45 65 -81 60 -19 -3 -30 0 -30 8 0 15 44 32 90 36 23 2 35 8 35 18
0 23 -81 23 -130 0z"/>
<path d="M2161 9715 c-16 -14 -33 -35 -36 -45 -5 -16 -10 -18 -25 -10 -43 23
-109 -12 -135 -70 -17 -37 -17 -44 -3 -96 l16 -55 -34 -40 c-37 -44 -43 -76
-18 -86 25 -9 49 11 50 41 1 39 27 60 74 61 46 1 81 29 111 87 23 46 23 57 0
88 -19 24 -19 25 0 63 11 21 31 42 44 47 29 11 32 25 9 34 -21 8 -19 9 -53
-19z m-76 -105 c6 -10 -63 -120 -75 -120 -7 0 -20 34 -20 55 0 6 9 25 20 43
20 32 61 45 75 22z m50 -50 c9 -14 -32 -88 -56 -100 -38 -21 -39 -5 -1 52 38
59 46 66 57 48z"/>
<path d="M4814 9722 c-6 -4 -19 -40 -29 -79 -14 -59 -22 -75 -43 -85 -33 -17
-40 -38 -12 -38 20 0 21 -3 15 -54 -7 -51 -5 -55 19 -71 19 -13 39 -16 72 -12
50 5 70 18 61 40 -4 12 -13 13 -45 4 -58 -15 -74 -6 -67 40 11 62 12 63 59 63
54 0 76 8 76 26 0 10 -15 14 -55 14 -57 0 -71 14 -40 40 10 8 15 30 15 61 0
49 -8 63 -26 51z"/>
<path d="M2414 9700 c-71 -10 -77 -15 -69 -59 9 -48 16 -54 74 -57 93 -5 116
-40 62 -95 -33 -33 -90 -40 -111 -14 -18 22 -50 19 -50 -4 0 -54 134 -69 185
-21 35 33 50 84 35 121 -10 23 -23 32 -63 44 -28 8 -58 15 -68 15 -9 0 -19 6
-22 14 -4 11 12 15 71 21 88 8 93 10 85 30 -6 16 -43 18 -129 5z"/>
<path d="M6847 9689 c-2 -8 2 -21 10 -30 9 -11 15 -48 17 -119 2 -73 6 -104
16 -110 26 -16 30 1 25 107 -4 73 -2 110 6 120 15 18 3 31 -38 39 -21 4 -32 2
-36 -7z"/>
<path d="M11473 9693 c-28 -3 -46 -10 -52 -22 -11 -21 -18 -108 -9 -117 4 -3
23 0 43 7 31 12 40 11 69 -5 49 -26 64 -58 42 -91 -20 -30 -65 -34 -114 -9
-50 25 -75 -9 -30 -40 26 -18 119 -22 149 -6 23 13 49 61 49 93 0 40 -85 107
-137 107 -26 0 -33 4 -33 19 0 14 10 20 43 24 24 3 52 4 63 1 21 -5 52 20 37
29 -15 9 -77 14 -120 10z"/>
<path d="M11173 9670 c-53 -32 -70 -80 -28 -80 18 0 28 7 34 24 14 35 40 41
51 11 7 -18 5 -42 -5 -80 -16 -62 -12 -55 -73 -148 -42 -66 -49 -103 -17 -91
9 4 20 15 26 25 9 18 12 18 39 4 46 -24 95 -19 119 11 24 30 28 64 7 64 -7 0
-21 -11 -30 -25 -18 -28 -52 -33 -80 -12 -17 12 -16 16 13 72 45 90 56 152 35
203 -19 48 -40 53 -91 22z"/>
<path d="M9067 9600 c-14 -11 -32 -17 -40 -14 -9 3 -17 -2 -21 -13 -8 -26 -10
-142 -3 -149 13 -14 37 7 37 31 0 28 33 99 51 110 15 10 22 -1 28 -46 3 -22
11 -40 16 -41 6 -1 23 17 39 41 15 23 31 40 34 36 3 -3 6 -31 7 -62 0 -41 5
-59 18 -67 28 -18 36 3 26 72 -9 62 -33 111 -56 112 -6 0 -21 -12 -32 -26 -12
-15 -21 -22 -21 -15 0 13 -36 51 -49 51 -4 0 -20 -9 -34 -20z"/>
<path d="M9403 9605 c-26 -18 -63 -76 -63 -98 0 -21 47 -64 77 -72 53 -13 122
58 108 112 -8 32 -52 73 -79 73 -12 0 -31 -7 -43 -15z m79 -61 c11 -24 9 -29
-14 -49 -28 -24 -58 -24 -78 0 -17 21 6 58 31 52 12 -3 22 0 26 9 8 22 22 17
35 -12z"/>
<path d="M13667 9579 c-19 -11 -41 -50 -51 -91 -10 -41 24 -72 70 -63 21 3 34
2 34 -5 0 -20 41 -50 69 -50 57 0 144 52 109 65 -8 3 -31 -1 -51 -10 -52 -22
-76 -19 -89 10 -9 20 -9 34 1 61 12 34 11 38 -15 65 -29 31 -48 35 -77 18z
m46 -77 c-9 -26 -24 -42 -39 -42 -19 0 -18 40 3 69 15 22 17 23 29 6 7 -9 10
-24 7 -33z"/>
<path d="M5010 9535 c-25 -41 -26 -96 -2 -118 28 -26 94 -22 120 6 36 38 47
83 28 112 -9 14 -24 26 -34 26 -89 8 -92 7 -112 -26z m107 -58 c-11 -27 -19
-32 -51 -35 l-37 -3 3 38 c3 35 5 38 31 35 15 -2 27 1 27 8 0 8 6 8 20 0 18
-10 19 -14 7 -43z"/>
<path d="M7285 9510 c-4 -7 -3 -16 3 -22 14 -14 45 -2 40 15 -6 16 -34 21 -43
7z"/>
<path d="M14006 9497 c-24 -17 -13 -37 20 -37 13 0 24 -2 24 -4 0 -14 -79
-116 -111 -144 -39 -33 -52 -72 -25 -72 8 0 28 12 45 26 28 23 31 24 31 7 0
-47 71 -60 108 -20 25 26 28 47 10 65 -19 19 -26 14 -30 -15 -2 -20 -9 -29
-25 -31 -17 -3 -23 3 -28 28 -6 27 -1 41 30 85 27 41 36 62 33 87 -3 29 -7 33
-33 36 -16 2 -39 -3 -49 -11z"/>
<path d="M2627 9433 c-13 -13 -7 -31 12 -36 21 -5 56 24 44 36 -8 9 -48 9 -56
0z"/>
<path d="M11677 9383 c-10 -15 10 -35 29 -31 26 5 24 32 -3 36 -11 2 -23 -1
-26 -5z"/>
<path d="M12474 8986 c-7 -18 20 -60 52 -81 32 -20 31 -58 -1 -83 -24 -19 -28
-19 -58 -5 -53 26 -66 43 -73 95 -6 43 -9 49 -28 46 -16 -2 -20 -9 -18 -28 5
-42 -27 -109 -59 -125 -26 -14 -33 -14 -65 0 -33 14 -35 17 -29 47 9 41 31 67
72 84 22 10 31 19 27 29 -8 20 -30 19 -69 -5 -40 -25 -61 -56 -70 -102 -9 -49
6 -73 60 -94 49 -18 48 -18 125 23 3 2 3 -34 -2 -79 -4 -46 -8 -98 -10 -117
-3 -36 8 -47 31 -32 10 6 15 38 18 112 7 143 6 142 68 113 56 -27 84 -23 125
21 19 20 22 32 17 65 -4 32 -15 50 -53 85 -26 25 -49 45 -51 45 -2 0 -6 -6 -9
-14z"/>
<path d="M3380 8961 c-73 -5 -85 -9 -88 -25 -4 -18 2 -19 159 -12 90 4 167 10
172 13 4 3 3 11 -4 19 -12 15 -69 16 -239 5z"/>
<path d="M7905 8955 c-5 -2 -22 -6 -37 -9 -20 -5 -28 -13 -28 -28 0 -21 0 -21
-21 -2 -21 19 -21 18 -55 -18 -40 -44 -46 -91 -15 -108 24 -12 35 1 28 33 -7
28 15 59 36 51 11 -4 15 -19 15 -51 0 -27 7 -52 17 -63 13 -15 15 -32 9 -108
-8 -112 0 -162 26 -162 24 0 37 20 20 30 -10 6 -12 32 -7 111 5 84 10 106 27
124 22 24 40 75 40 116 0 19 -7 29 -22 34 -21 6 -21 8 -4 12 12 3 33 -9 62
-38 34 -33 47 -40 56 -31 9 9 2 23 -29 59 -32 38 -47 48 -74 50 -19 1 -38 0
-44 -2z m-2 -80 c14 -10 17 -21 12 -44 -6 -27 -31 -59 -39 -50 -11 11 -10 109
2 109 4 0 15 -7 25 -15z"/>
<path d="M2415 8886 c-65 -29 -112 -102 -122 -186 -5 -45 -3 -51 26 -81 29
-28 36 -31 78 -26 52 6 98 42 87 70 -3 9 -29 24 -57 32 -45 13 -53 13 -74 0
-21 -14 -23 -14 -23 2 0 33 48 121 75 139 15 10 46 20 69 24 27 3 41 10 41 20
0 20 -61 24 -100 6z m15 -233 c12 -4 11 -7 -5 -13 -35 -15 -55 -11 -55 9 0 19
14 20 60 4z"/>
<path d="M3443 8870 c-113 -6 -141 -15 -130 -44 5 -12 12 -13 36 -5 56 20 64
9 31 -41 -25 -38 -28 -47 -16 -59 19 -18 46 -7 46 18 0 11 5 23 10 26 6 4 10
-34 10 -107 0 -62 3 -123 6 -135 9 -31 38 -29 53 4 10 23 10 29 -2 38 -12 8
-16 39 -19 133 -1 67 0 122 4 122 4 0 23 -13 41 -30 55 -48 93 -34 45 17 -23
24 -19 27 35 23 18 -1 27 3 27 14 0 29 -34 34 -177 26z"/>
<path d="M2074 8837 c-19 -29 -26 -32 -60 -29 -53 5 -104 -30 -123 -85 -14
-38 -13 -43 7 -78 l22 -37 -30 -41 c-33 -45 -28 -60 16 -55 21 2 29 8 29 23 0
35 14 45 63 45 65 0 109 28 118 75 7 41 -4 127 -18 136 -5 3 2 16 15 29 14 13
23 30 20 37 -9 23 -37 14 -59 -20z m-44 -72 c0 -11 -73 -115 -81 -115 -14 0
-30 40 -24 60 9 27 53 60 81 60 13 0 24 -2 24 -5z m50 -75 c0 -29 -6 -43 -22
-54 -21 -15 -68 -22 -68 -11 0 15 74 114 81 109 5 -3 9 -23 9 -44z"/>
<path d="M7140 8834 c-52 -47 -98 -143 -102 -213 -3 -48 0 -55 24 -73 24 -19
29 -19 69 -7 31 10 48 22 57 42 30 63 -20 108 -80 74 -20 -11 -28 -12 -28 -4
0 24 48 113 78 145 31 33 46 39 57 22 10 -16 55 -12 55 4 0 20 -39 46 -67 46
-13 0 -41 -16 -63 -36z m18 -220 c-5 -25 -35 -41 -49 -27 -9 9 -9 16 1 28 17
21 52 20 48 -1z"/>
<path d="M11153 8831 c-38 -32 -41 -46 -12 -54 30 -8 49 2 49 24 0 17 3 18 20
9 41 -22 15 -115 -47 -168 -24 -20 -76 -67 -115 -105 -55 -54 -68 -70 -59 -81
18 -21 47 -8 96 42 25 25 46 43 48 41 2 -2 9 -18 16 -36 7 -18 21 -35 32 -38
40 -13 139 34 139 66 0 18 -29 21 -46 4 -17 -16 -56 -35 -74 -35 -5 0 -15 18
-21 40 -12 40 -12 41 24 78 42 43 82 153 66 183 -10 19 -62 59 -76 59 -4 -1
-23 -13 -40 -29z"/>
<path d="M11489 8813 c-46 -42 -70 -84 -94 -165 -28 -99 7 -166 87 -160 50 4
68 19 68 57 0 60 -70 96 -113 58 -19 -17 -19 -17 -12 7 39 127 80 187 135 199
50 10 54 41 6 41 -27 0 -46 -9 -77 -37z m5 -239 c23 -9 20 -44 -3 -44 -38 0
-51 10 -40 31 10 20 18 23 43 13z"/>
<path d="M9038 8807 c-24 -9 -28 -17 -29 -51 0 -23 -2 -81 -5 -130 -6 -105 -1
-136 25 -136 17 0 18 6 13 65 l-5 65 27 0 c31 0 96 31 116 55 26 31 16 75 -23
112 -39 35 -69 40 -119 20z m89 -46 c34 -28 32 -52 -6 -78 -19 -13 -40 -23
-46 -23 -24 0 -35 104 -12 113 23 10 42 6 64 -12z"/>
<path d="M6853 8783 c-3 -16 -7 -80 -7 -143 l-1 -115 35 0 c25 0 36 5 38 18 2
12 -3 17 -17 17 -19 0 -21 6 -21 68 1 37 5 87 9 111 5 25 7 51 4 58 -9 23 -32
14 -40 -14z"/>
<path d="M13762 8760 c-9 -16 -25 -30 -34 -30 -15 0 -17 -8 -12 -67 7 -96 12
-113 28 -107 8 3 15 28 19 67 5 63 23 117 39 117 5 0 14 -13 19 -30 10 -29 49
-44 49 -20 0 30 -32 81 -55 90 -35 13 -34 14 -53 -20z"/>
<path d="M9322 8744 c-49 -34 -70 -124 -33 -144 26 -13 64 -13 78 1 8 8 17 8
31 0 33 -18 56 -13 85 17 29 31 32 43 17 72 -13 24 -44 15 -37 -11 6 -21 -27
-54 -43 -44 -7 5 -9 20 -6 40 5 24 1 39 -15 58 -23 31 -45 34 -77 11z m39 -66
c-5 -35 -10 -44 -28 -46 -16 -2 -23 2 -23 13 0 29 30 74 51 75 3 0 3 -19 0
-42z"/>
<path d="M13993 8748 c-6 -7 -20 -33 -33 -57 -12 -24 -30 -45 -40 -48 -25 -7
-32 -29 -15 -43 10 -8 19 -8 34 -1 15 8 27 7 50 -6 29 -17 31 -17 59 4 26 19
32 20 42 8 13 -16 75 -21 84 -6 7 11 -13 28 -39 32 -16 4 -19 11 -16 56 2 47
1 51 -17 46 -11 -2 -28 -22 -37 -44 -10 -21 -27 -46 -38 -56 -20 -18 -20 -17
-12 22 17 82 6 128 -22 93z"/>
<path d="M4705 8623 c-3 -43 -7 -89 -8 -103 -2 -19 3 -25 18 -25 15 0 21 9 26
35 7 47 45 130 58 130 7 0 11 -27 11 -68 0 -74 16 -110 44 -99 17 7 23 47 6
47 -6 0 -10 29 -10 68 0 40 -5 73 -12 80 -15 15 -60 16 -75 1 -8 -8 -13 -8
-17 0 -4 6 -13 11 -21 11 -9 0 -15 -22 -20 -77z"/>
<path d="M9622 8678 c-7 -7 -12 -21 -12 -31 0 -15 5 -18 24 -15 l25 5 -19 -38
c-11 -21 -32 -44 -47 -51 -15 -7 -34 -25 -43 -41 -13 -24 -13 -29 0 -37 10 -6
22 -4 37 6 21 13 23 13 29 -11 9 -37 37 -48 77 -31 33 13 77 62 77 85 0 21
-32 11 -57 -19 -58 -69 -91 -11 -42 75 41 74 36 115 -16 115 -12 0 -26 -5 -33
-12z"/>
<path d="M4938 8663 c-23 -26 -35 -53 -42 -96 -8 -46 13 -87 45 -87 31 0 77
27 84 50 8 25 17 25 40 0 10 -11 31 -20 47 -20 27 0 68 30 68 50 0 19 -31 23
-44 5 -27 -37 -86 17 -86 78 0 19 -7 26 -31 31 -49 10 -65 7 -81 -11z m64 -63
c-4 -45 -28 -82 -50 -78 -20 4 -20 45 -1 91 9 20 18 27 33 25 18 -3 20 -9 18
-38z"/>
<path d="M2617 8637 c-3 -8 -2 -19 3 -26 11 -19 51 4 44 24 -8 19 -40 20 -47
2z"/>
<path d="M7371 8616 c-18 -21 -9 -51 14 -51 15 0 20 7 20 29 0 33 -16 44 -34
22z"/>
<path d="M11695 8547 c-23 -17 -14 -47 15 -47 26 0 37 27 18 46 -12 12 -17 12
-33 1z"/>
<path d="M7718 8203 c-53 -61 -50 -169 6 -231 14 -16 16 -21 5 -17 -22 8 -72
-12 -66 -28 2 -7 24 -13 52 -14 27 -1 52 -8 56 -15 5 -7 6 -45 2 -83 -5 -59
-3 -73 11 -84 15 -12 19 -12 33 1 10 10 12 21 7 30 -5 7 -9 46 -9 86 l0 72 51
-4 c63 -6 108 5 112 28 3 15 -4 17 -55 15 -32 -1 -71 -2 -86 -1 -27 2 -28 3
-14 30 18 33 37 112 37 151 0 43 -41 81 -88 81 -25 0 -45 -6 -54 -17z m93 -44
c13 -25 -4 -126 -27 -156 -34 -47 -81 81 -54 147 16 38 62 43 81 9z"/>
<path d="M3418 8153 c-76 -3 -119 -8 -126 -16 -5 -7 -12 -51 -16 -99 -6 -88
-6 -88 18 -88 23 0 43 24 28 34 -4 2 -5 31 -2 63 l5 58 49 3 49 3 -6 -196 c-6
-191 0 -251 24 -243 7 2 13 75 16 218 3 118 6 216 6 216 1 1 25 4 54 8 l52 7
3 -67 c2 -50 7 -70 20 -78 23 -14 49 7 30 26 -7 7 -12 40 -12 79 0 61 -2 67
-22 73 -13 3 -30 5 -38 4 -8 -1 -67 -4 -132 -5z"/>
<path d="M12462 8148 c-8 -8 -8 -17 0 -31 12 -22 5 -91 -13 -131 -8 -17 -20
-26 -35 -26 -22 0 -23 4 -26 73 -3 64 -5 72 -23 72 -19 0 -20 -5 -16 -77 4
-89 -6 -98 -53 -50 -22 23 -27 39 -29 83 -1 40 -6 54 -17 54 -19 0 -30 -56
-19 -103 8 -38 70 -102 98 -102 11 0 13 -24 10 -127 -3 -91 -1 -127 8 -130 24
-8 35 40 34 147 l-2 108 43 13 c29 10 48 24 60 46 21 35 34 119 24 156 -7 28
-29 40 -44 25z"/>
<path d="M4807 8123 c-4 -3 -7 -66 -7 -140 l0 -133 -25 0 c-27 0 -72 -24 -92
-50 -36 -45 6 -130 64 -130 39 0 49 9 72 64 18 41 21 68 21 195 0 91 4 151 11
158 7 7 5 15 -6 27 -18 17 -28 20 -38 9z m-7 -320 c0 -27 -35 -93 -49 -93 -43
0 -56 59 -19 84 23 16 68 22 68 9z"/>
<path d="M2210 8040 c-22 -22 -40 -44 -40 -50 0 -6 -10 -6 -27 1 -75 28 -153
-49 -153 -151 0 -22 8 -47 19 -61 18 -23 18 -24 -7 -57 -23 -30 -24 -35 -10
-49 20 -19 33 -12 53 31 17 34 38 46 87 46 16 0 42 13 64 32 33 29 35 35 29
72 -3 23 -13 51 -21 64 -13 19 -13 26 1 52 8 16 29 40 45 52 32 23 40 58 15
58 -8 0 -33 -18 -55 -40z m-94 -96 c21 -6 20 -8 -17 -72 -47 -80 -64 -86 -63
-20 0 36 6 54 24 73 26 27 25 27 56 19z m70 -90 c5 -25 1 -33 -21 -48 -14 -9
-35 -16 -45 -14 -18 3 -17 7 12 56 32 56 43 57 54 6z"/>
<path d="M11218 8033 c-37 -23 -55 -40 -51 -49 8 -20 28 -17 73 11 57 36 64
33 56 -22 -9 -69 -53 -155 -134 -262 -64 -85 -79 -122 -48 -120 6 0 36 29 66
65 l55 66 8 -40 c12 -59 28 -68 82 -48 57 22 93 75 76 112 -15 34 -42 32 -39
-4 2 -35 -6 -48 -42 -67 -28 -15 -30 -14 -34 7 -2 13 -8 41 -13 63 -7 34 -5
46 14 78 24 38 53 134 53 174 0 38 -21 73 -44 72 -12 -1 -47 -17 -78 -36z"/>
<path d="M2418 8039 c-9 -5 -15 -16 -12 -23 4 -10 22 -12 76 -8 l71 5 -29 -52
c-16 -28 -48 -75 -72 -104 -23 -29 -45 -60 -48 -70 -10 -32 54 -64 72 -35 4 6
-1 17 -10 24 -17 12 -15 17 23 66 64 81 131 189 125 199 -7 12 -175 11 -196
-2z"/>
<path d="M11594 8030 c-11 -4 -46 -11 -78 -15 -45 -6 -56 -11 -54 -24 3 -13
15 -16 58 -14 30 2 68 7 84 13 16 6 31 8 33 7 2 -2 -10 -35 -26 -73 -29 -68
-30 -69 -78 -80 -62 -13 -67 -39 -7 -38 l42 1 -18 -64 c-15 -56 -16 -66 -3
-78 18 -19 28 -19 47 1 19 18 21 51 5 56 -9 3 -9 15 -2 43 8 38 11 40 48 40
47 0 57 20 18 37 -15 7 -30 13 -31 14 -2 2 10 39 28 83 18 44 29 84 25 90 -7
13 -61 13 -91 1z"/>
<path d="M6885 8010 c-3 -5 -7 -74 -8 -152 -2 -137 1 -152 29 -149 4 1 8 52 8
114 1 78 5 119 14 130 11 13 11 20 -3 41 -18 28 -30 32 -40 16z"/>
<path d="M7022 8003 c2 -14 17 -19 65 -23 l63 -5 -37 -52 c-32 -46 -41 -53
-71 -53 -26 0 -33 -4 -30 -17 2 -9 13 -20 25 -23 22 -5 22 -6 8 -34 -8 -15
-15 -34 -15 -41 0 -17 33 -45 53 -45 25 0 32 22 12 36 -16 12 -17 17 -4 51 14
35 18 38 57 39 45 1 69 15 58 33 -4 6 -20 11 -37 11 -16 0 -29 3 -29 6 0 4 16
28 35 54 55 75 51 80 -61 80 -86 0 -95 -2 -92 -17z"/>
<path d="M9039 8004 c-9 -11 -4 -16 23 -28 18 -8 46 -17 61 -21 l28 -6 -66
-75 c-36 -41 -65 -78 -65 -83 0 -14 29 -17 130 -17 80 1 95 4 98 18 2 13 -7
18 -42 23 -25 4 -62 4 -81 1 -19 -4 -35 -4 -35 0 0 4 23 31 50 60 38 40 50 60
50 83 0 26 -4 31 -23 31 -13 0 -45 6 -70 14 -39 12 -48 12 -58 0z"/>
<path d="M4986 7993 c-14 -15 -5 -43 14 -43 13 0 20 7 20 19 0 19 -23 35 -34
24z"/>
<path d="M9365 7985 c-75 -26 -105 -88 -66 -136 18 -22 22 -23 52 -12 29 11
35 10 54 -7 31 -30 69 -25 99 11 14 17 26 37 26 45 0 21 -38 17 -45 -5 -6 -21
-42 -38 -53 -26 -4 3 -6 33 -5 65 1 72 -9 83 -62 65z m13 -70 c-1 -10 -13 -24
-25 -32 -20 -14 -23 -14 -29 1 -4 11 2 26 17 42 24 25 44 20 37 -11z"/>
<path d="M13732 7933 c-39 -8 -53 -43 -50 -124 2 -61 6 -74 21 -77 15 -3 17 5
17 65 0 72 5 86 33 96 12 5 17 1 17 -11 0 -29 27 -59 40 -46 25 24 -15 109
-48 103 -4 -1 -17 -4 -30 -6z"/>
<path d="M13901 7899 c-25 -27 -37 -99 -22 -127 13 -25 72 -62 97 -62 30 0 94
48 94 70 0 27 -24 25 -54 -5 -31 -31 -48 -31 -83 0 -26 23 -27 24 -7 25 34 0
74 38 74 69 0 15 -5 32 -12 39 -19 19 -65 14 -87 -9z m59 -34 c0 -16 -27 -32
-37 -22 -3 4 -3 13 0 22 8 20 37 20 37 0z"/>
<path d="M4964 7815 c-12 -19 -15 -37 -10 -72 8 -63 21 -76 69 -70 46 6 73 28
63 52 -6 16 -8 16 -31 1 -31 -20 -51 -20 -59 0 -9 25 -7 64 4 64 6 0 10 11 10
25 0 33 -25 33 -46 0z"/>
<path d="M2613 7804 c-8 -21 13 -42 28 -27 13 13 5 43 -11 43 -6 0 -13 -7 -17
-16z"/>
<path d="M7224 7755 c-7 -18 3 -35 21 -35 12 0 25 21 25 41 0 15 -40 10 -46
-6z"/>
<path d="M11711 7730 c-17 -10 -7 -40 14 -40 8 0 15 9 15 19 0 24 -12 32 -29
21z"/>
<path d="M12504 7358 c-5 -7 -25 -45 -44 -84 -25 -50 -41 -71 -55 -73 -11 -1
-33 -3 -50 -4 l-30 -2 0 70 c0 63 -2 70 -20 70 -17 0 -20 -7 -21 -50 -3 -101
-1 -95 -38 -95 -37 0 -39 3 -50 70 -7 36 -36 80 -54 80 -26 0 -29 -66 -3 -73
14 -3 21 -18 26 -56 4 -28 13 -54 20 -59 8 -4 60 -4 117 -1 57 4 124 7 151 8
39 1 47 4 47 20 0 10 -7 21 -15 25 -12 4 -8 18 21 71 32 59 35 68 22 81 -12
12 -16 13 -24 2z"/>
<path d="M3500 7294 l0 -56 -31 6 c-17 3 -74 6 -125 6 l-94 0 0 33 c0 41 -13
62 -35 53 -13 -4 -15 -13 -10 -36 6 -30 -11 -136 -26 -155 -12 -16 6 -37 27
-33 11 2 19 12 20 24 1 12 4 33 8 48 6 23 11 26 50 26 l44 0 -5 -52 c-4 -29
-7 -98 -7 -153 -1 -92 1 -100 18 -100 17 0 19 10 21 122 2 80 7 128 15 138 7
8 10 22 6 30 -4 12 2 15 28 15 59 0 96 -11 96 -29 0 -28 30 -61 56 -61 29 0
32 20 4 37 -16 11 -20 26 -22 100 -3 74 -6 88 -20 91 -16 3 -18 -5 -18 -54z"/>
<path d="M7660 7266 c0 -52 16 -116 28 -116 4 0 18 -9 30 -18 22 -17 23 -21
11 -60 -8 -29 -18 -42 -33 -44 -11 -2 -22 -11 -24 -20 -3 -14 3 -18 22 -18 15
0 43 -5 64 -12 l38 -12 15 -95 c10 -72 18 -96 29 -96 17 0 18 31 6 138 l-8 67
31 0 c42 0 71 -16 71 -39 0 -20 25 -35 42 -25 5 3 7 12 4 20 -3 8 0 24 6 34
10 15 10 22 0 32 -17 17 -15 55 5 67 14 8 15 12 4 25 -7 9 -24 16 -36 16 -20
0 -23 -5 -23 -46 -1 -26 -3 -49 -6 -51 -11 -11 -46 10 -46 27 0 10 -12 32 -26
49 l-26 31 30 0 c33 0 82 42 82 71 0 10 -5 41 -11 69 -8 39 -15 50 -27 48 -13
-3 -16 -12 -13 -43 8 -75 6 -87 -12 -99 -26 -16 -50 18 -42 59 12 65 11 70
-16 73 l-27 3 2 -70 c1 -38 -2 -67 -6 -65 -4 3 -8 29 -8 58 0 31 -6 60 -15 72
-15 19 -15 19 -36 -6 -19 -22 -19 -25 -4 -36 12 -9 15 -24 13 -54 l-3 -41 -22
21 c-19 17 -23 31 -23 80 0 53 -2 60 -20 60 -18 0 -20 -7 -20 -54z m190 -232
c0 -10 -10 -13 -42 -9 -23 3 -44 7 -45 9 -2 2 1 15 6 29 l10 27 36 -21 c19
-12 35 -27 35 -35z"/>
<path d="M2114 7182 c-34 -43 -42 -48 -61 -39 -24 11 -69 -6 -110 -42 -42 -35
-56 -108 -29 -147 13 -18 11 -25 -15 -67 -16 -26 -34 -47 -39 -47 -12 0 -13
-27 -1 -34 11 -7 61 16 61 29 0 6 9 25 20 43 17 28 23 32 35 22 39 -33 146 1
164 52 11 31 1 103 -20 141 -8 14 -3 27 21 58 18 22 40 39 52 39 30 0 19 34
-13 38 -21 2 -34 -7 -65 -46z m-74 -91 c0 -5 -7 -14 -15 -21 -8 -6 -26 -32
-40 -56 -14 -25 -30 -42 -36 -39 -12 8 -12 51 1 75 17 32 90 65 90 41z m58
-61 c13 -52 7 -75 -24 -89 -31 -14 -84 -14 -84 0 0 14 79 129 89 129 5 0 13
-18 19 -40z"/>
<path d="M2415 7220 c-3 -5 -16 -10 -29 -10 -23 0 -68 -41 -79 -73 -4 -10 -2
-27 3 -37 7 -13 7 -21 -1 -25 -22 -14 -79 -115 -79 -140 0 -32 50 -85 80 -85
59 0 145 69 156 125 4 21 0 44 -11 64 -16 31 -15 33 10 62 33 40 33 81 -1 108
-30 23 -40 26 -49 11z m35 -66 c0 -21 -36 -54 -60 -54 -42 0 -55 22 -27 47 12
11 29 23 37 25 15 5 50 -8 50 -18z m-36 -126 c21 -30 20 -50 -5 -82 -44 -56
-120 -71 -134 -25 -10 31 45 115 73 112 12 -2 22 2 22 7 0 18 29 10 44 -12z"/>
<path d="M13760 7200 c-26 -36 -16 -56 23 -46 18 4 25 13 25 31 0 43 -23 50
-48 15z"/>
<path d="M11286 7194 c-66 -74 -69 -80 -32 -90 32 -8 46 2 46 30 0 33 25 53
45 36 23 -19 18 -47 -26 -137 -34 -69 -52 -93 -99 -131 -32 -26 -59 -52 -59
-59 -2 -31 36 -22 86 20 l21 19 12 -56 c12 -60 35 -82 72 -70 30 9 107 85 101
100 -6 18 -31 7 -76 -33 -40 -36 -57 -36 -57 0 -1 12 -7 39 -14 59 -12 33 -11
39 2 50 23 20 92 173 92 206 0 39 -35 82 -66 82 -14 0 -35 -11 -48 -26z"/>
<path d="M7060 7153 c-49 -60 -53 -125 -9 -136 21 -6 21 -7 -9 -42 -58 -65
-36 -145 39 -145 79 0 141 143 83 191 -12 9 -10 16 11 41 48 57 23 128 -45
128 -32 0 -43 -6 -70 -37z m98 -31 c2 -13 -7 -32 -22 -47 -28 -28 -76 -34 -76
-10 0 26 32 66 47 61 8 -3 16 1 20 10 8 21 27 12 31 -14z m-8 -157 c0 -9 -6
-31 -14 -50 -15 -34 -53 -54 -75 -40 -27 16 4 100 33 89 8 -3 17 -1 21 5 10
16 35 13 35 -4z"/>
<path d="M6857 7173 c-4 -3 -7 -30 -7 -60 0 -31 -11 -87 -27 -135 -19 -59 -24
-85 -16 -97 17 -27 38 -19 39 14 0 17 9 53 18 80 10 28 20 76 23 108 3 31 10
57 14 57 15 0 10 28 -7 34 -20 8 -29 8 -37 -1z"/>
<path d="M9469 7068 c-28 -57 -62 -118 -76 -136 -23 -31 -25 -62 -4 -62 6 0
25 21 43 48 32 45 35 47 85 49 l52 2 3 -37 c2 -26 8 -38 21 -40 14 -3 17 4 17
35 0 22 5 44 12 51 10 10 5 18 -19 41 -30 27 -53 82 -53 129 0 50 -31 19 -81
-80z m66 -28 c15 -29 15 -30 -10 -36 -14 -4 -28 -4 -31 -2 -4 5 15 68 22 68 2
0 10 -13 19 -30z"/>
<path d="M9316 7138 c-79 -126 -147 -251 -144 -266 2 -9 13 -18 26 -20 18 -3
22 1 22 22 0 28 112 222 143 247 11 9 17 21 13 28 -12 19 -45 12 -60 -11z"/>
<path d="M11540 7137 c-33 -25 -60 -71 -60 -99 0 -33 16 -69 37 -81 12 -8 12
-12 -2 -27 -10 -11 -20 -39 -22 -63 -4 -36 -1 -49 16 -66 44 -44 132 -9 159
61 13 33 13 42 -2 72 -9 19 -21 38 -26 41 -6 4 -7 23 -4 45 3 21 2 46 -4 56
-7 12 -6 23 1 35 14 23 11 25 -38 32 -25 4 -46 1 -55 -6z m54 -80 c8 -21 6
-31 -9 -47 -25 -28 -53 -26 -61 6 -16 62 50 100 70 41z m-9 -137 c4 -6 10 -8
15 -5 13 8 40 -6 40 -22 0 -25 -58 -75 -82 -71 -29 4 -36 47 -12 82 17 28 29
32 39 16z"/>
<path d="M9117 7093 c-4 -3 -7 -17 -7 -29 0 -13 -4 -33 -9 -46 -5 -13 -12 -35
-16 -51 -5 -24 -8 -26 -25 -17 -11 6 -37 40 -57 76 -54 93 -67 85 -71 -44 -2
-95 -1 -103 15 -100 14 2 19 15 21 55 l3 51 40 -43 c43 -46 75 -63 90 -48 12
12 49 146 49 178 0 24 -18 34 -33 18z"/>
<path d="M12277 7072 c-11 -12 -13 -22 -7 -32 6 -9 7 -61 3 -122 -6 -105 -5
-108 15 -108 27 0 43 28 29 51 -7 11 -7 42 0 100 13 112 -2 154 -40 111z"/>
<path d="M13688 7007 c-29 -47 -50 -111 -42 -132 9 -23 52 -45 88 -45 43 0 98
42 79 60 -9 10 -17 9 -34 -4 -28 -19 -59 -21 -81 -3 -15 11 -15 16 -3 52 8 22
24 48 35 57 15 12 20 24 15 38 -10 31 -27 24 -57 -23z"/>
<path d="M4778 7033 c-44 -10 -78 -120 -53 -170 28 -55 87 -52 121 6 l18 30
24 -20 c35 -27 87 -25 117 6 29 28 31 43 9 52 -9 3 -21 -3 -30 -16 -35 -49
-90 -12 -101 69 -6 44 -19 58 -35 42 -6 -6 -20 -7 -32 -3 -11 4 -29 6 -38 4z
m51 -52 c12 -8 13 -16 3 -48 -7 -21 -19 -47 -28 -58 -15 -20 -15 -20 -34 2
-27 34 -8 113 28 113 9 0 23 -4 31 -9z"/>
<path d="M7296 6903 c-4 -9 -2 -21 4 -27 13 -13 44 4 48 28 5 22 -44 22 -52
-1z"/>
<path d="M2545 6890 c-9 -15 4 -30 26 -30 12 0 19 7 19 20 0 21 -33 29 -45 10z"/>
<path d="M11782 6818 c-15 -18 1 -41 24 -36 23 4 26 41 3 46 -9 1 -21 -3 -27
-10z"/>
<path d="M12285 6510 c-3 -5 -3 -21 1 -36 5 -21 2 -30 -16 -44 -23 -18 -20
-40 6 -40 21 0 17 -17 -6 -23 -11 -3 -20 -12 -20 -21 0 -9 8 -16 20 -16 13 0
20 -7 20 -19 0 -24 13 -33 35 -25 10 4 15 14 12 25 -3 13 1 19 17 21 13 2 21
10 21 23 0 15 -6 19 -22 17 -19 -3 -23 2 -23 22 0 23 4 26 32 24 24 -2 33 2
36 14 2 12 -6 19 -32 24 -38 7 -49 24 -16 24 24 0 27 25 4 34 -24 9 -62 7 -69
-4z"/>
<path d="M7723 6478 c-36 -38 -58 -105 -44 -134 15 -33 14 -34 -9 -34 -13 0
-20 -7 -20 -19 0 -25 25 -45 49 -38 17 4 18 2 11 -19 -5 -13 -19 -42 -31 -65
-31 -62 -49 -117 -43 -134 4 -8 10 -13 14 -10 5 3 62 6 127 6 65 0 126 3 136
5 28 8 20 50 -18 93 -19 21 -38 52 -41 69 -3 17 -15 40 -25 51 -11 11 -19 23
-19 26 0 3 27 5 60 5 45 0 62 4 67 15 9 24 -2 29 -58 26 -46 -2 -49 0 -41 16
6 10 13 39 17 65 6 42 4 50 -18 72 -34 34 -85 35 -114 4z m86 -32 c13 -15 7
-54 -16 -98 -30 -61 -98 -13 -71 50 25 58 62 79 87 48z m6 -262 c4 -21 20 -50
41 -70 19 -19 34 -36 34 -38 0 -2 -47 -4 -105 -4 l-104 -1 9 24 c20 52 53 109
74 126 26 22 42 11 51 -37z"/>
<path d="M3239 6453 c-3 -27 0 -136 5 -140 3 -3 12 -3 21 0 19 8 21 117 3 135
-14 14 -28 16 -29 5z"/>
<path d="M3306 6452 c-3 -6 -8 -43 -10 -83 l-4 -74 -38 0 c-22 0 -45 -4 -51
-8 -10 -6 -13 4 -15 40 -2 71 -3 77 -11 91 -5 6 -17 12 -29 12 -17 0 -19 -4
-13 -22 17 -51 17 -190 0 -304 -14 -97 -15 -118 -3 -125 24 -16 33 -3 35 52 2
30 7 78 13 108 5 30 10 72 10 94 0 34 2 38 15 27 18 -15 115 -7 192 17 43 13
56 13 68 3 12 -10 19 -10 27 -2 13 13 -16 52 -39 52 -14 0 -15 2 -17 70 -1 36
-4 45 -18 44 -10 -1 -18 3 -18 8 0 5 -10 8 -22 6 -15 -2 -21 -9 -19 -18 6 -21
1 -122 -6 -134 -12 -19 -21 29 -16 79 4 38 1 54 -10 63 -9 8 -18 9 -21 4z"/>
<path d="M12094 6395 c-3 -8 1 -22 10 -31 13 -12 14 -19 5 -30 -14 -17 -3 -34
21 -34 10 0 22 -4 25 -10 3 -5 1 -10 -4 -10 -6 0 -11 -9 -11 -21 0 -18 4 -20
25 -15 18 5 25 2 25 -8 0 -21 22 -25 48 -8 27 18 28 29 1 37 -19 6 -19 8 -4
25 18 20 13 40 -10 40 -7 0 -15 -6 -18 -12 -4 -10 -7 -10 -18 0 -9 9 -10 12
-1 12 7 0 12 9 12 21 0 15 -5 20 -22 17 -16 -2 -26 4 -33 20 -11 25 -43 30
-51 7z"/>
<path d="M9257 6359 c-9 -17 -38 -70 -63 -117 -44 -83 -77 -133 -126 -195 -16
-20 -19 -30 -11 -38 24 -24 72 33 163 198 49 89 90 167 90 173 0 22 -36 8 -53
-21z"/>
<path d="M12515 6353 c-25 -22 -31 -24 -33 -10 -2 9 -10 17 -17 17 -20 0 -35
-31 -24 -51 10 -20 -14 -48 -26 -29 -9 15 -45 13 -45 -3 0 -7 5 -18 10 -23 7
-7 4 -18 -10 -34 -15 -17 -17 -26 -9 -36 11 -14 39 -8 39 8 0 5 10 8 23 6 16
-2 22 2 22 17 0 28 27 48 38 29 4 -8 17 -14 29 -14 20 0 21 9 4 51 -5 11 4 24
29 43 19 15 35 34 35 42 0 22 -32 16 -65 -13z"/>
<path d="M11300 6354 c-34 -23 -50 -44 -50 -66 0 -21 25 -24 33 -4 3 8 18 23
32 32 37 24 51 7 35 -43 -17 -50 -134 -199 -162 -207 -29 -8 -62 -52 -54 -72
6 -17 43 -11 61 10 11 13 65 9 65 -4 0 -13 55 -40 81 -40 24 0 99 72 99 95 0
26 -30 16 -61 -20 -36 -40 -52 -43 -77 -14 -9 11 -25 24 -35 28 -16 6 -11 15
35 75 92 117 114 175 84 221 -19 29 -51 32 -86 9z"/>
<path d="M11538 6357 c-22 -16 -58 -83 -58 -107 0 -27 35 -43 76 -35 l35 6 -7
-79 c-7 -86 3 -122 36 -122 23 0 25 9 9 44 -15 32 4 197 28 243 13 24 14 35 5
45 -14 18 -104 22 -124 5z m65 -39 c7 -21 -4 -38 -34 -53 -51 -27 -57 -14 -21
43 15 24 48 30 55 10z"/>
<path d="M2248 6343 c-26 -30 -31 -62 -14 -88 18 -27 45 -32 78 -14 19 10 20
9 13 -90 -7 -89 -6 -101 9 -107 9 -4 19 -4 22 -1 3 3 7 58 10 124 4 90 8 121
20 130 14 10 14 14 0 35 -20 31 -113 39 -138 11z m62 -48 c-23 -25 -50 -33
-50 -16 0 27 15 41 43 41 l30 0 -23 -25z"/>
<path d="M2057 6328 c-12 -13 -29 -34 -38 -48 -14 -21 -19 -23 -32 -12 -21 18
-82 12 -82 -8 0 -8 -11 -22 -25 -31 -52 -34 -64 -56 -62 -116 1 -31 8 -63 14
-71 9 -10 9 -18 -1 -34 -35 -57 -51 -90 -46 -99 11 -18 36 -9 45 17 23 59 40
71 96 66 50 -4 53 -3 93 37 46 46 52 82 26 156 -13 36 -12 42 6 72 11 18 32
41 46 51 15 11 23 24 19 30 -11 18 -35 14 -59 -10z m-83 -130 c-24 -42 -97
-138 -104 -138 -15 0 -16 73 -2 103 14 31 41 45 85 46 20 1 26 -3 21 -11z m45
-89 c1 -36 -48 -82 -84 -77 l-27 3 49 66 c50 68 61 70 62 8z"/>
<path d="M7053 6342 c-53 -8 -73 -98 -28 -128 13 -8 32 -14 42 -12 16 3 20 -9
30 -91 13 -101 20 -116 51 -107 29 10 33 31 10 55 -25 28 -38 159 -19 195 7
12 11 38 9 56 -3 32 -6 34 -38 35 -19 0 -45 -1 -57 -3z m41 -80 c-6 -9 -21
-18 -33 -20 -17 -3 -21 2 -21 22 0 33 29 50 50 30 11 -11 12 -19 4 -32z"/>
<path d="M8806 6318 c-9 -27 -16 -267 -8 -272 22 -13 34 16 38 95 3 46 7 86 9
88 2 2 16 -20 32 -49 43 -80 56 -94 81 -86 18 6 22 15 23 49 0 23 4 63 8 89 9
53 -1 78 -30 78 -18 0 -20 -4 -14 -31 4 -17 4 -51 0 -75 l-6 -45 -42 63 c-23
35 -44 72 -47 83 -7 23 -38 33 -44 13z"/>
<path d="M9402 6308 c-5 -7 -24 -48 -42 -91 -18 -43 -43 -91 -56 -107 -26 -30
-31 -55 -13 -66 12 -7 55 37 64 67 4 11 16 19 28 19 12 0 31 3 43 6 18 5 25
-4 50 -68 19 -46 35 -74 47 -76 24 -5 22 24 -4 79 -12 24 -22 56 -21 71 0 15
-6 32 -13 38 -8 6 -17 26 -20 43 -18 90 -37 116 -63 85z m27 -111 c1 -17 -25
-35 -35 -24 -3 3 0 22 7 42 11 29 15 33 20 18 4 -10 8 -26 8 -36z"/>
<path d="M6804 6292 c-8 -5 -8 -32 -2 -92 5 -47 7 -113 4 -146 -5 -65 9 -94
47 -94 20 0 23 28 5 35 -10 4 -13 42 -13 143 1 149 -7 177 -41 154z"/>
<path d="M4691 6194 c-32 -40 -27 -71 19 -116 48 -48 53 -83 13 -92 -14 -4
-29 -3 -32 2 -19 27 -69 17 -58 -12 10 -27 57 -39 98 -27 76 23 84 83 20 143
-42 38 -45 45 -35 72 6 17 34 22 34 7 0 -16 33 -22 47 -8 11 11 10 17 -7 35
-29 31 -73 29 -99 -4z"/>
<path d="M13827 6122 c-20 -32 -45 -66 -56 -76 -24 -22 -28 -56 -7 -56 8 0 18
5 21 10 4 6 13 2 23 -10 15 -18 22 -19 54 -10 21 6 40 15 44 21 4 6 11 1 18
-12 16 -33 43 -47 58 -31 11 11 10 16 -5 27 -15 11 -17 22 -11 80 8 79 -1 80
-58 5 -34 -44 -68 -64 -68 -38 0 7 11 37 25 66 29 63 30 68 11 75 -9 4 -26
-14 -49 -51z"/>
<path d="M13630 6155 c-9 -11 -16 -12 -26 -4 -7 6 -17 8 -22 5 -22 -13 -35
-247 -15 -267 20 -20 33 1 33 55 l0 52 34 0 c42 0 62 15 76 60 22 65 -42 145
-80 99z m45 -55 c7 -22 -18 -70 -35 -70 -6 0 -10 9 -10 20 0 11 -5 20 -12 20
-6 0 -1 11 12 25 29 30 37 31 45 5z"/>
<path d="M4873 6148 c-30 -39 -35 -76 -19 -126 17 -51 43 -72 91 -72 62 0 132
53 120 91 -7 20 -8 20 -38 -9 -51 -49 -119 -55 -130 -12 -4 16 0 20 19 20 49
0 85 75 52 108 -16 16 -83 15 -95 0z m65 -45 c-2 -9 -15 -20 -30 -24 -25 -7
-26 -6 -16 17 13 28 51 34 46 7z"/>
<path d="M12319 6146 c-19 -6 -52 -13 -74 -15 -22 -1 -44 -6 -49 -11 -13 -13
3 -30 28 -30 21 0 22 -3 18 -64 -5 -76 12 -139 36 -134 11 3 15 11 13 23 -8
34 -6 173 2 181 4 4 32 9 62 12 46 4 55 8 55 23 0 11 -6 19 -12 20 -7 0 -20 2
-29 4 -8 1 -31 -3 -50 -9z"/>
<path d="M2500 6044 c-13 -34 1 -54 25 -34 19 16 19 34 0 50 -12 10 -16 7 -25
-16z"/>
<path d="M7259 6023 c-11 -28 -6 -53 10 -53 14 0 31 34 31 59 0 30 -29 26 -41
-6z"/>
<path d="M11745 6030 c-4 -7 -3 -16 3 -22 14 -14 45 -2 40 15 -6 16 -34 21
-43 7z"/>
<path d="M14042 6019 c-32 -12 -22 -34 16 -34 18 0 32 -1 32 -3 0 -2 -25 -31
-55 -65 -71 -78 -72 -108 -1 -76 20 10 31 8 60 -11 37 -22 97 -23 118 -2 18
18 -2 32 -36 26 -24 -3 -44 2 -70 17 l-37 22 24 26 c31 33 47 64 47 90 0 18
-6 21 -37 20 -21 0 -49 -4 -61 -10z"/>
<path d="M7790 5689 c0 -12 -15 -42 -34 -68 -18 -25 -51 -78 -74 -117 -23 -39
-48 -76 -56 -84 -22 -17 -20 -40 3 -40 30 0 51 11 51 26 0 16 88 172 102 180
9 6 9 -68 -1 -166 -6 -65 -6 -65 -40 -70 -46 -7 -51 -27 -9 -38 l33 -8 -4 -72
c-2 -59 0 -73 13 -78 9 -3 23 -1 31 6 18 15 20 50 4 50 -12 0 -7 75 5 88 4 3
22 5 42 5 30 -1 35 2 32 20 -3 19 -9 22 -42 20 -28 -2 -37 1 -33 11 3 7 9 66
13 130 3 64 10 116 14 116 9 0 40 -34 40 -45 0 -12 72 -115 80 -115 3 0 11 5
17 11 11 11 -40 98 -107 183 -16 21 -30 47 -30 57 0 14 -7 19 -25 19 -19 0
-25 -5 -25 -21z"/>
<path d="M3320 5685 c-7 -8 -18 -15 -25 -15 -7 0 -18 -7 -25 -15 -6 -8 -15
-13 -19 -12 -4 1 -30 -10 -58 -26 -84 -45 -90 -63 -101 -282 -7 -128 -15 -204
-26 -234 -9 -24 -16 -57 -16 -73 0 -24 4 -29 21 -26 26 4 51 38 32 45 -9 3 -8
15 3 46 10 26 19 106 24 207 5 91 9 166 10 168 0 1 24 2 54 2 52 0 55 -1 58
-27 4 -35 30 -37 38 -3 5 22 11 25 42 22 20 -2 39 2 43 8 8 13 -9 34 -28 36
-7 0 -20 2 -29 2 -15 2 -18 12 -18 55 0 54 19 87 48 87 7 0 12 11 12 25 0 28
-21 33 -40 10z m-60 -130 l0 -45 -49 0 c-28 0 -52 4 -55 9 -8 12 14 38 49 60
47 30 55 26 55 -24z"/>
<path d="M12267 5568 c-3 -12 -2 -29 3 -38 7 -13 2 -24 -18 -44 -16 -14 -35
-26 -43 -26 -8 0 -20 -5 -25 -10 -7 -7 -19 -1 -38 19 l-27 28 26 22 c17 12 25
27 21 36 -8 21 -39 19 -54 -5 -14 -23 -32 -26 -32 -5 0 19 -48 31 -63 16 -9
-9 -4 -18 20 -36 31 -25 31 -26 16 -55 -12 -25 -12 -34 -3 -45 15 -18 40 -3
40 23 0 12 7 9 28 -10 15 -14 35 -30 46 -35 16 -9 19 -25 21 -116 3 -114 6
-127 35 -127 26 0 34 18 18 37 -9 11 -13 46 -13 109 l0 93 39 40 c38 39 40 40
53 21 15 -21 43 -27 43 -10 0 6 -7 24 -15 40 -15 28 -14 30 10 46 26 17 34 54
12 54 -8 0 -22 -9 -33 -21 l-18 -20 -8 20 c-10 27 -34 27 -41 -1z"/>
<path d="M2290 5548 c0 -7 -13 -33 -29 -57 -24 -36 -35 -44 -65 -47 -50 -4
-91 -28 -115 -67 -26 -42 -26 -62 -2 -107 l18 -35 -33 -50 c-41 -60 -45 -98
-11 -93 12 2 22 10 22 18 0 8 11 34 24 57 l24 41 53 -5 c63 -7 78 3 105 62 23
49 24 108 3 139 -14 23 -13 27 16 75 18 28 29 58 26 66 -7 18 -36 20 -36 3z
m-96 -160 c-9 -15 -65 -101 -71 -108 -6 -7 -23 23 -23 43 0 25 54 77 80 77 14
0 19 -4 14 -12z m64 -49 c4 -50 -29 -99 -68 -99 -16 0 -30 5 -30 12 0 19 74
128 85 125 6 -2 11 -19 13 -38z"/>
<path d="M6776 5468 c-39 -45 -35 -68 11 -68 22 0 24 3 19 25 -5 18 -1 27 13
34 42 23 42 -31 -1 -110 -25 -44 -39 -59 -55 -59 -22 0 -73 -55 -73 -78 0 -23
23 -23 60 2 34 22 40 23 51 10 24 -30 80 -49 126 -45 7 1 20 15 29 32 13 26
14 36 4 55 -7 13 -19 25 -27 28 -17 7 -29 -22 -15 -36 16 -16 3 -38 -22 -38
-11 0 -35 9 -53 20 l-32 19 39 68 c46 78 52 131 20 163 -30 30 -55 24 -94 -22z"/>
<path d="M7210 5472 c-28 -35 -36 -39 -68 -37 -19 2 -44 0 -53 -6 -21 -11 -40
-72 -43 -139 -1 -34 -9 -57 -30 -84 -36 -48 -41 -100 -8 -104 24 -4 45 29 24
36 -8 2 -2 17 15 43 22 30 32 37 48 31 11 -4 37 -7 59 -6 72 0 110 89 70 165
-14 28 -14 32 6 63 11 19 30 36 41 39 26 7 20 31 -8 35 -15 2 -31 -9 -53 -36z
m-86 -127 c-16 -25 -32 -45 -35 -45 -7 0 6 70 13 73 1 1 12 7 23 13 30 18 30
9 -1 -41z m76 -39 c0 -36 -25 -66 -56 -66 -36 0 -36 13 3 70 38 56 53 55 53
-4z"/>
<path d="M11648 5483 c-8 -10 -25 -36 -37 -58 -21 -38 -24 -40 -62 -37 -54 6
-113 -33 -123 -78 -9 -47 -7 -109 3 -129 7 -13 3 -28 -18 -59 -43 -66 -84
-159 -78 -176 6 -15 9 -15 38 -1 24 13 30 21 26 37 -4 12 4 41 18 67 42 82 46
85 108 82 49 -2 58 1 91 29 49 43 52 66 21 128 l-26 53 26 47 c15 26 38 57 52
68 14 12 22 27 19 33 -11 17 -41 13 -58 -6z m-102 -156 c6 -6 -61 -113 -77
-123 -15 -9 -10 90 6 113 14 20 55 26 71 10z m62 -116 c-23 -30 -42 -41 -75
-41 l-32 0 41 65 42 65 18 -36 c14 -30 15 -40 6 -53z"/>
<path d="M13784 5449 c-18 -20 -18 -21 0 -34 26 -19 48 -8 44 23 -4 33 -20 38
-44 11z"/>
<path d="M1881 5441 c-11 -7 -14 -37 -12 -142 2 -126 10 -164 33 -157 12 4 14
301 2 305 -5 1 -15 -1 -23 -6z"/>
<path d="M8951 5414 c-81 -12 -115 -30 -87 -46 7 -4 49 -2 94 6 l81 12 -30
-33 c-16 -19 -29 -38 -29 -43 0 -5 -19 -8 -42 -7 -32 2 -43 -2 -43 -13 0 -8
10 -16 23 -18 22 -3 21 -5 -13 -46 -41 -51 -47 -83 -12 -71 12 5 74 11 137 14
99 5 115 8 118 24 3 15 -7 17 -99 17 l-103 0 29 30 c25 26 34 30 79 27 41 -2
51 1 54 15 3 14 -6 19 -38 24 l-41 7 30 31 c17 18 31 39 31 49 0 16 -30 38
-47 36 -4 -1 -46 -8 -92 -15z"/>
<path d="M9290 5414 c0 -9 -11 -25 -25 -36 -33 -26 -50 -91 -35 -128 21 -50
44 -63 100 -58 127 13 164 155 52 203 -20 9 -45 21 -54 26 -26 13 -38 11 -38
-7z m108 -77 c22 -17 13 -61 -18 -85 -63 -49 -141 -3 -109 63 25 53 73 61 127
22z"/>
<path d="M11133 5412 c-9 -22 6 -27 78 -26 38 1 69 -1 69 -5 0 -11 -33 -55
-52 -69 -26 -19 -23 -26 27 -58 53 -33 61 -52 40 -94 -13 -26 -21 -30 -56 -30
-30 0 -46 6 -63 25 -23 24 -66 35 -66 16 0 -42 65 -81 134 -81 37 0 48 5 69
30 50 58 43 116 -17 155 l-24 16 34 52 c38 58 39 60 21 75 -19 16 -188 11
-194 -6z"/>
<path d="M4872 5397 c-5 -6 -17 -39 -27 -72 -22 -77 -42 -115 -60 -115 -19 0
-19 33 0 96 30 98 8 115 -40 32 -16 -28 -50 -71 -73 -95 -26 -26 -41 -50 -38
-59 9 -23 32 -16 65 21 25 29 31 32 31 16 0 -54 65 -67 104 -21 l25 31 21 -21
c28 -28 100 -29 100 -1 0 16 -7 19 -31 19 -49 -2 -62 24 -55 104 6 66 -2 90
-22 65z"/>
<path d="M13520 5265 c-16 -8 -29 -10 -36 -4 -17 14 -42 -15 -54 -64 -6 -23
-15 -50 -21 -60 -5 -10 -7 -22 -4 -27 13 -20 35 -9 54 28 22 42 69 97 78 89 3
-3 0 -20 -6 -38 -29 -84 -3 -132 74 -132 48 0 75 15 75 44 0 23 1 23 -39 3
-26 -13 -38 -14 -58 -5 -22 10 -24 16 -19 44 18 92 19 119 5 128 -18 11 -19
11 -49 -6z"/>
<path d="M13748 5270 c-29 -18 -61 -78 -54 -105 11 -44 77 -60 125 -31 23 15
-1 35 -41 33 -55 -3 -59 16 -13 57 46 43 34 75 -17 46z"/>
<path d="M2385 5210 c-4 -7 -3 -16 3 -22 14 -14 45 -2 40 15 -6 16 -34 21 -43
7z"/>
<path d="M7321 5207 c-9 -11 -8 -17 3 -26 18 -15 48 -3 44 18 -4 21 -32 26
-47 8z"/>
<path d="M11743 5154 c-10 -26 38 -47 53 -22 4 6 -1 17 -11 25 -24 17 -34 17
-42 -3z"/>
<path d="M8266 4852 c-2 -4 -6 -54 -8 -111 l-2 -102 -55 3 c-61 3 -81 -15 -34
-33 48 -19 231 10 240 37 6 17 -22 24 -57 14 -53 -15 -56 -9 -52 100 4 86 2
100 -11 100 -9 0 -18 -4 -21 -8z"/>
<path d="M7906 4822 c-2 -4 -8 -47 -12 -95 l-7 -88 -45 3 c-29 2 -46 -1 -49
-9 -8 -22 48 -34 141 -30 74 3 92 7 94 20 4 18 -31 31 -69 25 -22 -3 -24 0
-24 47 0 28 4 69 8 93 6 38 5 42 -12 42 -11 0 -22 -4 -25 -8z"/>
<path d="M12248 4776 c-37 -19 -29 -41 13 -38 l37 3 -6 -66 c-5 -64 -4 -67 29
-101 18 -19 38 -34 45 -34 6 0 17 -7 24 -15 17 -21 -4 -45 -40 -45 -14 0 -30
-3 -33 -7 -13 -12 15 -33 44 -33 19 0 29 -5 29 -15 0 -11 -12 -15 -49 -15 -36
0 -51 -4 -55 -16 -9 -23 -8 -23 55 -25 53 -2 55 -3 51 -25 -5 -26 -10 -28 -65
-15 -32 8 -39 6 -47 -9 -12 -23 -8 -26 58 -35 46 -6 52 -10 52 -30 0 -22 -3
-23 -62 -22 -57 2 -63 0 -63 -18 0 -17 7 -20 45 -22 25 -1 53 -2 64 -2 16 -1
18 -7 13 -36 -3 -19 -1 -49 5 -67 6 -18 13 -39 15 -47 3 -11 6 -11 18 -1 16
13 21 65 7 74 -4 3 -6 21 -4 41 6 47 28 58 88 45 38 -9 51 -8 70 5 13 8 24 20
24 25 0 15 -19 22 -36 12 -10 -6 -30 -5 -51 1 -25 8 -43 8 -64 0 -28 -11 -29
-10 -29 18 0 16 6 29 13 30 6 0 33 3 58 5 34 4 49 1 59 -10 15 -19 40 -21 40
-3 0 8 -11 24 -25 37 -22 20 -31 22 -85 17 -57 -5 -75 2 -47 20 6 4 38 8 69 8
65 1 85 12 66 37 -11 14 -22 15 -67 8 -57 -10 -71 -7 -71 14 0 16 64 28 98 20
28 -8 57 13 42 31 -7 9 -32 12 -75 10 -58 -2 -65 -1 -65 16 0 10 0 22 0 26 0
3 14 8 32 10 19 2 46 16 66 36 32 30 34 35 28 84 l-6 53 30 -6 c46 -10 100 4
100 25 0 16 -9 18 -82 17 l-83 -1 0 -67 c0 -50 -4 -71 -17 -84 -16 -16 -18
-16 -37 7 -11 13 -21 31 -21 39 -1 24 -27 52 -45 48 -10 -1 -23 -19 -29 -38
-6 -19 -18 -35 -26 -35 -12 0 -15 14 -15 66 0 89 -31 123 -87 95z"/>
<path d="M2807 4718 c-2 -7 9 -27 25 -44 l29 -31 -36 -52 c-40 -60 -42 -67
-17 -73 26 -7 42 1 42 22 0 10 9 28 20 41 l19 24 13 -32 c7 -18 16 -33 20 -33
12 0 9 -52 -7 -130 -16 -75 -12 -120 11 -120 16 0 38 37 25 44 -5 3 -3 37 5
78 8 40 14 88 14 106 0 17 3 32 8 32 4 0 20 12 36 26 31 30 30 30 67 -38 12
-25 27 -38 39 -38 26 0 25 12 -5 60 -14 22 -22 40 -19 40 4 0 2 6 -5 13 -8 10
-4 22 18 48 27 32 31 59 9 59 -5 0 -32 -23 -61 -51 -92 -91 -110 -95 -148 -31
-45 75 -91 110 -102 80z"/>
<path d="M7137 4671 c-14 -17 -31 -31 -37 -31 -6 0 -10 -8 -8 -17 2 -13 13
-18 38 -18 28 0 35 4 40 25 7 28 38 39 51 18 12 -18 1 -66 -24 -108 -12 -19
-56 -69 -99 -112 -76 -76 -91 -102 -65 -111 19 -7 59 21 92 65 l30 40 3 -48
c4 -58 14 -72 57 -80 57 -10 126 46 91 75 -9 8 -19 4 -34 -14 -23 -26 -30 -29
-56 -19 -12 5 -16 21 -16 70 0 52 5 72 24 102 38 57 52 121 35 157 -12 25 -21
30 -55 33 -36 3 -45 -1 -67 -27z"/>
<path d="M13475 4691 c-43 -18 -59 -49 -63 -123 -3 -43 0 -74 7 -81 20 -20 36
11 38 75 1 46 6 66 21 80 25 25 59 16 73 -19 11 -28 33 -26 37 4 2 13 -8 30
-28 47 -33 27 -51 31 -85 17z"/>
<path d="M11242 4674 c3 -16 16 -21 78 -28 73 -8 74 -9 52 -26 -29 -23 -28
-44 2 -58 13 -6 33 -31 46 -57 24 -49 20 -73 -18 -122 -16 -20 -20 -21 -55 -8
-22 7 -49 23 -61 34 -20 19 -25 20 -35 7 -28 -34 116 -115 157 -89 9 5 30 35
46 65 28 51 29 57 18 97 -7 23 -26 56 -41 74 l-29 32 45 34 c46 36 52 58 12
53 -41 -5 -62 -5 -143 3 -74 8 -78 7 -74 -11z"/>
<path d="M11670 4681 c-14 -4 -25 -13 -25 -21 0 -11 11 -14 45 -13 l44 2 -44
-38 c-46 -40 -51 -71 -10 -71 33 0 56 -16 79 -56 23 -38 21 -65 -7 -96 -18
-22 -71 -23 -98 -3 -43 33 -62 3 -21 -35 18 -18 31 -21 74 -18 62 5 89 26 104
80 9 34 7 44 -17 88 -15 28 -30 50 -33 50 -3 0 -15 7 -26 16 -19 14 -18 16 24
52 58 50 52 72 -16 71 -26 -1 -59 -4 -73 -8z"/>
<path d="M4309 4655 c-20 -13 -39 -31 -43 -41 -12 -31 17 -66 72 -86 28 -11
52 -26 52 -33 0 -22 -42 -45 -82 -45 -32 0 -38 3 -38 21 0 28 -34 21 -38 -7
-5 -34 24 -54 77 -54 112 0 166 100 76 143 -20 9 -42 17 -49 17 -8 0 -19 6
-25 14 -9 11 -6 18 15 35 25 20 28 20 45 5 14 -12 22 -13 38 -4 30 16 26 28
-15 45 -46 19 -43 19 -85 -10z"/>
<path d="M6756 4668 c-8 -5 -13 -15 -10 -23 5 -12 25 -15 88 -15 l81 -1 -49
-44 c-53 -47 -54 -69 -2 -60 45 9 58 -11 59 -86 0 -50 -4 -65 -19 -76 -10 -7
-25 -11 -34 -7 -8 3 -34 9 -58 11 -34 5 -46 11 -58 34 -16 31 -38 38 -48 14
-9 -23 51 -85 83 -85 14 0 42 -5 61 -10 43 -13 82 1 100 36 29 52 7 191 -32
207 -13 6 10 30 64 69 15 11 20 20 13 26 -13 13 -219 21 -239 10z"/>
<path d="M9395 4672 c-16 -11 -33 -92 -26 -120 4 -15 23 -37 42 -50 61 -42
126 -10 149 74 15 51 6 68 -47 91 -35 14 -102 17 -118 5z m135 -58 c0 -3 -6
-20 -14 -39 -18 -42 -46 -58 -80 -45 -21 8 -26 16 -26 44 0 35 12 51 45 58 19
4 75 -10 75 -18z"/>
<path d="M1820 4645 c-16 -20 -4 -24 83 -27 l69 -3 -41 -44 c-42 -46 -48 -78
-12 -66 24 7 61 -26 61 -54 0 -10 -10 -33 -23 -52 -27 -41 -86 -53 -109 -22
-39 52 -98 50 -64 -2 17 -26 45 -41 103 -55 40 -9 78 14 110 67 34 57 28 106
-18 143 -19 15 -18 17 22 58 35 35 40 44 29 57 -18 21 -192 22 -210 0z"/>
<path d="M13610 4628 c-11 -12 -21 -27 -21 -32 -4 -36 11 -56 43 -56 9 0 28
-11 42 -25 46 -46 100 -31 142 41 24 41 25 47 11 61 -14 14 -17 12 -32 -18
-24 -48 -45 -69 -67 -69 -25 0 -33 25 -21 63 14 46 7 57 -37 57 -27 0 -45 -7
-60 -22z m47 -35 c-9 -9 -19 -14 -23 -11 -10 10 6 28 24 28 15 0 15 -1 -1 -17z"/>
<path d="M9050 4629 c-43 -12 -70 -42 -70 -79 0 -40 33 -64 88 -65 l47 -1 -3
-60 c-2 -32 -7 -83 -13 -113 -5 -30 -9 -67 -9 -83 0 -42 27 -35 46 12 18 44
96 120 124 120 27 0 46 28 33 48 -14 23 -43 28 -43 7 0 -8 -10 -19 -23 -24
-13 -5 -38 -21 -55 -36 -18 -15 -30 -20 -27 -12 4 8 7 63 8 123 2 86 5 108 16
106 19 -4 51 8 51 19 0 12 -67 41 -105 44 -16 2 -46 -1 -65 -6z m60 -52 c0
-34 -33 -61 -65 -53 -43 11 -30 57 20 69 38 9 45 7 45 -16z"/>
<path d="M2112 4622 c-9 -6 -13 -47 -15 -145 -2 -118 0 -138 15 -154 25 -24
45 -4 28 28 -11 20 -10 131 3 253 2 21 -12 30 -31 18z"/>
<path d="M4624 4610 c-32 -13 -68 -93 -54 -119 13 -25 47 -27 79 -5 14 10 26
13 30 7 20 -32 103 -48 142 -27 35 18 58 59 42 75 -8 8 -16 5 -30 -11 -28 -34
-47 -40 -86 -29 -33 9 -36 13 -43 55 -5 36 -12 47 -31 55 -13 5 -25 9 -26 8
-1 0 -12 -4 -23 -9z m30 -64 c-9 -22 -44 -42 -44 -24 0 23 31 61 41 51 6 -6 7
-17 3 -27z"/>
<path d="M14055 4570 c-53 -4 -70 -9 -70 -20 0 -10 12 -16 37 -18 l37 -3 -20
-34 c-11 -18 -26 -39 -34 -45 -24 -20 -6 -41 29 -35 42 8 76 -16 60 -42 -24
-39 -112 -56 -98 -18 9 24 -5 36 -27 25 -48 -26 8 -96 70 -86 94 15 137 120
61 149 -17 6 -30 17 -30 23 0 18 39 62 60 69 22 7 27 31 8 36 -7 2 -44 2 -83
-1z"/>
<path d="M8220 4500 c-8 -5 -46 -10 -85 -10 -73 0 -108 -12 -90 -29 6 -5 21
-11 35 -13 24 -3 25 -6 28 -93 3 -92 18 -130 48 -118 16 6 19 33 4 33 -6 0
-10 37 -10 90 l0 90 34 0 c38 0 68 23 60 45 -7 18 -5 17 -24 5z"/>
<path d="M11910 4341 c0 -20 25 -35 41 -25 13 8 -9 44 -26 44 -8 0 -15 -9 -15
-19z"/>
<path d="M2237 4317 c-3 -8 -1 -20 4 -28 7 -12 11 -11 25 3 17 17 12 38 -11
38 -7 0 -15 -6 -18 -13z"/>
<path d="M7403 4303 c-17 -6 -16 -43 1 -43 18 0 39 27 31 40 -7 11 -13 11 -32
3z"/>
<path d="M4235 3983 c-22 -6 -36 -23 -29 -35 3 -4 33 -5 68 -1 41 4 66 2 70
-5 13 -22 -20 -73 -78 -119 -100 -80 -119 -139 -57 -176 39 -23 97 -23 109 1
12 23 4 42 -18 42 -10 0 -20 -6 -23 -12 -5 -16 -58 1 -65 20 -2 8 34 50 82 96
47 45 86 90 86 98 0 9 3 23 6 32 3 9 -5 26 -20 41 -20 19 -34 25 -68 24 -24
-1 -52 -4 -63 -6z"/>
<path d="M9073 3943 c-19 -10 -33 -24 -33 -35 0 -22 27 -24 51 -2 17 15 22 15
69 -2 71 -25 65 -47 -25 -101 -77 -45 -95 -69 -95 -126 0 -28 7 -44 26 -62 41
-38 129 -48 129 -15 0 9 -15 17 -44 22 -56 10 -71 23 -71 64 0 31 6 38 58 70
71 46 122 93 122 114 0 20 -23 42 -65 63 -49 24 -87 27 -122 10z"/>
<path d="M7814 3925 c-4 -11 4 -26 23 -43 16 -15 38 -37 48 -49 18 -22 18 -23
-26 -41 -77 -34 -102 -81 -74 -141 16 -37 59 -71 89 -71 25 0 19 -16 -20 -48
-22 -18 -43 -28 -55 -25 -13 4 -22 -3 -30 -21 -31 -68 47 -46 134 38 26 26 52
44 57 41 16 -10 96 72 108 112 10 34 9 42 -17 88 -25 45 -33 51 -68 55 -34 4
-47 14 -84 60 -48 58 -75 72 -85 45z m122 -190 c7 -37 0 -91 -15 -114 -14 -22
-78 4 -97 40 -21 41 -9 67 39 89 59 26 65 25 73 -15z m59 29 c8 -4 22 -19 30
-34 12 -24 12 -30 -4 -56 -10 -16 -28 -38 -40 -48 l-21 -19 11 32 c6 18 9 55
7 82 -3 27 -4 49 -2 49 1 0 10 -3 19 -6z"/>
<path d="M2975 3913 c-11 -3 -35 -20 -54 -39 -18 -18 -45 -36 -60 -39 -44 -10
-101 -68 -108 -109 -6 -39 11 -92 33 -100 8 -3 14 -17 14 -32 0 -42 20 -99 46
-130 19 -23 25 -26 33 -15 6 9 3 26 -10 50 -10 20 -21 50 -25 66 -5 30 -5 30
41 30 37 0 50 5 65 25 28 36 26 103 -5 155 l-24 42 27 26 c15 15 38 28 52 30
28 4 39 25 19 38 -8 5 -16 8 -19 8 -3 -1 -14 -4 -25 -6z m-140 -173 c-14 -27
-25 -57 -25 -67 0 -15 -2 -16 -10 -3 -19 29 -11 63 23 91 17 16 33 28 35 29 1
0 -9 -22 -23 -50z m83 5 c15 -34 15 -88 0 -103 -14 -14 -47 -15 -67 -3 -11 7
-8 20 14 70 15 33 31 61 35 61 4 0 12 -11 18 -25z"/>
<path d="M6590 3891 c0 -18 7 -20 61 -23 60 -3 60 -3 42 -23 -60 -65 -67 -98
-23 -120 43 -22 55 -50 41 -95 -16 -54 -42 -73 -98 -72 -39 1 -51 6 -66 27
-15 20 -22 23 -33 14 -36 -30 -5 -64 73 -78 65 -13 108 2 138 47 48 74 39 153
-21 185 l-25 13 33 41 c18 23 45 47 61 54 15 6 27 18 27 25 0 8 -1 14 -2 14
-2 0 -49 3 -105 6 -99 6 -103 5 -103 -15z"/>
<path d="M6895 3886 c-54 -13 -52 -7 -39 -98 8 -55 22 -63 68 -41 30 14 39 14
67 3 41 -17 63 -68 54 -124 -9 -62 -30 -88 -63 -80 -47 12 -83 34 -92 59 -7
19 -17 25 -40 25 -39 0 -38 -18 3 -57 68 -64 158 -86 197 -47 31 31 47 123 30
174 -23 70 -107 118 -158 91 -17 -9 -20 -7 -25 17 -3 15 -1 32 4 37 6 6 47 11
92 11 75 2 82 3 85 23 3 20 -1 21 -65 20 -37 0 -90 -6 -118 -13z"/>
<path d="M1766 3881 c-13 -20 64 -51 126 -51 l40 0 -31 -39 c-37 -47 -40 -71
-8 -71 13 0 31 -6 42 -13 45 -34 -29 -157 -95 -157 -26 0 -30 3 -21 13 14 17
4 27 -25 27 -58 0 -70 -26 -28 -59 31 -25 80 -27 129 -7 37 16 95 103 95 144
0 37 -28 82 -51 82 -19 0 -18 3 10 37 47 57 42 70 -26 78 -32 3 -72 10 -89 15
-38 12 -61 13 -68 1z"/>
<path d="M2181 3832 c-12 -23 -41 -66 -66 -96 -67 -82 -59 -103 25 -70 23 9
43 15 45 13 2 -2 -2 -41 -7 -85 -12 -88 -7 -117 18 -112 13 2 17 17 19 63 2
33 6 82 10 108 7 45 9 48 32 42 13 -3 28 -3 33 0 15 10 -8 45 -29 45 -15 0
-19 10 -23 51 -3 28 -12 57 -21 66 -14 14 -17 12 -36 -25z m16 -96 c-3 -7 -15
-16 -26 -19 -21 -5 -21 -5 1 26 20 28 37 24 25 -7z"/>
<path d="M12120 3758 c0 -7 7 -33 16 -57 16 -48 14 -71 -18 -140 -37 -82 -31
-145 11 -107 10 9 23 16 29 16 6 0 34 20 62 45 52 47 58 49 84 39 31 -12 16
-39 -33 -60 -27 -12 -57 -34 -66 -48 -16 -24 -16 -35 -6 -99 6 -40 16 -102 21
-139 10 -77 22 -103 49 -111 22 -5 35 2 44 25 8 22 -15 42 -30 27 -8 -8 -13 2
-17 37 -4 27 -11 69 -16 94 -16 77 -21 134 -12 147 4 7 33 23 64 37 41 18 57
31 62 50 11 46 -28 85 -86 86 -10 0 -43 -21 -73 -46 -31 -25 -60 -43 -63 -39
-4 4 2 13 12 20 10 8 19 22 20 32 5 47 19 93 30 94 6 1 40 3 76 3 52 1 75 7
113 30 83 49 78 88 -6 43 -53 -29 -73 -33 -160 -29 -44 2 -50 5 -60 32 -11 30
-47 43 -47 18z"/>
<path d="M13357 3754 c-16 -16 -6 -34 19 -34 19 0 25 5 22 17 -3 19 -29 29
-41 17z"/>
<path d="M11036 3694 c-24 -25 -25 -29 -11 -44 9 -10 37 -23 63 -30 66 -18 67
-20 33 -41 -39 -24 -40 -52 -2 -79 41 -28 46 -52 21 -100 -31 -61 -111 -83
-118 -32 -3 18 -9 23 -30 20 -37 -4 -38 -23 -4 -58 34 -34 72 -39 126 -16 25
10 40 28 61 70 31 64 29 93 -11 133 -24 24 -24 26 -7 39 10 7 25 16 35 19 27
9 29 34 5 49 -12 8 -43 20 -69 26 -41 11 -46 15 -45 37 3 36 -15 38 -47 7z"/>
<path d="M13607 3712 c-23 -3 -33 -13 -48 -48 -24 -53 -18 -79 21 -99 39 -20
62 -19 89 6 37 34 55 109 31 124 -20 12 -65 21 -93 17z m63 -63 c0 -9 -8 -27
-19 -40 -16 -20 -22 -22 -44 -12 -23 11 -25 15 -16 40 8 23 15 28 44 29 27 0
35 -4 35 -17z"/>
<path d="M11520 3620 c-56 -56 -110 -143 -110 -177 0 -40 18 -100 36 -118 41
-41 109 -24 152 38 27 41 28 68 2 92 -27 25 -85 12 -122 -27 l-28 -30 0 31 c0
55 104 191 146 191 17 0 24 6 24 20 0 16 -7 20 -30 20 -22 0 -41 -11 -70 -40z
m55 -200 c11 -18 -34 -70 -60 -70 -32 0 -37 12 -19 39 23 32 68 50 79 31z"/>
<path d="M13395 3630 c-3 -5 -1 -18 5 -29 5 -11 10 -49 10 -86 0 -52 -3 -67
-17 -72 -11 -4 -22 1 -31 15 -18 27 -42 29 -42 4 0 -26 42 -62 73 -62 39 0 57
34 57 105 0 94 -10 135 -31 135 -10 0 -21 -4 -24 -10z"/>
<path d="M7222 3523 c2 -10 10 -18 18 -18 8 0 16 8 18 18 2 12 -3 17 -18 17
-15 0 -20 -5 -18 -17z"/>
<path d="M2321 3511 c-14 -9 -9 -41 6 -41 19 1 35 19 30 34 -7 18 -16 20 -36
7z"/>
<path d="M4217 3413 c-11 -10 -8 -51 4 -59 14 -8 59 16 59 32 0 22 -48 42 -63
27z"/>
<path d="M9115 3396 c-18 -13 -18 -47 0 -53 16 -5 35 12 40 34 4 26 -17 36
-40 19z"/>
<path d="M11765 3386 c-11 -8 -16 -19 -12 -30 9 -23 34 -20 42 5 9 29 -7 42
-30 25z"/>
<path d="M7923 3251 c-28 -21 -55 -53 -63 -70 -13 -33 -29 -38 -62 -20 -15 8
-27 8 -44 0 -38 -17 -29 -38 17 -44 22 -3 43 -8 46 -11 3 -2 -14 -38 -36 -80
-28 -50 -48 -76 -62 -78 -15 -2 -26 -19 -40 -58 -93 -259 -103 -300 -75 -300
16 0 38 24 30 33 -10 10 27 100 53 128 12 14 23 30 23 37 0 6 12 36 26 65 l27
54 111 1 c61 0 119 -2 128 -4 21 -6 26 -31 37 -183 9 -114 16 -136 38 -123 10
6 10 34 3 122 -11 123 -36 300 -50 349 -8 29 -8 29 38 35 26 4 67 6 90 5 45
-2 65 12 55 38 -5 14 -33 19 -33 6 0 -5 -38 -9 -84 -9 l-83 -1 -13 69 c-8 38
-17 71 -21 73 -4 3 -29 -12 -56 -34z m46 -88 c1 -20 -4 -23 -39 -23 -45 0 -45
0 -25 40 26 51 62 41 64 -17z m30 -132 c16 -75 12 -79 -64 -83 -60 -3 -137 1
-143 6 -2 2 15 37 37 78 l40 73 58 -5 58 -5 14 -64z"/>
<path d="M12582 3138 c-17 -35 -35 -78 -38 -96 l-7 -33 -74 2 c-77 2 -89 -1
-80 -24 3 -9 26 -14 68 -16 35 -1 65 -4 67 -6 11 -11 -64 -210 -95 -251 -13
-17 -28 -46 -34 -65 -7 -19 -18 -41 -25 -49 -19 -23 -23 -105 -5 -105 8 0 18
14 23 30 16 50 30 73 48 78 10 3 21 18 25 37 6 26 71 209 92 260 12 27 20
-112 15 -238 -5 -122 -5 -124 -28 -119 -30 5 -48 -7 -41 -27 5 -13 23 -16 90
-16 46 0 86 3 90 6 13 13 -7 34 -33 34 -26 0 -28 3 -34 53 -4 28 -4 77 -1 107
3 30 2 93 -3 140 -10 116 -9 120 38 120 39 0 39 0 44 -47 4 -27 13 -97 21
-158 8 -60 15 -125 15 -143 0 -25 5 -35 19 -39 16 -4 25 -24 47 -100 2 -7 13
-13 24 -13 28 0 26 37 -5 91 -18 33 -23 52 -19 77 5 24 3 32 -9 32 -19 0 -30
52 -52 252 l-6 57 45 6 c24 4 50 4 56 0 15 -9 60 22 60 41 0 12 -7 14 -27 10
-16 -2 -53 -8 -84 -11 l-57 -6 -6 33 c-9 49 -63 158 -79 158 -7 0 -27 -28 -45
-62z m72 -65 c24 -70 23 -73 -33 -73 l-50 0 19 55 c31 91 38 93 64 18z"/>
<path d="M7003 3157 c-58 -40 -87 -113 -62 -158 8 -17 6 -24 -16 -40 -36 -29
-55 -71 -55 -121 0 -107 101 -130 165 -38 34 49 58 136 44 162 -8 15 -4 32 20
78 32 62 39 108 19 128 -19 19 -80 13 -115 -11z m87 -32 c0 -33 -40 -92 -69
-105 -48 -19 -63 2 -39 54 9 20 16 24 35 20 15 -4 23 -2 23 6 0 13 28 39 43
40 4 0 7 -7 7 -15z m-56 -230 c-35 -117 -124 -157 -124 -56 0 48 13 66 47 66
15 0 28 6 29 13 1 6 2 14 3 17 0 3 14 5 30 5 l29 0 -14 -45z"/>
<path d="M13850 3160 c0 -23 22 -27 39 -7 13 16 5 27 -21 27 -11 0 -18 -7 -18
-20z"/>
<path d="M3182 3098 c-57 -100 -114 -227 -147 -326 -30 -92 -64 -159 -95 -187
-24 -22 -26 -45 -5 -45 22 0 75 41 75 58 0 8 9 31 20 51 11 20 36 83 56 141
35 101 132 306 141 297 9 -9 44 -226 53 -329 9 -110 22 -152 43 -145 7 2 11
17 10 33 -10 115 -24 232 -37 304 -46 254 -50 259 -114 148z"/>
<path d="M6655 3128 c-95 -9 -105 -12 -105 -34 0 -15 8 -16 65 -10 36 4 65 3
65 -2 0 -5 -11 -19 -25 -32 -42 -39 -31 -78 25 -95 51 -16 54 -59 6 -109 -35
-38 -60 -40 -69 -5 -5 20 -32 25 -57 9 -12 -7 -11 -12 5 -31 11 -12 35 -28 53
-36 29 -12 36 -12 63 4 38 23 79 85 79 121 0 31 -33 82 -53 82 -7 0 -19 5 -27
10 -12 8 -8 17 26 52 45 47 59 74 41 80 -7 2 -48 1 -92 -4z"/>
<path d="M8973 3045 c-34 -24 -65 -82 -65 -123 0 -25 -6 -41 -19 -50 -26 -18
-8 -42 30 -42 15 0 32 -5 37 -10 17 -17 78 -14 106 4 38 25 108 134 108 168 0
32 -27 40 -36 11 -18 -56 -30 -77 -69 -118 -27 -30 -48 -44 -58 -40 -10 3 -24
7 -33 10 -12 4 -9 10 15 30 47 40 73 89 65 122 -13 54 -40 67 -81 38z m23 -96
c-26 -38 -36 -45 -49 -33 -9 9 12 56 36 82 18 20 22 21 30 7 6 -12 1 -28 -17
-56z"/>
<path d="M1913 3015 c-8 -22 24 -42 79 -50 l47 -7 -34 -43 c-35 -46 -53 -101
-39 -115 5 -5 38 -10 74 -12 61 -3 65 -4 68 -28 4 -35 -36 -91 -76 -107 -29
-12 -34 -11 -49 7 -10 11 -23 20 -30 20 -18 0 -16 -35 2 -54 28 -27 54 -29
103 -4 35 17 53 34 70 68 45 91 20 140 -73 140 l-56 0 15 28 c8 15 33 45 55
67 23 21 41 45 41 51 0 8 -23 15 -57 19 -32 4 -73 14 -92 21 -41 17 -40 17
-48 -1z"/>
<path d="M11433 3010 c-27 -11 -63 -66 -63 -96 0 -12 6 -27 14 -33 20 -17 78
-16 114 1 l31 16 -7 -31 c-4 -18 -7 -80 -7 -138 0 -91 3 -110 19 -128 14 -16
23 -18 37 -10 25 13 24 46 -1 59 -26 14 -27 87 -4 235 9 58 14 111 11 120 -10
23 -26 18 -38 -12 -18 -48 -59 -83 -96 -83 -39 0 -41 8 -12 44 18 22 26 26 54
20 33 -6 56 9 38 27 -14 14 -66 19 -90 9z"/>
<path d="M10977 3003 c-28 -27 18 -56 116 -74 37 -7 67 -16 67 -19 0 -4 -18
-28 -40 -53 -22 -25 -40 -50 -40 -56 0 -6 15 -17 34 -25 44 -18 60 -48 53
-100 -4 -29 -15 -49 -37 -68 -38 -35 -52 -35 -96 -2 -28 21 -32 29 -23 41 9
10 9 17 1 25 -14 14 -62 -4 -62 -23 0 -19 84 -97 113 -104 38 -10 83 11 115
53 23 30 27 45 27 100 0 61 -2 66 -32 89 l-32 25 45 66 c57 85 57 96 -1 88
-61 -10 -112 1 -118 25 -4 15 -14 19 -44 19 -22 0 -43 -3 -46 -7z"/>
<path d="M2240 2982 c0 -26 13 -30 110 -38 l80 -7 -25 -33 c-14 -18 -34 -54
-45 -79 -18 -43 -22 -46 -54 -43 -40 2 -51 -4 -43 -27 4 -9 19 -15 38 -15 25
0 30 -3 25 -17 -4 -9 -9 -42 -13 -73 -5 -51 -3 -60 17 -80 29 -29 50 -12 30
25 -11 20 -11 37 -2 87 13 67 19 75 75 84 20 4 37 12 37 20 0 16 -34 27 -61
19 -19 -6 -20 -5 -8 17 7 12 30 48 51 79 37 54 46 79 31 79 -66 1 -203 10
-220 15 -19 6 -23 3 -23 -13z"/>
<path d="M13548 2941 c-33 -32 -39 -44 -33 -63 3 -13 10 -62 14 -111 8 -89 21
-121 42 -100 6 6 9 36 7 69 -3 59 -3 59 26 61 59 5 114 88 94 143 -12 32 -25
40 -71 40 -30 0 -46 -8 -79 -39z m112 -30 c0 -33 -51 -84 -75 -75 -19 8 -19
28 0 44 12 10 13 16 3 27 -15 18 4 33 45 33 23 0 27 -4 27 -29z"/>
<path d="M3199 2958 c-1 -7 -1 -17 0 -22 1 -6 -2 -19 -8 -30 -22 -46 -62 -272
-64 -366 -2 -54 1 -65 16 -68 14 -3 17 4 17 41 0 25 6 80 14 123 8 44 17 93
20 109 12 73 27 132 38 152 8 17 8 29 0 48 -12 26 -31 34 -33 13z"/>
<path d="M13787 2938 c-22 -18 -37 -61 -37 -111 0 -91 64 -116 136 -53 30 26
36 37 27 46 -9 10 -19 6 -46 -14 -18 -14 -44 -26 -55 -26 -19 0 -22 6 -22 39
0 53 14 87 39 94 29 7 27 37 -2 37 -13 0 -31 -6 -40 -12z"/>
<path d="M7197 2819 c-20 -12 -22 -35 -3 -42 15 -6 36 11 36 29 0 19 -13 24
-33 13z"/>
<path d="M2517 2644 c-14 -14 -7 -35 11 -32 9 2 17 10 17 17 0 16 -18 25 -28
15z"/>
<path d="M11690 2614 c-24 -28 -29 -39 -19 -45 23 -14 79 29 79 60 0 32 -24
26 -60 -15z"/>
<path d="M4660 2466 c0 -20 16 -29 40 -21 32 10 25 35 -10 35 -19 0 -30 -5
-30 -14z"/>
<path d="M3533 2405 c-8 -21 -52 -43 -115 -56 -118 -25 -186 -82 -258 -214
-63 -118 -79 -181 -82 -325 -2 -116 9 -166 35 -157 12 4 12 8 1 92 -7 50 -7
50 12 28 16 -18 32 -22 104 -25 70 -2 85 0 88 12 2 10 -9 19 -30 25 -29 9 -33
15 -36 50 -6 65 6 103 31 107 34 5 27 31 -11 39 -46 9 -114 -9 -110 -30 3 -11
13 -15 32 -14 24 2 27 -1 22 -20 -3 -12 -6 -46 -6 -74 0 -46 -3 -53 -19 -53
-11 0 -23 5 -26 10 -3 6 -15 10 -26 10 -17 0 -19 7 -19 58 0 31 6 80 14 107
19 71 114 241 151 269 l31 24 -4 -33 c-2 -18 8 -80 22 -137 14 -56 30 -132 36
-168 32 -199 57 -267 81 -229 11 18 12 59 1 59 -5 0 -19 55 -32 123 -12 67
-33 169 -47 226 -22 92 -23 108 -12 147 13 42 15 44 69 55 89 18 156 62 144
94 -8 19 -33 19 -41 0z"/>
<path d="M12829 2350 l-24 -20 25 -20 c14 -11 31 -20 38 -20 19 0 14 -18 -8
-32 -25 -16 -25 -34 0 -81 22 -41 16 -50 -30 -45 -19 2 -25 -2 -25 -17 0 -15
8 -21 34 -23 57 -6 104 56 66 88 -19 16 -19 39 0 64 22 29 18 63 -7 78 -13 7
-23 19 -23 27 0 23 -20 23 -46 1z"/>
<path d="M9302 2283 c5 -26 38 -29 38 -4 0 15 -6 21 -21 21 -14 0 -19 -5 -17
-17z"/>
<path d="M6708 2279 c-10 -5 -18 -16 -18 -23 0 -8 -7 -16 -15 -20 -8 -3 -15
-16 -15 -28 0 -13 -27 -63 -60 -113 -33 -49 -60 -96 -60 -102 0 -20 26 -15 57
10 15 13 40 27 56 31 30 7 27 19 32 -124 3 -57 4 -60 24 -60 23 0 35 15 25 31
-3 6 -9 46 -11 89 l-4 78 48 7 c58 9 64 11 56 31 -5 12 -15 14 -53 9 l-48 -7
-7 50 c-5 40 -2 58 15 91 27 53 18 74 -22 50z m-30 -194 c-2 -1 -13 -6 -26
-10 l-23 -7 23 36 c23 35 23 35 26 10 2 -14 2 -27 0 -29z"/>
<path d="M4529 2268 c0 -2 -2 -35 -4 -75 -2 -48 -9 -83 -21 -104 -26 -44 -44
-48 -44 -11 0 64 -18 77 -57 40 l-24 -22 20 44 c26 58 26 85 0 104 -29 20 -56
6 -129 -69 -43 -43 -52 -58 -41 -64 21 -13 37 -4 91 53 27 28 52 48 55 44 4
-4 -11 -47 -34 -96 -50 -107 -51 -122 -12 -122 22 0 35 9 57 42 l29 42 3 -38
c4 -47 21 -53 66 -24 43 27 72 84 81 153 7 51 -6 105 -25 105 -5 0 -10 -1 -11
-2z"/>
<path d="M6964 2223 c3 -21 2 -92 -2 -158 -9 -134 -5 -173 20 -189 28 -17 41
4 25 40 -11 23 -12 56 -5 161 9 138 2 183 -28 183 -13 0 -15 -7 -10 -37z"/>
<path d="M7878 2228 c-2 -6 7 -48 19 -92 38 -128 31 -260 -13 -276 -25 -10
-31 -29 -14 -46 13 -13 -50 -96 -85 -112 -28 -13 -33 -37 -9 -46 19 -7 117 83
134 124 13 32 20 34 94 24 l46 -7 0 -53 c0 -29 -5 -56 -10 -59 -8 -5 -7 -11 1
-21 8 -10 16 -11 31 -3 17 9 19 19 16 79 l-3 69 33 6 c66 12 89 -15 101 -122
6 -52 9 -58 39 -70 28 -11 33 -11 38 2 9 23 -4 48 -21 41 -11 -4 -15 3 -15 28
0 18 -6 51 -14 72 -7 22 -11 45 -9 52 3 7 -1 19 -7 27 -34 41 13 329 57 354
10 5 14 15 10 25 -17 43 -58 -1 -85 -90 -26 -90 -32 -126 -33 -206 l-1 -66
-46 -6 c-25 -3 -47 -4 -49 -2 -2 2 -6 33 -10 70 l-6 68 44 -4 c35 -2 44 0 47
14 3 14 -7 18 -47 24 l-51 7 0 63 c0 34 5 75 10 90 14 36 -3 56 -27 32 -10
-11 -18 -39 -20 -75 -5 -64 -19 -103 -39 -103 -7 0 -15 -6 -17 -12 -3 -7 -6
-2 -6 12 -1 35 -40 172 -53 187 -13 16 -25 17 -30 1z m155 -301 c3 -39 4 -74
1 -79 -5 -8 -82 -2 -91 6 -2 1 2 17 7 35 5 18 10 52 11 75 2 41 3 41 34 38 32
-4 32 -4 38 -75z"/>
<path d="M2570 2198 c-11 -18 -27 -51 -35 -73 l-16 -40 -76 -2 c-81 -2 -104
-13 -87 -40 7 -12 4 -27 -12 -60 -25 -48 -20 -86 16 -118 18 -16 18 -18 -10
-62 -16 -25 -37 -68 -46 -95 -15 -45 -15 -52 -1 -65 17 -18 41 -8 33 13 -6 16
22 85 58 143 22 35 31 41 60 41 63 0 95 19 121 71 30 59 32 108 5 142 l-21 26
22 50 c12 28 27 56 35 62 21 17 17 39 -6 39 -12 0 -28 -13 -40 -32z m-83 -174
c3 -9 -52 -100 -78 -128 -12 -14 -39 13 -39 38 0 12 14 41 31 65 25 33 37 41
57 39 14 -2 27 -8 29 -14z m73 -30 c0 -45 -36 -102 -70 -109 -18 -4 -33 -5
-36 -3 -2 3 8 20 22 39 14 19 34 51 45 72 21 41 39 41 39 1z"/>
<path d="M4653 2183 c-35 -83 -27 -153 18 -153 28 0 69 22 69 36 0 19 -20 28
-33 15 -35 -35 -48 9 -21 74 16 38 13 65 -6 65 -6 0 -18 -17 -27 -37z"/>
<path d="M11113 2171 c-2 -10 -16 -24 -29 -30 -17 -7 -24 -19 -24 -38 -1 -30
-21 -60 -114 -172 -36 -44 -56 -77 -52 -86 8 -23 66 -18 111 10 22 13 44 25
49 25 5 0 6 -34 2 -77 -5 -60 -4 -82 7 -98 13 -16 17 -17 31 -6 18 15 21 37 7
43 -6 2 -7 35 -4 81 6 76 7 79 29 74 13 -2 29 2 35 10 10 11 6 16 -20 26 -30
11 -31 12 -31 78 0 53 5 76 25 110 14 24 25 50 25 57 0 20 -41 14 -47 -7z
m-47 -225 c-4 -13 -29 -32 -64 -50 l-57 -28 38 43 c21 24 48 58 60 76 l22 32
3 -25 c2 -15 1 -36 -2 -48z"/>
<path d="M11456 2180 c-37 -11 -106 -78 -106 -102 0 -28 21 -21 65 21 70 68
111 61 88 -14 -10 -30 -42 -77 -219 -322 -39 -54 -46 -83 -20 -83 6 0 29 26
51 56 55 77 81 104 101 104 14 0 16 -7 11 -49 -4 -34 -1 -54 9 -70 22 -30 74
-28 113 5 36 30 59 97 40 120 -18 22 -42 18 -36 -7 12 -45 -26 -98 -70 -99
-21 0 -22 3 -16 49 5 43 3 52 -19 74 l-25 25 38 48 c49 62 89 145 89 183 0 32
-30 72 -52 70 -7 0 -26 -5 -42 -9z"/>
<path d="M12416 2175 c-11 -30 -7 -35 33 -35 l38 0 -8 -49 c-12 -75 -66 -222
-88 -237 -11 -8 -25 -31 -31 -52 -7 -20 -28 -69 -47 -109 -33 -66 -38 -103
-14 -103 5 0 24 31 41 69 28 61 34 68 47 55 19 -19 33 -9 33 25 0 15 20 85 43
156 24 72 49 153 56 181 12 51 13 52 58 58 25 3 78 6 118 6 50 0 76 4 84 14
20 24 -3 28 -147 25 -75 -2 -153 0 -173 4 -30 7 -37 6 -43 -8z"/>
<path d="M2114 2133 c-16 -52 -173 -263 -195 -263 -11 0 -12 -27 0 -34 4 -3
32 3 62 13 72 25 119 34 120 24 0 -4 10 -57 22 -118 19 -96 25 -110 42 -110
23 0 23 -3 -4 130 -11 55 -18 102 -15 104 2 2 22 -2 44 -9 22 -7 43 -10 46 -7
15 15 -9 38 -52 49 l-46 13 4 77 c3 42 11 84 18 93 11 13 10 19 -5 35 -22 25
-34 25 -41 3z m-16 -208 c-2 -2 -23 -8 -46 -13 -32 -8 -41 -7 -34 1 4 7 24 32
43 57 l34 44 3 -43 c2 -24 2 -45 0 -46z"/>
<path d="M12596 2115 c-3 -9 1 -24 10 -32 13 -14 15 -35 9 -152 -5 -108 -3
-152 10 -216 18 -87 24 -98 43 -86 11 6 10 24 -3 97 -13 68 -16 117 -11 214 4
69 3 139 -2 155 -9 34 -45 47 -56 20z"/>
<path d="M9042 2104 c-34 -24 -50 -64 -40 -101 6 -25 17 -35 53 -49 51 -19 54
-37 7 -42 -23 -2 -33 2 -42 18 -9 17 -14 19 -26 9 -35 -29 6 -69 73 -69 46 0
73 25 73 68 0 18 -10 27 -49 44 -58 23 -69 47 -36 78 18 17 30 20 53 16 20 -5
33 -2 41 8 27 32 -65 50 -107 20z"/>
<path d="M9280 2076 c-26 -43 -32 -132 -10 -146 40 -26 132 6 111 39 -6 10
-13 11 -29 2 -11 -6 -30 -11 -42 -11 -19 0 -20 4 -15 38 4 20 15 49 26 64 24
34 24 48 0 48 -11 0 -28 -15 -41 -34z"/>
<path d="M13466 1969 c-31 -28 -56 -55 -56 -60 0 -26 31 -15 75 26 47 42 85
58 85 34 0 -5 -13 -42 -30 -81 -30 -71 -39 -128 -19 -128 16 0 59 36 84 70
l22 30 17 -25 c32 -49 84 -25 102 48 7 29 -12 113 -28 123 -21 13 -29 -14 -17
-60 9 -37 9 -53 -1 -74 l-12 -27 -26 33 c-33 39 -44 40 -71 5 l-21 -28 20 45
c35 80 23 120 -36 120 -25 0 -45 -12 -88 -51z"/>
<path d="M13910 1975 c-16 -17 -22 -37 -23 -72 -1 -69 15 -93 62 -93 44 0 66
20 86 77 11 32 11 42 -1 65 -13 25 -23 30 -86 42 -9 2 -26 -7 -38 -19z m88
-37 c17 -22 -15 -88 -43 -88 -17 0 -24 7 -28 28 -10 51 42 95 71 60z"/>
<path d="M7103 1874 c-6 -16 15 -37 29 -28 4 3 8 14 8 25 0 23 -28 26 -37 3z"/>
<path d="M2600 1810 c-11 -21 -4 -25 30 -20 17 2 31 21 24 32 -10 15 -43 8
-54 -12z"/>
<path d="M11694 1809 c-3 -6 3 -20 14 -32 19 -19 22 -19 28 -4 13 35 -23 66
-42 36z"/>
<path d="M12467 1625 c-3 -7 2 -24 11 -36 15 -17 20 -19 29 -8 14 18 -1 59
-21 59 -7 0 -16 -7 -19 -15z"/>
</g>
</svg>
